<?xml version="1.0" encoding="UTF-8" standalone="no"?>
<!-- Created with Inkscape (http://www.inkscape.org/) -->
<svg
   xmlns:dc="http://purl.org/dc/elements/1.1/"
   xmlns:cc="http://creativecommons.org/ns#"
   xmlns:rdf="http://www.w3.org/1999/02/22-rdf-syntax-ns#"
   xmlns:svg="http://www.w3.org/2000/svg"
   xmlns="http://www.w3.org/2000/svg"
   xmlns:sodipodi="http://sodipodi.sourceforge.net/DTD/sodipodi-0.dtd"
   xmlns:inkscape="http://www.inkscape.org/namespaces/inkscape"
   version="1.0"
   width="48"
   height="48"
   viewBox="0 0 1 1"
   id="svg17424"
   sodipodi:version="0.32"
   inkscape:version="0.46"
   sodipodi:docname="bio-hazard.svg"
   inkscape:output_extension="org.inkscape.output.svg.inkscape">
  <metadata
     id="metadata8">
    <rdf:RDF>
      <cc:Work
         rdf:about="">
        <dc:format>image/svg+xml</dc:format>
        <dc:type
           rdf:resource="http://purl.org/dc/dcmitype/StillImage" />
      </cc:Work>
    </rdf:RDF>
  </metadata>
  <defs
     id="defs6">
    <inkscape:perspective
       sodipodi:type="inkscape:persp3d"
       inkscape:vp_x="0 : 250 : 1"
       inkscape:vp_y="0 : 1000 : 0"
       inkscape:vp_z="500 : 250 : 1"
       inkscape:persp3d-origin="250 : 166.66667 : 1"
       id="perspective10" />
  </defs>
  <sodipodi:namedview
     inkscape:window-height="722"
     inkscape:window-width="642"
     inkscape:pageshadow="2"
     inkscape:pageopacity="0.0"
     guidetolerance="10.0"
     gridtolerance="10.0"
     objecttolerance="10.0"
     borderopacity="1.0"
     bordercolor="#666666"
     pagecolor="#ffffff"
     id="base"
     showgrid="false"
     inkscape:zoom="0.988"
     inkscape:cx="250"
     inkscape:cy="250"
     inkscape:window-x="5"
     inkscape:window-y="448"
     inkscape:current-layer="svg17424" />
  <polygon
     points="182.85,519.35 210.04,519.35 210.04,546.5 182.85,546.5 182.85,519.35 "
     transform="matrix(3.616542e-2,0,0,-3.621889e-2,-6.604516,19.80195)"
     style="font-style:normal;font-variant:normal;font-weight:normal;font-stretch:normal;letter-spacing:normal;word-spacing:normal;text-anchor:start;fill:#ff7d00;fill-opacity:1;fill-rule:evenodd;stroke:#000000;stroke-width:0.4605051;stroke-linecap:butt;stroke-linejoin:miter;stroke-miterlimit:10.43299961;stroke-dasharray:none;stroke-dashoffset:0;stroke-opacity:1"
     id="polygon17434" />
  <path
     id="path7214"
     style="fill:#000000;fill-opacity:1;fill-rule:nonzero;stroke:none;display:inline"
     d="M 0.4928011,0.10741333 C 0.49279995,0.10741447 0.49280224,0.10747972 0.4928011,0.10748086 C 0.49282399,0.10747514 0.49284688,0.10742134 0.49286863,0.10741333 C 0.49286062,0.10741333 0.49280911,0.10741218 0.4928011,0.10741333 z M 0.48771082,0.10761707 C 0.48766389,0.1076228 0.48762268,0.10767774 0.48757575,0.10768461 C 0.48775661,0.10767316 0.48793632,0.10762738 0.48811832,0.10761707 C 0.48807368,0.10761707 0.48802675,0.10761479 0.48798211,0.10761707 C 0.48788366,0.10762165 0.48780697,0.10760448 0.48771082,0.10761707 z M 0.51241246,0.10775214 C 0.51277417,0.10777847 0.51313817,0.10779106 0.51349873,0.10781968 C 0.51314389,0.10779793 0.51276844,0.10777275 0.51241246,0.10775214 z M 0.51349873,0.10781968 C 0.60488448,0.11508365 0.67684316,0.1916965 0.67684316,0.28494002 C 0.67684316,0.37987992 0.60215906,0.45731462 0.50840846,0.46212904 L 0.50840846,0.49850271 C 0.53400407,0.50254906 0.55360512,0.52477595 0.55360512,0.55150248 C 0.55360512,0.55804418 0.55242727,0.56429972 0.5502799,0.57009739 L 0.58353325,0.5893024 C 0.63492135,0.51167653 0.73859954,0.48634763 0.8203038,0.53351997 C 0.90181348,0.58057899 0.93190987,0.68267183 0.89081221,0.76587902 C 0.94721504,0.65609868 0.90799346,0.52003136 0.79994499,0.45764886 C 0.77291169,0.4420415 0.74410761,0.43253286 0.71498075,0.42860441 C 0.72613082,0.40142345 0.73228677,0.37165901 0.73228677,0.34045116 C 0.73228677,0.21659616 0.63550856,0.11520384 0.51349873,0.10781968 z M 0.48370682,0.10795589 C 0.3623071,0.11597419 0.26614127,0.21703456 0.26614127,0.34045116 C 0.26614127,0.37077076 0.27193551,0.39974768 0.28249609,0.42629678 C 0.25423687,0.43043471 0.22622375,0.43984834 0.19997569,0.45500356 C 0.092650632,0.51696712 0.053335198,0.65160363 0.10809087,0.76099364 C 0.068556809,0.67818479 0.098874117,0.57746095 0.17968555,0.53080485 C 0.26190605,0.4833349 0.36629393,0.50929794 0.41733863,0.58808105 L 0.44943702,0.56955482 C 0.44742014,0.56391511 0.44638309,0.55783356 0.44638309,0.55150248 C 0.44638309,0.52591145 0.46432554,0.50450642 0.48832207,0.49918149 L 0.48832207,0.46206036 C 0.39540248,0.45636914 0.32165242,0.3792847 0.32165242,0.28494002 C 0.32165242,0.19212345 0.39291744,0.11581509 0.48370682,0.10795589 z M 0.49408998,0.33108675 C 0.44719121,0.33216615 0.40395534,0.34813179 0.36847793,0.374112 C 0.37131095,0.37830602 0.37435687,0.38236496 0.37757106,0.38625907 C 0.38078525,0.39015204 0.38418258,0.39388819 0.38775047,0.39745608 C 0.39131721,0.40102282 0.39505336,0.4044213 0.39894748,0.40763549 C 0.40181026,0.40999805 0.40487793,0.41212597 0.40790554,0.41428593 C 0.43409294,0.39709093 0.46545417,0.38700539 0.49924779,0.38700539 C 0.53304141,0.38700539 0.56433511,0.39709093 0.59052251,0.41428593 C 0.59354897,0.41212597 0.59661665,0.40999805 0.59947943,0.40763549 C 0.60337468,0.4044213 0.60710969,0.40102282 0.61067758,0.39745608 C 0.61424432,0.39388819 0.6176428,0.39015204 0.62085699,0.38625907 C 0.62407003,0.38236496 0.62711595,0.37830602 0.62995012,0.374112 C 0.5931907,0.34719317 0.54810735,0.33108675 0.49924779,0.33108675 C 0.49810199,0.33108675 0.49692758,0.33106958 0.49578636,0.33108675 C 0.49523005,0.33109476 0.49464628,0.33107415 0.49408998,0.33108675 z M 0.28032468,0.52680085 C 0.27539237,0.57209481 0.28398987,0.61919389 0.30841907,0.66150717 C 0.33284943,0.70382046 0.36933527,0.73488179 0.41102701,0.75325692 C 0.41324192,0.74870578 0.41523361,0.74400812 0.41699867,0.73927726 C 0.41876373,0.73454755 0.42030787,0.72976404 0.42161392,0.72489125 C 0.42291882,0.72001846 0.42403372,0.71507584 0.42487046,0.7100966 C 0.42548514,0.70643599 0.42580335,0.70273647 0.42616048,0.69903466 C 0.39817483,0.68495312 0.37376966,0.66281437 0.35687343,0.633549 C 0.33997604,0.60428248 0.33302112,0.57212572 0.33481709,0.54084804 C 0.33143349,0.53930619 0.32804875,0.53773573 0.32457014,0.53643769 C 0.31984043,0.53467263 0.31505692,0.53312849 0.31018413,0.53182359 C 0.30531134,0.53051754 0.30036872,0.52947018 0.29538948,0.52863344 C 0.29041023,0.5277967 0.28537375,0.52715798 0.28032468,0.52680085 z M 0.71966467,0.52944729 C 0.71461446,0.52980556 0.70957798,0.53044314 0.70459873,0.53127988 C 0.69961949,0.53211662 0.69467802,0.53316398 0.68980408,0.53447003 C 0.68493129,0.53577608 0.68008024,0.53731907 0.67534939,0.53908413 C 0.67187193,0.54038217 0.66855472,0.54202131 0.66516998,0.54356316 C 0.66696709,0.57483969 0.66001217,0.60699646 0.64311478,0.63626297 C 0.62621855,0.66552834 0.60181223,0.68759956 0.57382887,0.70168224 C 0.57418486,0.70538406 0.57450193,0.70908243 0.57511775,0.71274304 C 0.57595335,0.71772228 0.57700071,0.72266375 0.5783079,0.72753769 C 0.57961281,0.73241048 0.58115695,0.73726153 0.582922,0.74199238 C 0.58468706,0.74672324 0.58667876,0.75135222 0.58889366,0.75590451 C 0.6305854,0.73752823 0.66707125,0.70653558 0.6915016,0.66422229 C 0.71593195,0.62190787 0.72459584,0.5747424 0.71966467,0.52944729 z M 0.45961643,0.58672349 L 0.42731315,0.60545346 C 0.46884463,0.6887694 0.43898404,0.79118504 0.35727978,0.83835623 C 0.27597843,0.88529621 0.17283251,0.86059457 0.121188,0.78386268 C 0.18820292,0.88712422 0.32524434,0.92097507 0.43308221,0.85871505 C 0.45920436,0.84363309 0.48124009,0.82418999 0.49890897,0.80191502 C 0.51692239,0.82533007 0.53972276,0.84566714 0.566906,0.86136149 C 0.6748652,0.92369134 0.81207145,0.88970312 0.87900395,0.78617031 C 0.8274556,0.86323414 0.72415858,0.88816356 0.64270843,0.84113889 C 0.56048793,0.79366894 0.53078301,0.69027233 0.57348891,0.60667481 L 0.53989675,0.58726606 C 0.53008019,0.59819636 0.51583154,0.6051135 0.49999411,0.6051135 C 0.48389683,0.6051135 0.46944558,0.59796743 0.45961643,0.58672349 z" />
</svg>
