<?xml version="1.0" encoding="UTF-8" standalone="no"?>
<!-- Created with Inkscape (http://www.inkscape.org/) -->
<svg
   xmlns:dc="http://purl.org/dc/elements/1.1/"
   xmlns:cc="http://creativecommons.org/ns#"
   xmlns:rdf="http://www.w3.org/1999/02/22-rdf-syntax-ns#"
   xmlns:svg="http://www.w3.org/2000/svg"
   xmlns="http://www.w3.org/2000/svg"
   xmlns:xlink="http://www.w3.org/1999/xlink"
   xmlns:sodipodi="http://sodipodi.sourceforge.net/DTD/sodipodi-0.dtd"
   xmlns:inkscape="http://www.inkscape.org/namespaces/inkscape"
   width="741.90363"
   height="400.08215"
   id="svg2"
   sodipodi:version="0.32"
   inkscape:version="0.46+devel r20880"
   version="1.0"
   sodipodi:docname="coffee bean.svg"
   inkscape:output_extension="org.inkscape.output.svg.inkscape"
   inkscape:export-filename="D:\Vector Art\my_folder\coffee bean.png"
   inkscape:export-xdpi="37.05106"
   inkscape:export-ydpi="37.05106">
  <defs
     id="defs4">
    <linearGradient
       id="linearGradient3677">
      <stop
         style="stop-color:#cd7c47;stop-opacity:1;"
         offset="0"
         id="stop3679" />
      <stop
         id="stop3685"
         offset="0.95387036"
         style="stop-color:#784421;stop-opacity:1" />
      <stop
         style="stop-color:#502d16;stop-opacity:1;"
         offset="1"
         id="stop3681" />
    </linearGradient>
    <radialGradient
       inkscape:collect="always"
       xlink:href="#linearGradient3677"
       id="radialGradient3683"
       cx="412.43872"
       cy="439.50504"
       fx="412.43872"
       fy="439.50504"
       r="364.14787"
       gradientTransform="matrix(0.11127768,0.40432212,-0.99505319,0.2738589,803.87438,152.38458)"
       gradientUnits="userSpaceOnUse" />
    <filter
       inkscape:collect="always"
       id="filter3697">
      <feGaussianBlur
         inkscape:collect="always"
         stdDeviation="4.6116987"
         id="feGaussianBlur3699" />
    </filter>
    <filter
       inkscape:collect="always"
       id="filter3752"
       x="-0.058873338"
       width="1.1177467"
       y="-0.15411738"
       height="1.3082348">
      <feGaussianBlur
         inkscape:collect="always"
         stdDeviation="14.586758"
         id="feGaussianBlur3754" />
    </filter>
    <clipPath
       clipPathUnits="userSpaceOnUse"
       id="clipPath3760">
      <path
         id="path3762"
         d="M 65.19358,166.41207 C 253.30124,99.74863 452.2482,100.64848 509.55402,168.42194 566.85985,236.19541 460.824,345.17805 272.71634,411.84148 84.60867,478.50492 -114.33828,477.60507 -171.6441,409.83161 -228.94993,342.05815 -122.91409,233.07551 65.19358,166.41207 z"
         style="fill:#784421;fill-opacity:1;stroke:url(#radialGradient3764);stroke-width:16" />
    </clipPath>
    <radialGradient
       inkscape:collect="always"
       xlink:href="#linearGradient3677"
       id="radialGradient3764"
       gradientUnits="userSpaceOnUse"
       gradientTransform="matrix(-0.11127768,-0.40432212,0.99505319,-0.2738589,-222.48071,576.24725)"
       cx="412.43872"
       cy="439.50504"
       fx="412.43872"
       fy="439.50504"
       r="364.14787" />
    <clipPath
       clipPathUnits="userSpaceOnUse"
       id="clipPath3768">
      <path
         id="path3770"
         d="M 516.20009,562.21976 C 328.09243,628.8832 129.14547,627.98335 71.839654,560.20989 14.533823,492.43642 120.56967,383.45378 308.67733,316.79035 496.785,250.12691 695.73195,251.02676 753.03777,318.80022 810.3436,386.57368 704.30776,495.55632 516.20009,562.21976 z"
         style="fill:#784421;fill-opacity:1;stroke:url(#radialGradient3772);stroke-width:16" />
    </clipPath>
    <radialGradient
       inkscape:collect="always"
       xlink:href="#linearGradient3677"
       id="radialGradient3772"
       gradientUnits="userSpaceOnUse"
       gradientTransform="matrix(0.11127768,0.40432212,-0.99505319,0.2738589,803.87438,152.38458)"
       cx="412.43872"
       cy="439.50504"
       fx="412.43872"
       fy="439.50504"
       r="364.14787" />
  </defs>
  <sodipodi:namedview
     id="base"
     pagecolor="#ffffff"
     bordercolor="#666666"
     borderopacity="1.0"
     inkscape:pageopacity="0.0"
     inkscape:pageshadow="2"
     inkscape:zoom="0.49497475"
     inkscape:cx="833.26546"
     inkscape:cy="295.36582"
     inkscape:document-units="px"
     inkscape:current-layer="layer1"
     showgrid="false"
     inkscape:snap-global="false"
     inkscape:object-nodes="true"
     inkscape:object-paths="true"
     inkscape:window-width="1280"
     inkscape:window-height="673"
     inkscape:window-x="-4"
     inkscape:window-y="-4" />
  <metadata
     id="metadata7">
    <rdf:RDF>
      <cc:Work
         rdf:about="">
        <dc:format>image/svg+xml</dc:format>
        <dc:type
           rdf:resource="http://purl.org/dc/dcmitype/StillImage" />
        <dc:title></dc:title>
      </cc:Work>
    </rdf:RDF>
  </metadata>
  <g
     inkscape:label="Layer 1"
     inkscape:groupmode="layer"
     id="layer1"
     transform="translate(-47.199497,-267.37554)">
    <path
       style="opacity:1;fill:#502d16;fill-opacity:1;stroke:none;"
       d="M 727.22768,75.839286 C 743.1867,143.74417 646.95033,233.64482 470.34375,294.84375 c -192.37594,66.66344 -395.831368,65.77346 -454.4375,-2 -2.134711,-2.46863 -4.054537,-4.98856 -5.75,-7.5625 L 10,285.34375 C 37.046314,335.97373 201.8867,444.27228 398.84375,380.5625 621.89445,308.41219 753.00011,208.86316 727.22768,75.839286 z"
       id="path2796"
       transform="translate(47.199497,267.37554)"
       sodipodi:nodetypes="cssccsc" />
    <path
       style="fill:#784421;fill-opacity:1;stroke:url(#radialGradient3683);stroke-width:16"
       d="M 516.20009,562.21976 C 328.09243,628.8832 129.14547,627.98335 71.839654,560.20989 14.533823,492.43642 120.56967,383.45378 308.67733,316.79035 496.785,250.12691 695.73195,251.02676 753.03777,318.80022 810.3436,386.57368 704.30776,495.55632 516.20009,562.21976 z"
       id="path2794" />
    <path
       sodipodi:nodetypes="ccc"
       style="opacity:0.50000000000000000;fill:#2c180c;fill-opacity:1;stroke:none;filter:url(#filter3697)"
       d="M 73.080574,552.65679 C 491.11744,415.37883 411.50777,331.77703 754.01065,311.24712 474.55857,329.59795 329.41122,515.19141 73.080574,552.65679 z"
       id="path3691" />
    <path
       id="path2811"
       d="M 73.080574,552.65679 C 491.11744,415.37883 411.50777,331.77703 754.01065,311.24712 474.55857,329.59795 329.41122,515.19141 73.080574,552.65679 z"
       style="opacity:0.50000000000000000;fill:#2c180c;fill-opacity:1;stroke:none;"
       sodipodi:nodetypes="ccc" />
    <path
       style="opacity:0.75298425999999985;fill:#2c180c;fill-opacity:1;stroke:none;filter:url(#filter3752)"
       d="m 747.42363,380.02515 c -10.96875,47.76133 -126.76656,120.19774 -277.64911,170.66477 -144.56755,48.35477 -274.00459,60.70558 -315.6815,33.27232 25.01463,38.04213 163.70896,28.6444 320.47058,-23.14438 164.72328,-54.41904 286.98018,-135.04684 273.09002,-180.09652 -0.0735,-0.23839 -0.14917,-0.46076 -0.22999,-0.69619 z"
       id="path3703"
       clip-path="url(#clipPath3768)" />
    <path
       id="path3756"
       d="m 481.70934,230.02515 c -10.96875,47.76133 -126.76656,120.19774 -277.64911,170.66477 -144.567546,48.35477 -274.004586,60.70558 -315.6815,33.27232 25.014634,38.04213 163.708964,28.6444 320.47058,-23.14438 164.72328,-54.41904 286.98018,-135.04684 273.09002,-180.09652 -0.0735,-0.23839 -0.14917,-0.46076 -0.22999,-0.69619 z"
       style="opacity:0.75298426;fill:#2c180c;fill-opacity:1;stroke:none;filter:url(#filter3752)"
       transform="matrix(-1,0,0,-1,581.39367,728.63183)"
       clip-path="url(#clipPath3760)" />
  </g>
</svg>
