<?xml version="1.0" encoding="UTF-8" standalone="no"?>
<!-- Created with Inkscape (http://www.inkscape.org/) -->
<svg
   xmlns:dc="http://purl.org/dc/elements/1.1/"
   xmlns:cc="http://creativecommons.org/ns#"
   xmlns:rdf="http://www.w3.org/1999/02/22-rdf-syntax-ns#"
   xmlns:svg="http://www.w3.org/2000/svg"
   xmlns="http://www.w3.org/2000/svg"
   xmlns:xlink="http://www.w3.org/1999/xlink"
   xmlns:sodipodi="http://sodipodi.sourceforge.net/DTD/sodipodi-0.dtd"
   xmlns:inkscape="http://www.inkscape.org/namespaces/inkscape"
   width="48"
   height="48"
   id="svg4783"
   sodipodi:version="0.32"
   inkscape:version="0.46"
   sodipodi:docname="http.svg"
   inkscape:output_extension="org.inkscape.output.svg.inkscape"
   version="1.0">
  <defs
     id="defs4785">
    <linearGradient
       id="linearGradient3599">
      <stop
         style="stop-color:#12ffa7;stop-opacity:1;"
         offset="0"
         id="stop3601" />
      <stop
         id="stop3607"
         offset="0.5"
         style="stop-color:#42e5e5;stop-opacity:0.99607843;" />
      <stop
         style="stop-color:#008a8a;stop-opacity:0.99557525;"
         offset="1"
         id="stop3603" />
    </linearGradient>
    <inkscape:perspective
       sodipodi:type="inkscape:persp3d"
       inkscape:vp_x="0 : 526.18109 : 1"
       inkscape:vp_y="0 : 1000 : 0"
       inkscape:vp_z="744.09448 : 526.18109 : 1"
       inkscape:persp3d-origin="372.04724 : 350.78739 : 1"
       id="perspective4791" />
    <inkscape:perspective
       id="perspective4800"
       inkscape:persp3d-origin="372.04724 : 350.78739 : 1"
       inkscape:vp_z="744.09448 : 526.18109 : 1"
       inkscape:vp_y="0 : 1000 : 0"
       inkscape:vp_x="0 : 526.18109 : 1"
       sodipodi:type="inkscape:persp3d" />
    <filter
       inkscape:collect="always"
       id="filter3331">
      <feGaussianBlur
         inkscape:collect="always"
         stdDeviation="0.24"
         id="feGaussianBlur3333" />
    </filter>
    <filter
       inkscape:collect="always"
       id="filter3335">
      <feGaussianBlur
         inkscape:collect="always"
         stdDeviation="0.24"
         id="feGaussianBlur3337" />
    </filter>
    <filter
       inkscape:collect="always"
       id="filter3339">
      <feGaussianBlur
         inkscape:collect="always"
         stdDeviation="0.24"
         id="feGaussianBlur3341" />
    </filter>
    <filter
       inkscape:collect="always"
       id="filter3343">
      <feGaussianBlur
         inkscape:collect="always"
         stdDeviation="0.24"
         id="feGaussianBlur3345" />
    </filter>
    <filter
       inkscape:collect="always"
       id="filter3347">
      <feGaussianBlur
         inkscape:collect="always"
         stdDeviation="0.24"
         id="feGaussianBlur3349" />
    </filter>
    <filter
       inkscape:collect="always"
       id="filter3351">
      <feGaussianBlur
         inkscape:collect="always"
         stdDeviation="0.24"
         id="feGaussianBlur3353" />
    </filter>
    <filter
       inkscape:collect="always"
       id="filter3355">
      <feGaussianBlur
         inkscape:collect="always"
         stdDeviation="0.24"
         id="feGaussianBlur3357" />
    </filter>
    <filter
       inkscape:collect="always"
       id="filter3359">
      <feGaussianBlur
         inkscape:collect="always"
         stdDeviation="0.24"
         id="feGaussianBlur3361" />
    </filter>
    <filter
       inkscape:collect="always"
       id="filter3363">
      <feGaussianBlur
         inkscape:collect="always"
         stdDeviation="0.24"
         id="feGaussianBlur3365" />
    </filter>
    <filter
       inkscape:collect="always"
       id="filter3367">
      <feGaussianBlur
         inkscape:collect="always"
         stdDeviation="0.24"
         id="feGaussianBlur3369" />
    </filter>
    <filter
       inkscape:collect="always"
       id="filter3371">
      <feGaussianBlur
         inkscape:collect="always"
         stdDeviation="0.24"
         id="feGaussianBlur3373" />
    </filter>
    <filter
       inkscape:collect="always"
       id="filter3375">
      <feGaussianBlur
         inkscape:collect="always"
         stdDeviation="0.24"
         id="feGaussianBlur3377" />
    </filter>
    <filter
       inkscape:collect="always"
       id="filter3379">
      <feGaussianBlur
         inkscape:collect="always"
         stdDeviation="0.24"
         id="feGaussianBlur3381" />
    </filter>
    <filter
       inkscape:collect="always"
       id="filter3383">
      <feGaussianBlur
         inkscape:collect="always"
         stdDeviation="0.24"
         id="feGaussianBlur3385" />
    </filter>
    <filter
       inkscape:collect="always"
       id="filter3387">
      <feGaussianBlur
         inkscape:collect="always"
         stdDeviation="0.24"
         id="feGaussianBlur3389" />
    </filter>
    <filter
       inkscape:collect="always"
       id="filter3391">
      <feGaussianBlur
         inkscape:collect="always"
         stdDeviation="0.24"
         id="feGaussianBlur3393" />
    </filter>
    <filter
       inkscape:collect="always"
       id="filter3395">
      <feGaussianBlur
         inkscape:collect="always"
         stdDeviation="0.24"
         id="feGaussianBlur3397" />
    </filter>
    <radialGradient
       inkscape:collect="always"
       xlink:href="#linearGradient3599"
       id="radialGradient3605"
       cx="24.107629"
       cy="24.050964"
       fx="24.107629"
       fy="24.050964"
       r="21.845411"
       gradientTransform="matrix(1,0,0,0.9971077,0,6.9563724e-2)"
       gradientUnits="userSpaceOnUse" />
  </defs>
  <sodipodi:namedview
     id="base"
     pagecolor="#ffffff"
     bordercolor="#666666"
     borderopacity="1.0"
     gridtolerance="10000"
     guidetolerance="10"
     objecttolerance="10"
     inkscape:pageopacity="0.0"
     inkscape:pageshadow="2"
     inkscape:zoom="10.472543"
     inkscape:cx="35.90015"
     inkscape:cy="25.872087"
     inkscape:document-units="px"
     inkscape:current-layer="layer1"
     showgrid="true"
     inkscape:window-width="1280"
     inkscape:window-height="751"
     inkscape:window-x="5"
     inkscape:window-y="419"
     showguides="true"
     inkscape:guide-bbox="true">
    <inkscape:grid
       type="xygrid"
       id="grid2451"
       visible="true"
       enabled="true" />
  </sodipodi:namedview>
  <metadata
     id="metadata4788">
    <rdf:RDF>
      <cc:Work
         rdf:about="">
        <dc:format>image/svg+xml</dc:format>
        <dc:type
           rdf:resource="http://purl.org/dc/dcmitype/StillImage" />
        <cc:license
           rdf:resource="" />
        <dc:title>Biodegradable symbol</dc:title>
        <dc:subject>
          <rdf:Bag>
            <rdf:li>Biodegradable symbol icon globe earth degradable degrade degenrate decompose</rdf:li>
          </rdf:Bag>
        </dc:subject>
      </cc:Work>
    </rdf:RDF>
  </metadata>
  <g
     inkscape:label="Layer 1"
     inkscape:groupmode="layer"
     id="layer1">
    <path
       style="fill:#000080;filter:url(#filter3331)"
       d="M 20.202613,47.880729 C 20.01871,47.798474 19.666966,47.725887 19.42096,47.719419 C 18.759768,47.702051 14.647142,46.406092 13.860379,45.967192 C 13.486623,45.75869 12.578956,45.259554 11.843339,44.858005 C 9.8675362,43.779478 7.1753928,41.47629 5.4438516,39.383095 C 3.9634651,37.593517 1.7261325,33.790976 1.4715505,32.631829 C 1.4099515,32.351363 1.1369247,31.43502 0.86482153,30.595508 C 0.054354639,28.09499 -0.21376376,24.273033 0.17693374,20.789887 C 0.60718414,16.95414 2.5945692,12.158654 4.8879744,9.4223214 C 5.3112,8.9173566 5.8079434,8.3160624 5.9918477,8.0861108 C 6.4217617,7.5485515 7.5468795,6.4233943 8.0844205,5.9934656 C 8.3143642,5.8095551 8.9156389,5.3146631 9.4205854,4.893703 C 9.9255311,4.4727457 10.601986,3.971735 10.92382,3.7803439 C 12.642664,2.7581673 14.775068,1.6666024 15.437827,1.4696529 C 19.923078,0.13678614 20.728473,-0.0020329176 23.964287,2.2022423e-05 C 26.393646,0.0015656324 28.822166,0.25725971 29.898429,0.62481545 C 30.266755,0.75060419 31.132362,1.0187798 31.822002,1.2207657 C 33.063517,1.5843864 34.75796,2.3722882 36.46876,3.3814739 C 36.955557,3.6686303 37.398613,3.903575 37.453329,3.903575 C 37.508046,3.903575 38.012566,4.2998538 38.574474,4.7841932 C 39.136382,5.2685327 39.955553,5.9523869 40.394851,6.3038674 C 41.463692,7.1590526 44.060461,10.391826 44.846425,11.845741 C 45.194225,12.489106 45.668152,13.354059 45.899618,13.767857 C 46.353708,14.579671 47.444885,17.884775 47.732961,19.320973 C 48.050226,20.902651 48.097004,26.452307 47.807294,28.138951 C 46.783251,34.100656 43.733921,39.193531 38.827027,43.137457 C 37.604513,44.120052 37.119533,44.423468 34.604392,45.779268 C 33.399313,46.428872 31.034347,47.233826 29.063445,47.66522 C 27.722982,47.958621 20.755644,48.128081 20.202613,47.880729 z M 27.940442,45.195859 C 30.136873,44.080481 32.602671,41.502655 34.069155,38.788698 C 34.409314,38.15918 34.647085,37.538483 34.597549,37.409371 C 34.475391,37.091039 25.150438,37.058456 24.833652,37.375254 C 24.617316,37.591598 24.531074,45.710872 24.742864,45.922672 C 25.006483,46.186306 26.787003,45.781584 27.940442,45.195859 z M 22.626804,41.772382 C 22.67278,39.565458 22.646034,37.618243 22.567365,37.445235 C 22.441904,37.169313 22.300282,37.143644 21.414339,37.236246 C 20.858841,37.29431 18.760243,37.341815 16.750788,37.341815 C 13.245719,37.341815 13.097231,37.355003 13.097231,37.66633 C 13.097231,37.844813 13.164246,38.032265 13.246151,38.082886 C 13.328058,38.133508 13.600287,38.570557 13.851105,39.054104 C 15.623225,42.470534 19.672637,45.921653 21.790877,45.82079 L 22.54321,45.784968 L 22.626804,41.772382 z M 33.878056,43.983376 C 34.356385,43.682161 35.11119,43.249547 35.555399,43.022023 C 37.41055,42.0718 41.912697,37.843981 41.603025,37.3429 C 41.443816,37.085281 37.253657,37.122738 37.048651,37.383612 C 36.958325,37.498557 36.490481,38.356032 36.008999,39.289113 C 35.527527,40.222194 34.538949,41.748815 33.812161,42.681603 C 33.085383,43.614381 32.490749,44.412098 32.490749,44.454302 C 32.490749,44.677702 33.108431,44.468027 33.878056,43.983376 z M 14.747681,43.720722 C 14.621526,43.550906 14.059219,42.807033 13.498111,42.067658 C 12.937004,41.328292 12.156657,40.094167 11.764005,39.325166 C 10.699364,37.240087 10.863841,37.341815 8.5573099,37.341815 C 6.8924434,37.341815 6.5769967,37.382505 6.5769967,37.597258 C 6.5769967,37.92605 9.5380639,40.901954 10.825687,41.867239 C 12.974354,43.478022 15.429287,44.638189 14.747681,43.720722 z M 9.8450528,35.155481 C 9.9062491,35.056461 9.8390592,34.661471 9.695743,34.277727 C 9.2713526,33.141396 8.4610241,28.693122 8.3541747,26.913237 C 8.299662,26.005166 8.1692171,25.15876 8.0643004,25.032337 C 7.9167101,24.854497 7.2633284,24.803056 5.1772441,24.805035 C 3.6942837,24.806443 2.3703673,24.877534 2.235209,24.963016 C 1.5165155,25.417555 2.662305,30.875295 4.0424354,33.571391 C 4.9696464,35.382702 4.8775309,35.335521 7.4866491,35.335521 C 8.9113071,35.335521 9.7745125,35.269625 9.8450528,35.155481 z M 22.633476,34.899991 C 22.732796,34.638753 22.781318,32.547902 22.754727,29.675267 L 22.710396,24.886071 L 16.691718,24.845649 C 13.374167,24.823368 10.568245,24.872116 10.439533,24.95427 C 10.243412,25.079449 10.235926,25.447298 10.392775,27.251773 C 10.692882,30.704397 11.675099,34.79927 12.297964,35.194525 C 12.41573,35.269256 14.75214,35.331554 17.489987,35.332961 L 22.467894,35.335521 L 22.633476,34.899991 z M 35.727949,34.792149 C 36.651324,33.317595 37.953467,25.265767 37.330787,24.880919 C 37.085529,24.729335 25.086974,24.783267 24.936722,24.936628 C 24.780499,25.09608 24.556822,34.173164 24.6955,34.725716 L 24.806584,35.168329 L 30.149482,35.168329 L 35.492379,35.168329 L 35.727949,34.792149 z M 43.300879,34.792149 C 43.977478,34.034039 44.543557,32.801534 45.176924,30.707495 C 45.941311,28.180303 46.385396,25.022711 46.009906,24.784805 C 45.634561,24.546997 40.12521,24.59976 39.800303,24.844274 C 39.584946,25.00635 39.484057,25.535914 39.350865,27.203419 C 39.163342,29.551023 38.608901,32.75941 38.240735,33.627485 C 38.112657,33.929458 38.007866,34.399683 38.007866,34.672429 L 38.007866,35.168329 L 40.486513,35.168329 C 42.84602,35.168329 42.981288,35.15025 43.300879,34.792149 z M 8.141063,22.612799 C 8.2512821,22.455434 8.3623903,21.774004 8.3879714,21.098508 C 8.453907,19.357456 9.3346941,14.570394 9.7311814,13.798192 C 10.053096,13.171228 9.8124516,13.099092 7.3989922,13.099092 C 5.3087136,13.099092 5.0389344,13.132484 4.7436654,13.427764 C 4.2638472,13.907598 3.6520743,15.190045 3.1387198,16.79217 C 2.8908935,17.56561 2.5853944,18.519904 2.459831,18.912824 C 2.1068546,20.017383 1.9661757,22.394477 2.234641,22.717969 C 2.422235,22.944013 2.8618101,22.977122 5.197788,22.941151 C 7.5665603,22.904677 7.9679983,22.859891 8.141063,22.612799 z M 22.793988,18.114828 C 22.839965,15.586061 22.811945,13.423025 22.731722,13.308081 C 22.620356,13.148516 21.3749,13.099697 17.465379,13.101652 C 14.649113,13.10306 12.264481,13.159486 12.166199,13.227045 C 11.858224,13.438743 11.409003,14.783615 10.997243,16.726663 C 10.567987,18.752276 10.171685,22.170516 10.320988,22.559605 C 10.399482,22.76416 11.336769,22.793723 16.561874,22.756449 L 22.710396,22.712586 L 22.793988,18.114828 z M 37.301223,22.587192 C 37.721174,22.071612 36.864164,16.189211 36.052855,14.018644 L 35.740395,13.182687 L 30.312101,13.182687 L 24.883807,13.182687 L 24.800215,17.751148 C 24.754239,20.263802 24.776785,22.426837 24.850318,22.557895 C 25.035438,22.887833 37.03335,22.916064 37.301223,22.587192 z M 45.905971,22.587192 C 46.149759,22.399527 46.155852,22.216143 45.965781,20.789887 C 45.606506,18.094077 43.982562,13.676839 43.120794,13.051345 C 42.839734,12.847345 38.203578,13.003689 37.982656,13.224616 C 37.841669,13.365612 37.86562,13.566323 38.07647,14.010672 C 38.23221,14.338865 38.468107,15.22728 38.600712,15.984927 C 38.733308,16.742574 38.919506,17.625794 39.014474,17.947636 C 39.109452,18.26948 39.234608,19.385693 39.292602,20.428112 C 39.364484,21.720138 39.473283,22.398659 39.634414,22.5598 C 39.955438,22.880832 45.493113,22.905019 45.905971,22.587192 z M 10.456135,11.050999 C 10.601864,10.936056 11.122649,10.052032 11.613433,9.0865029 C 12.104216,8.1209737 13.056643,6.6240288 13.729938,5.7599597 C 14.428234,4.8638054 14.891353,4.1261622 14.808018,4.0428237 C 14.617385,3.8521842 11.852052,5.4448626 10.52753,6.5081467 C 8.5937517,8.0605259 6.1669625,10.654461 6.3069888,11.019377 C 6.4304185,11.341041 10.053399,11.368653 10.456135,11.050999 z M 22.736259,10.904143 C 22.913869,10.756733 22.961175,9.8257569 22.961175,6.4777531 L 22.961175,2.2380336 L 22.54321,2.1331278 C 21.993493,1.9951536 21.528749,2.1229963 20.03124,2.8241292 C 18.487926,3.5467092 16.602822,5.1624649 15.292215,6.8860309 C 14.070392,8.4928373 12.775607,10.893927 13.042004,11.058884 C 13.366247,11.259661 22.483243,11.114132 22.736259,10.904143 z M 34.734133,10.947639 C 34.870862,10.726408 33.448388,8.1912454 32.423374,6.8293442 C 31.132477,5.1141757 29.473005,3.6874554 27.857375,2.9037625 C 26.300302,2.1484726 25.790511,1.992943 25.340305,2.1358383 C 25.040451,2.2310095 25.013165,2.5012564 24.906307,6.4341947 C 24.823211,9.4925268 24.84426,10.693632 24.983903,10.861896 C 25.138647,11.048357 26.086751,11.092797 29.909977,11.092797 C 32.513921,11.092797 34.68479,11.027476 34.734133,10.947639 z M 41.756256,10.947109 C 41.885008,10.738779 39.928594,8.5006226 38.662801,7.4081686 C 36.99701,5.9704922 36.348437,5.505443 35.031398,4.8043467 C 34.359835,4.4468551 33.569883,4.0263131 33.275953,3.8698078 C 32.982015,3.7133036 32.687634,3.5816403 32.621778,3.5772229 C 32.426911,3.564156 33.085133,4.5704505 34.117739,5.8642484 C 34.648152,6.5288201 35.533524,7.9372381 36.085235,8.99407 C 36.636946,10.050898 37.201199,10.946724 37.339129,10.984794 C 37.83645,11.122058 41.668333,11.089365 41.756256,10.947109 z"
       id="path4806" />
    <g
       id="g3573"
       style="fill-opacity:1;fill:url(#radialGradient3605)">
      <path
         id="path3231"
         d="M 10.910995,22.488795 L 10.529044,22.423925 L 10.555305,21.660023 C 10.63329,19.391682 11.453782,15.091589 12.040223,13.877768 L 12.247824,13.448073 L 13.441421,13.371704 C 14.0979,13.329702 16.368633,13.309076 18.487495,13.325868 C 22.195618,13.355257 22.3454,13.363485 22.484853,13.545468 C 22.611595,13.710858 22.622076,14.277969 22.568569,18.073952 C 22.534926,20.46063 22.488278,22.432494 22.464903,22.45587 C 22.393908,22.526867 11.320946,22.558423 10.910995,22.488796 L 10.910995,22.488795 z"
         style="opacity:1;fill:url(#radialGradient3605);fill-opacity:1;fill-rule:evenodd;stroke:#000000;stroke-width:0.08708486999999999;stroke-linecap:round;stroke-linejoin:bevel;stroke-miterlimit:4;stroke-dasharray:none;stroke-opacity:1;filter:url(#filter3335)" />
      <path
         id="path3233"
         d="M 25.906559,22.499743 C 25.541121,22.479005 25.186622,22.415973 25.118785,22.359673 C 24.977924,22.242769 24.950191,19.068139 25.058653,15.476387 L 25.121395,13.398726 L 30.377169,13.4234 L 35.632944,13.448073 L 35.939928,14.402951 C 36.487428,16.105971 37.037867,19.162054 37.178599,21.280168 C 37.234971,22.12862 37.222907,22.253146 37.072204,22.378277 C 36.92716,22.498713 36.144568,22.520735 31.73661,22.528432 C 28.895519,22.533392 26.271997,22.520483 25.906559,22.499744 L 25.906559,22.499743 z"
         style="opacity:1;fill:url(#radialGradient3605);fill-opacity:1;fill-rule:evenodd;stroke:#000000;stroke-width:0.08708486999999999;stroke-linecap:round;stroke-linejoin:bevel;stroke-miterlimit:4;stroke-dasharray:none;stroke-opacity:1;filter:url(#filter3339)" />
      <path
         id="path3235"
         d="M 24.929808,34.825152 C 24.858752,34.639977 24.967093,26.944856 25.055544,25.894678 C 25.115916,25.177888 25.122522,25.162881 25.402409,25.106904 C 25.559336,25.075519 28.282015,25.049839 31.452806,25.049839 L 37.217881,25.049839 L 37.217881,26.047571 C 37.217881,28.3395 36.283631,33.247985 35.587792,34.611941 L 35.399732,34.98057 L 30.194592,34.98057 C 25.474478,34.98057 24.983893,34.966087 24.929811,34.825151 L 24.929808,34.825152 z"
         style="opacity:1;fill:url(#radialGradient3605);fill-opacity:1;fill-rule:evenodd;stroke:#000000;stroke-width:0.08708486999999999;stroke-linecap:round;stroke-linejoin:bevel;stroke-miterlimit:4;stroke-dasharray:none;stroke-opacity:1;filter:url(#filter3343)" />
      <path
         id="path3237"
         d="M 12.606742,35.008778 C 12.302643,34.950133 12.138462,34.6726 11.818904,33.67701 C 11.214727,31.794682 10.617398,28.212412 10.555583,26.100691 L 10.529044,25.194041 L 11.245202,25.12165 C 11.639089,25.081834 14.324683,25.060131 17.213189,25.07342 L 22.465018,25.097583 L 22.465018,29.919717 C 22.465018,32.57189 22.434139,34.817047 22.396398,34.908954 C 22.332242,35.065192 22.018704,35.075212 17.574265,35.063054 C 14.959833,35.055901 12.724447,35.031478 12.606743,35.008779 L 12.606742,35.008778 z"
         style="opacity:1;fill:url(#radialGradient3605);fill-opacity:1;fill-rule:evenodd;stroke:#000000;stroke-width:0.08708486999999999;stroke-linecap:round;stroke-linejoin:bevel;stroke-miterlimit:4;stroke-dasharray:none;stroke-opacity:1;filter:url(#filter3347)" />
      <path
         id="path3239"
         d="M 5.2716663,34.927598 C 4.5174731,34.5554 3.31767,31.684266 2.6003581,28.535144 C 2.4054617,27.679512 2.3365348,27.112513 2.3282236,26.296521 C 2.3171403,25.208513 2.3181334,25.203459 2.555813,25.136314 C 2.849861,25.053245 7.3905327,25.030233 7.6893264,25.110297 C 7.9540234,25.181225 7.953185,25.177577 8.1905629,27.293802 C 8.4427681,29.542187 8.7888139,31.524149 9.2537927,33.383343 C 9.460963,34.211713 9.6045232,34.931451 9.5728107,34.982763 C 9.538205,35.038752 8.7250758,35.075188 7.5394144,35.073883 C 5.9738568,35.072161 5.5030552,35.041791 5.2716691,34.927601 L 5.2716663,34.927598 z"
         style="opacity:1;fill:url(#radialGradient3605);fill-opacity:1;fill-rule:evenodd;stroke:#000000;stroke-width:0.08708486999999999;stroke-linecap:round;stroke-linejoin:bevel;stroke-miterlimit:4;stroke-dasharray:none;stroke-opacity:1;filter:url(#filter3351)" />
      <path
         id="path3241"
         d="M 2.6990447,22.674455 L 2.4125813,22.613374 L 2.3853348,21.573216 C 2.350477,20.242701 2.5042334,19.434281 3.1938109,17.322386 C 3.803108,15.456359 4.5605066,13.850961 4.9738819,13.549313 C 5.2259887,13.365348 5.3746613,13.352585 7.2655889,13.352585 C 8.3777543,13.352585 9.3616395,13.38298 9.4520063,13.42013 C 9.6038758,13.482563 9.6052794,13.518692 9.4705347,13.897569 C 9.0735328,15.01386 8.541956,17.85612 8.2451666,20.449415 C 8.1230263,21.516684 7.9735774,22.439416 7.9130639,22.49993 C 7.723406,22.689585 3.4420839,22.832892 2.6990447,22.674455 z"
         style="opacity:1;fill:url(#radialGradient3605);fill-opacity:1;fill-rule:evenodd;stroke:#000000;stroke-width:0.08708486999999999;stroke-linecap:round;stroke-linejoin:bevel;stroke-miterlimit:4;stroke-dasharray:none;stroke-opacity:1;filter:url(#filter3355)" />
      <path
         id="path3243"
         d="M 6.7286133,10.931876 C 6.5714041,10.869837 6.5805423,10.83115 6.8355691,10.479097 C 7.7700432,9.1890899 10.238501,6.9197919 11.913617,5.8107518 C 13.044604,5.0619614 14.279673,4.3715092 14.354414,4.4462504 C 14.373269,4.4651035 13.944617,5.1110087 13.401859,5.8815961 C 12.859099,6.6521836 12.080264,7.8749439 11.671113,8.5988435 C 10.583516,10.523095 10.380389,10.828947 10.125704,10.925778 C 9.8587699,11.027265 6.9834129,11.032428 6.7286123,10.931877 L 6.7286133,10.931876 z"
         style="opacity:1;fill:url(#radialGradient3605);fill-opacity:1;fill-rule:evenodd;stroke:#000000;stroke-width:0.08708486999999999;stroke-linecap:round;stroke-linejoin:bevel;stroke-miterlimit:4;stroke-dasharray:none;stroke-opacity:1;filter:url(#filter3359)" />
      <path
         id="path3245"
         d="M 13.314957,10.849285 C 13.216173,10.689453 14.027562,9.1364875 14.850778,7.9097807 C 16.101481,6.0460653 17.903718,4.2853955 19.504896,3.3630149 C 20.640358,2.7089169 21.47022,2.3931292 22.083066,2.3819447 L 22.655993,2.3714888 L 22.68345,6.2387444 C 22.698547,8.3657349 22.686744,10.24093 22.657217,10.405844 C 22.613101,10.652243 22.548638,10.715723 22.295555,10.761992 C 21.699878,10.870896 13.378302,10.951783 13.314955,10.849285 L 13.314957,10.849285 z"
         style="opacity:1;fill:url(#radialGradient3605);fill-opacity:1;fill-rule:evenodd;stroke:#000000;stroke-width:0.08708486999999999;stroke-linecap:round;stroke-linejoin:bevel;stroke-miterlimit:4;stroke-dasharray:none;stroke-opacity:1;filter:url(#filter3363)" />
      <path
         id="path3247"
         d="M 27.191663,10.826195 C 26.167557,10.797715 25.275939,10.739651 25.210292,10.697163 C 25.120736,10.639201 25.091461,10.102737 25.09305,8.5486876 C 25.095363,6.2892975 25.237531,2.7414696 25.336049,2.4847363 C 25.431961,2.2347894 25.906851,2.2896662 26.787618,2.652475 C 29.449782,3.7490864 31.554441,5.6637637 33.346728,8.6195109 C 34.075197,9.8208629 34.478973,10.640606 34.38444,10.726261 C 34.277099,10.823523 29.488169,10.890057 27.191663,10.826195 z"
         style="opacity:1;fill:url(#radialGradient3605);fill-opacity:1;fill-rule:evenodd;stroke:#000000;stroke-width:0.08708486999999999;stroke-linecap:round;stroke-linejoin:bevel;stroke-miterlimit:4;stroke-dasharray:none;stroke-opacity:1;filter:url(#filter3367)" />
      <path
         id="path3249"
         d="M 37.385877,10.702799 C 37.30064,10.637151 36.782941,9.8051809 36.235432,8.8539755 C 35.148209,6.9651066 34.965013,6.6816091 33.858229,5.175208 C 33.44775,4.6165233 33.111906,4.1293064 33.111906,4.0925063 C 33.111906,3.9925965 35.243428,5.1378675 36.119772,5.7086381 C 37.152454,6.3812341 38.134286,7.1850207 39.232305,8.256748 C 40.160061,9.1622845 41.419344,10.592846 41.419344,10.741242 C 41.419344,10.878106 37.565797,10.841376 37.385874,10.702799 L 37.385877,10.702799 z"
         style="opacity:1;fill:url(#radialGradient3605);fill-opacity:1;fill-rule:evenodd;stroke:#000000;stroke-width:0.08708486999999999;stroke-linecap:round;stroke-linejoin:bevel;stroke-miterlimit:4;stroke-dasharray:none;stroke-opacity:1;filter:url(#filter3371)" />
      <path
         id="path3251"
         d="M 40.228086,22.485985 C 39.966488,22.443219 39.814958,22.356404 39.740675,22.206737 C 39.681387,22.087283 39.581156,21.335317 39.517944,20.535701 C 39.355538,18.48136 38.848326,15.723283 38.342232,14.142538 C 38.229122,13.789237 38.168311,13.468436 38.207102,13.429645 C 38.380046,13.256699 42.586282,13.113511 42.986156,13.266959 C 43.367248,13.413193 44.268585,15.342791 44.946845,17.464392 C 45.346289,18.713853 45.755359,20.580803 45.857302,21.61962 C 45.948913,22.55312 46.058686,22.516731 43.099729,22.53373 C 41.729107,22.541605 40.43687,22.520119 40.228086,22.485986 L 40.228086,22.485985 z"
         style="opacity:1;fill:url(#radialGradient3605);fill-opacity:1;fill-rule:evenodd;stroke:#000000;stroke-width:0.08708486999999999;stroke-linecap:round;stroke-linejoin:bevel;stroke-miterlimit:4;stroke-dasharray:none;stroke-opacity:1;filter:url(#filter3375)" />
      <path
         id="path3253"
         d="M 38.268247,34.608678 C 38.268247,34.404136 38.356523,33.950981 38.464415,33.601667 C 38.910716,32.15671 39.21866,30.378952 39.554718,27.307344 C 39.680623,26.156574 39.829262,25.169404 39.885037,25.11363 C 39.940811,25.057856 40.233653,24.981343 40.535796,24.943601 C 41.244038,24.855128 45.308027,24.85685 45.620807,24.945753 C 45.854332,25.012132 45.85925,25.032551 45.846703,25.884997 C 45.809481,28.413343 44.378034,33.17604 43.259222,34.494064 C 42.905755,34.910461 42.551591,34.964325 40.106387,34.973599 L 38.268247,34.98057 L 38.268247,34.608678 z"
         style="opacity:1;fill:url(#radialGradient3605);fill-opacity:1;fill-rule:evenodd;stroke:#000000;stroke-width:0.08708486999999999;stroke-linecap:round;stroke-linejoin:bevel;stroke-miterlimit:4;stroke-dasharray:none;stroke-opacity:1;filter:url(#filter3379)" />
      <path
         id="path3255"
         d="M 33.075877,44.028038 C 33.114782,43.96239 33.388174,43.586407 33.683416,43.19252 C 34.725425,41.802365 35.293735,40.932394 36.14733,39.420752 C 37.405885,37.191963 37.027231,37.432302 39.294436,37.423203 C 40.348955,37.418972 41.243036,37.446642 41.281288,37.484696 C 41.567436,37.769384 37.810832,41.338011 36.024284,42.478643 C 35.279093,42.954417 33.179848,44.147398 33.087843,44.147398 C 33.042361,44.147398 33.036977,44.093686 33.075879,44.028038 L 33.075877,44.028038 z"
         style="opacity:1;fill:url(#radialGradient3605);fill-opacity:1;fill-rule:evenodd;stroke:#000000;stroke-width:0.08708486999999999;stroke-linecap:round;stroke-linejoin:bevel;stroke-miterlimit:4;stroke-dasharray:none;stroke-opacity:1;filter:url(#filter3383)" />
      <path
         id="path3257"
         d="M 24.850481,44.579553 C 24.774141,43.255939 24.920135,37.697708 25.034241,37.583601 C 25.296402,37.321439 34.048389,37.31754 34.310316,37.579468 C 34.413279,37.682435 33.836767,38.831233 33.176949,39.83789 C 31.659145,42.153543 29.668736,44.066413 27.812334,44.993527 C 27.016047,45.391201 25.753049,45.77069 25.225795,45.77069 L 24.919189,45.77069 L 24.850481,44.579553 z"
         style="opacity:1;fill:url(#radialGradient3605);fill-opacity:1;fill-rule:evenodd;stroke:#000000;stroke-width:0.08708486999999999;stroke-linecap:round;stroke-linejoin:bevel;stroke-miterlimit:4;stroke-dasharray:none;stroke-opacity:1;filter:url(#filter3387)" />
      <path
         id="path3259"
         d="M 20.737198,45.405314 C 19.250706,44.891472 16.982578,43.045959 15.494566,41.139532 C 14.932512,40.419433 13.345933,37.909798 13.345933,37.740845 C 13.345933,37.597325 13.945126,37.567816 17.83386,37.519827 C 19.96085,37.49358 21.791391,37.44529 21.901727,37.41252 C 22.027094,37.375286 22.161406,37.412001 22.259807,37.510402 C 22.398547,37.64914 22.417274,37.983284 22.417274,40.319609 C 22.417274,41.778065 22.389128,43.558231 22.354726,44.275532 L 22.292179,45.579715 L 21.757928,45.576597 C 21.46409,45.574883 21.004762,45.497806 20.737199,45.405317 L 20.737198,45.405314 z"
         style="opacity:1;fill:url(#radialGradient3605);fill-opacity:1;fill-rule:evenodd;stroke:#000000;stroke-width:0.08708486999999999;stroke-linecap:round;stroke-linejoin:bevel;stroke-miterlimit:4;stroke-dasharray:none;stroke-opacity:1;filter:url(#filter3391)" />
      <path
         id="path3261"
         d="M 13.445851,43.275209 C 11.557817,42.262549 10.219493,41.203906 8.1502871,39.0863 C 7.0302439,37.940059 6.8472425,37.712653 6.9834979,37.6364 C 7.0734378,37.586068 7.8395077,37.559383 8.7110687,37.576224 C 10.614656,37.613007 10.59444,37.602344 11.34069,38.963429 C 12.168476,40.473232 12.540312,41.07418 13.248422,42.046666 C 14.347001,43.555403 14.426237,43.671849 14.383408,43.71468 C 14.360715,43.737375 13.938813,43.53961 13.445851,43.275207 L 13.445851,43.275209 z"
         style="opacity:1;fill:url(#radialGradient3605);fill-opacity:1;fill-rule:evenodd;stroke:#000000;stroke-width:0.08708486999999999;stroke-linecap:round;stroke-linejoin:bevel;stroke-miterlimit:4;stroke-dasharray:none;stroke-opacity:1;filter:url(#filter3395)" />
    </g>
  </g>
</svg>
