<?xml version="1.0" encoding="UTF-8" standalone="no"?>
<!-- Generator: Adobe Illustrator 13.0.2, SVG Export Plug-In . SVG Version: 6.00 Build 14948)  -->
<svg
   xmlns:dc="http://purl.org/dc/elements/1.1/"
   xmlns:cc="http://creativecommons.org/ns#"
   xmlns:rdf="http://www.w3.org/1999/02/22-rdf-syntax-ns#"
   xmlns:svg="http://www.w3.org/2000/svg"
   xmlns="http://www.w3.org/2000/svg"
   xmlns:xlink="http://www.w3.org/1999/xlink"
   xmlns:sodipodi="http://sodipodi.sourceforge.net/DTD/sodipodi-0.dtd"
   xmlns:inkscape="http://www.inkscape.org/namespaces/inkscape"
   version="1.0"
   id="Layer_1"
   x="0px"
   y="0px"
   width="48"
   height="48"
   viewBox="-0.258 -0.548 123.547 123.539"
   xml:space="preserve"
   sodipodi:version="0.32"
   inkscape:version="0.46"
   sodipodi:docname="recycle.svg"
   inkscape:output_extension="org.inkscape.output.svg.inkscape"><metadata
   id="metadata24"><rdf:RDF><cc:Work
       rdf:about=""><dc:format>image/svg+xml</dc:format><dc:type
         rdf:resource="http://purl.org/dc/dcmitype/StillImage" /></cc:Work></rdf:RDF></metadata><defs
   id="defs22"><linearGradient
   id="linearGradient3197"><stop
     style="stop-color:#1bff1b;stop-opacity:1;"
     offset="0"
     id="stop3199" /><stop
     style="stop-color:#36ff6f;stop-opacity:0.7079646;"
     offset="1"
     id="stop3201" /></linearGradient><inkscape:perspective
   sodipodi:type="inkscape:persp3d"
   inkscape:vp_x="0 : 61.769501 : 1"
   inkscape:vp_y="0 : 1000 : 0"
   inkscape:vp_z="123.547 : 61.769501 : 1"
   inkscape:persp3d-origin="61.773499 : 41.179667 : 1"
   id="perspective26" />
	
	
	
	
	
	
	
	
<linearGradient
   inkscape:collect="always"
   xlink:href="#linearGradient3197"
   id="linearGradient3209"
   x1="4.9745789"
   y1="60.993935"
   x2="117.48757"
   y2="60.993935"
   gradientUnits="userSpaceOnUse" /><filter
   inkscape:collect="always"
   id="filter3215"><feGaussianBlur
     inkscape:collect="always"
     stdDeviation="0.5585409"
     id="feGaussianBlur3217" /></filter><filter
   inkscape:collect="always"
   id="filter3219"><feGaussianBlur
     inkscape:collect="always"
     stdDeviation="0.5821188"
     id="feGaussianBlur3221" /></filter></defs><sodipodi:namedview
   inkscape:window-height="722"
   inkscape:window-width="1047"
   inkscape:pageshadow="2"
   inkscape:pageopacity="0.0"
   guidetolerance="10.0"
   gridtolerance="10.0"
   objecttolerance="10.0"
   borderopacity="1.0"
   bordercolor="#666666"
   pagecolor="#ffffff"
   id="base"
   showgrid="false"
   inkscape:zoom="10.291667"
   inkscape:cx="24"
   inkscape:cy="24"
   inkscape:window-x="5"
   inkscape:window-y="448"
   inkscape:current-layer="Layer_1" />
<path
   id="path5"
   d="M 105.86109,118.79161 C 113.59436,118.79161 119.87551,112.60204 119.87551,104.97944 L 119.87551,17.029947 C 119.87551,9.4082755 113.59531,3.2177719 105.86109,3.2177719 L 16.616243,3.2177719 C 8.8829737,3.2177719 2.601828,9.4073401 2.601828,17.029947 L 2.601828,104.97944 C 2.601828,112.60111 8.8820246,118.79161 16.616243,118.79161 L 105.86109,118.79161 z"
   style="fill:#231f20;filter:url(#filter3219)" /><path
   id="path7"
   d="M 16.616243,5.5422508 C 10.19463,5.5422508 4.9745787,10.708487 4.9745787,17.029947 L 4.9745787,104.97944 C 4.9745787,111.3009 10.19463,116.44562 16.616243,116.44562 L 105.86109,116.44562 C 112.27511,116.44562 117.48757,111.3009 117.48757,104.97944 L 117.48757,17.029947 C 117.48757,10.708487 112.27511,5.5422508 105.86109,5.5422508 L 16.616243,5.5422508 L 16.616243,5.5422508 z"
   style="fill:url(#linearGradient3209);fill-opacity:1;filter:url(#filter3215)" /><path
   id="path9"
   d="M 14.569983,54.189807 L 21.59902,58.186788 L 23.475391,59.254084 L 17.996235,68.600641 C 17.499855,69.440633 17.247395,70.376037 17.247395,71.311441 C 17.247395,72.231879 17.477077,73.138285 17.974406,73.964247 C 17.974406,73.964247 22.772108,82.185513 26.679553,88.828752 C 26.969029,87.893348 27.324942,86.979458 27.821321,86.117951 L 38.5509,67.848576 L 40.3969,68.893422 L 47.441123,72.912853 L 36.473319,54.212256 L 14.569983,54.189807 z"
   style="fill:#ffffff" /><path
   id="path11"
   d="M 35.524219,80.359604 C 34.567526,81.981595 31.090023,87.915798 31.090023,87.915798 C 30.475006,88.924163 30.18553,90.041971 30.18553,91.160714 C 30.18553,92.279458 30.475006,93.374816 31.068193,94.361667 C 32.209961,96.3494 34.382452,97.555136 36.710595,97.533622 C 36.710595,97.533622 54.94376,97.533622 58.354827,97.533622 C 58.354827,94.472044 58.354827,83.444567 58.354827,80.36054 C 55.069991,80.359604 37.519228,80.359604 35.524219,80.359604 z"
   style="fill:#ffffff" /><path
   id="path13"
   d="M 93.137455,26.602872 L 86.093232,30.599853 L 84.216861,31.673697 L 78.767127,22.30469 C 78.284984,21.464698 77.565566,20.777176 76.750289,20.316957 C 75.941655,19.841772 75.015334,19.615404 74.066233,19.615404 C 74.066233,19.615404 64.427171,19.615404 56.634108,19.615404 C 57.316511,20.316957 57.939121,21.076505 58.428857,21.938948 L 69.128064,40.208323 L 67.303894,41.282167 L 60.230249,45.279148 L 82.156364,45.279148 L 93.137455,26.602872 z"
   style="fill:#ffffff" /><path
   id="path15"
   d="M 59.652247,31.375303 C 58.703147,29.753313 55.233236,23.811626 55.233236,23.811626 C 54.640048,22.810744 53.809586,21.984782 52.82347,21.415121 C 51.852541,20.866975 50.746839,20.575128 49.590835,20.552679 C 47.276928,20.574193 45.11203,21.809862 43.985448,23.811626 C 43.985448,23.811626 34.857951,39.370201 33.137232,42.293339 C 35.85071,43.820853 45.53438,49.323835 48.248807,50.850414 C 49.871768,48.066652 58.658539,33.063707 59.652247,31.375303 z"
   style="fill:#ffffff" /><path
   id="path17"
   d="M 77.632952,107.39839 L 77.632952,99.403494 L 77.632952,97.283869 L 88.569435,97.305383 C 89.570736,97.305383 90.541665,97.050018 91.350299,96.574833 C 92.165576,96.114614 92.855572,95.457025 93.322529,94.631063 C 93.322529,94.631063 98.164839,86.409797 102.03527,79.766558 C 101.08617,79.971412 100.08487,80.153815 99.091161,80.153815 L 77.655731,80.133237 L 77.655731,78.007063 L 77.685153,69.990651 L 66.696469,88.698731 L 77.632952,107.39839 z"
   style="fill:#ffffff" /><path
   id="path19"
   d="M 90.171516,76.457099 C 92.091546,76.457099 99.024724,76.457099 99.024724,76.457099 C 100.20351,76.457099 101.36046,76.15777 102.36176,75.587173 C 103.31086,75.039026 104.11949,74.264512 104.71933,73.256146 C 105.86109,71.268413 105.83167,68.827944 104.67472,66.861725 C 104.67472,66.861725 95.56905,51.289119 93.856873,48.365981 C 91.165224,49.91501 81.459725,55.425475 78.768076,56.95299 C 80.391038,59.736752 89.177808,74.762147 90.171516,76.457099 z"
   style="fill:#ffffff" />
</svg>