<?xml version="1.0" encoding="UTF-8" standalone="no"?>
<!-- Created with Inkscape (http://www.inkscape.org/) -->
<svg
   xmlns:dc="http://purl.org/dc/elements/1.1/"
   xmlns:cc="http://creativecommons.org/ns#"
   xmlns:rdf="http://www.w3.org/1999/02/22-rdf-syntax-ns#"
   xmlns:svg="http://www.w3.org/2000/svg"
   xmlns="http://www.w3.org/2000/svg"
   xmlns:sodipodi="http://sodipodi.sourceforge.net/DTD/sodipodi-0.dtd"
   xmlns:inkscape="http://www.inkscape.org/namespaces/inkscape"
   width="48"
   height="48"
   id="svg2"
   sodipodi:version="0.32"
   inkscape:version="0.46"
   sodipodi:docname="start.svg"
   inkscape:output_extension="org.inkscape.output.svg.inkscape"
   version="1.0">
  <defs
     id="defs4">
    <inkscape:perspective
       sodipodi:type="inkscape:persp3d"
       inkscape:vp_x="0 : 526.18109 : 1"
       inkscape:vp_y="0 : 1000 : 0"
       inkscape:vp_z="744.09448 : 526.18109 : 1"
       inkscape:persp3d-origin="372.04724 : 350.78739 : 1"
       id="perspective10" />
    <inkscape:perspective
       id="perspective2390"
       inkscape:persp3d-origin="372.04724 : 350.78739 : 1"
       inkscape:vp_z="744.09448 : 526.18109 : 1"
       inkscape:vp_y="0 : 1000 : 0"
       inkscape:vp_x="0 : 526.18109 : 1"
       sodipodi:type="inkscape:persp3d" />
    <filter
       inkscape:collect="always"
       id="filter3207">
      <feGaussianBlur
         inkscape:collect="always"
         stdDeviation="0.47734415"
         id="feGaussianBlur3209" />
    </filter>
    <filter
       inkscape:collect="always"
       id="filter4809"
       x="-0.21698377"
       width="1.4339675"
       y="-0.14100628"
       height="1.2820126">
      <feGaussianBlur
         inkscape:collect="always"
         stdDeviation="0.47955094"
         id="feGaussianBlur4811" />
    </filter>
    <filter
       inkscape:collect="always"
       id="filter4813"
       x="-0.11901787"
       width="1.2380357"
       y="-0.10284392"
       height="1.2056878">
      <feGaussianBlur
         inkscape:collect="always"
         stdDeviation="0.47955094"
         id="feGaussianBlur4815" />
    </filter>
    <filter
       inkscape:collect="always"
       id="filter4817"
       x="-0.1439958"
       width="1.2879916"
       y="-0.1498017"
       height="1.2996034">
      <feGaussianBlur
         inkscape:collect="always"
         stdDeviation="0.47955094"
         id="feGaussianBlur4819" />
    </filter>
    <filter
       inkscape:collect="always"
       id="filter4821"
       x="-0.15862055"
       width="1.3172411"
       y="-0.18195857"
       height="1.3639171">
      <feGaussianBlur
         inkscape:collect="always"
         stdDeviation="0.47955094"
         id="feGaussianBlur4823" />
    </filter>
    <filter
       inkscape:collect="always"
       id="filter4825"
       x="-0.18685705"
       width="1.3737141"
       y="-0.1747925"
       height="1.349585">
      <feGaussianBlur
         inkscape:collect="always"
         stdDeviation="0.47955094"
         id="feGaussianBlur4827" />
    </filter>
    <filter
       inkscape:collect="always"
       id="filter4829"
       x="-0.10013822"
       width="1.2002764"
       y="-0.12914577"
       height="1.2582915">
      <feGaussianBlur
         inkscape:collect="always"
         stdDeviation="0.47955094"
         id="feGaussianBlur4831" />
    </filter>
    <filter
       inkscape:collect="always"
       id="filter4833"
       x="-0.21358276"
       width="1.4271655"
       y="-0.1429899"
       height="1.2859798">
      <feGaussianBlur
         inkscape:collect="always"
         stdDeviation="0.47955094"
         id="feGaussianBlur4835" />
    </filter>
    <filter
       inkscape:collect="always"
       id="filter4837"
       x="-0.069673801"
       width="1.1393476"
       y="-0.11999354"
       height="1.2399871">
      <feGaussianBlur
         inkscape:collect="always"
         stdDeviation="0.47955094"
         id="feGaussianBlur4839" />
    </filter>
    <filter
       inkscape:collect="always"
       id="filter4841"
       x="-0.16209833"
       width="1.3241967"
       y="-0.19649652"
       height="1.392993">
      <feGaussianBlur
         inkscape:collect="always"
         stdDeviation="0.47955094"
         id="feGaussianBlur4843" />
    </filter>
    <filter
       inkscape:collect="always"
       id="filter4845"
       x="-0.15698709"
       width="1.3139742"
       y="-0.18388988"
       height="1.3677798">
      <feGaussianBlur
         inkscape:collect="always"
         stdDeviation="0.47955094"
         id="feGaussianBlur4847" />
    </filter>
    <filter
       inkscape:collect="always"
       id="filter4849"
       x="-0.1623389"
       width="1.3246778"
       y="-0.18539274"
       height="1.3707855">
      <feGaussianBlur
         inkscape:collect="always"
         stdDeviation="0.47955094"
         id="feGaussianBlur4851" />
    </filter>
    <filter
       inkscape:collect="always"
       id="filter4853"
       x="-0.1935249"
       width="1.3870498"
       y="-0.17098181"
       height="1.3419636">
      <feGaussianBlur
         inkscape:collect="always"
         stdDeviation="0.47955094"
         id="feGaussianBlur4855" />
    </filter>
    <filter
       inkscape:collect="always"
       id="filter4857">
      <feGaussianBlur
         inkscape:collect="always"
         stdDeviation="0.47955094"
         id="feGaussianBlur4859" />
    </filter>
    <filter
       inkscape:collect="always"
       id="filter4880">
      <feGaussianBlur
         inkscape:collect="always"
         stdDeviation="0.704446"
         id="feGaussianBlur4882" />
    </filter>
  </defs>
  <sodipodi:namedview
     id="base"
     pagecolor="#ffffff"
     bordercolor="#666666"
     borderopacity="1.0"
     gridtolerance="10000"
     guidetolerance="10"
     objecttolerance="10"
     inkscape:pageopacity="0.0"
     inkscape:pageshadow="2"
     inkscape:zoom="5.4673803"
     inkscape:cx="17.818236"
     inkscape:cy="23.496099"
     inkscape:document-units="px"
     inkscape:current-layer="layer1"
     showgrid="false"
     inkscape:window-width="911"
     inkscape:window-height="722"
     inkscape:window-x="245"
     inkscape:window-y="417">
    <inkscape:grid
       type="xygrid"
       id="grid2431"
       visible="true"
       enabled="true" />
  </sodipodi:namedview>
  <metadata
     id="metadata7">
    <rdf:RDF>
      <cc:Work
         rdf:about="">
        <dc:format>image/svg+xml</dc:format>
        <dc:type
           rdf:resource="http://purl.org/dc/dcmitype/StillImage" />
        <dc:title>Checkered flag</dc:title>
        <dc:subject>
          <rdf:Bag>
            <rdf:li>Checkered flag racing race cars</rdf:li>
          </rdf:Bag>
        </dc:subject>
      </cc:Work>
    </rdf:RDF>
  </metadata>
  <g
     inkscape:label="Layer 1"
     inkscape:groupmode="layer"
     id="layer1">
    <g
       id="g4896"
       transform="matrix(1.0075393,0,0,0.9940137,-1.353966e-3,0.2882073)">
      <g
         style="stroke:#e0e0e0;stroke-width:1;stroke-miterlimit:4;stroke-dasharray:none;stroke-opacity:1;filter:url(#filter4880)"
         transform="translate(54.923903,1.1346252)"
         id="g4861">
        <path
           style="opacity:1;fill:#ffffff;stroke:#e0e0e0;stroke-width:1;stroke-miterlimit:4;stroke-dasharray:none;stroke-opacity:1;filter:url(#filter4857)"
           d="M -9.5065988,46.275605 C -9.5964898,46.076368 -11.601828,41.053623 -13.962901,35.11395 L -18.255763,24.31455 L -19.204788,23.756847 C -20.917561,22.750329 -22.935143,22.284042 -24.403246,22.555438 C -26.613892,22.964096 -28.498043,24.57205 -31.797453,28.86573 C -34.207341,32.001829 -35.521237,33.297025 -37.067438,34.060709 C -38.247459,34.643529 -38.285742,34.651056 -40.044248,34.645749 C -42.009233,34.639823 -42.757116,34.433556 -44.352222,33.457597 L -45.175178,32.954076 L -49.709415,21.537565 C -52.203245,15.258486 -54.24395,10.027648 -54.244314,9.9134793 C -54.244768,9.7710683 -53.990726,9.8485483 -53.435021,10.160305 C -51.501327,11.245126 -49.512032,11.714464 -48.091928,11.420909 C -45.887505,10.965235 -44.154155,9.4971523 -40.951519,5.3732473 C -38.801474,2.6047153 -37.473521,1.1629053 -36.397056,0.42827429 C -34.169822,-1.0916967 -31.458969,-1.1770987 -28.755077,0.18752529 C -27.737884,0.70088929 -25.63245,0.18824729 -25.603492,0.48003529 C -25.497679,1.5462173 -26.083162,0.49857729 -25.603492,0.48003529 C -25.495949,0.47588029 -7.6034918,45.206738 -7.6034918,45.480035 C -7.6034918,45.537698 -7.7858418,46.208064 -7.9900848,46.259331 C -8.1943358,46.310591 -8.4703038,46.428925 -8.6034918,46.480035 C -8.7630288,46.541254 -9.3989218,46.514263 -9.5065988,46.275605 z M -37.897089,34.127433 C -37.474026,33.966684 -36.676427,33.513006 -36.124645,33.11926 L -35.121405,32.403361 L -35.379652,31.753056 C -35.521688,31.395386 -35.922558,30.392519 -36.270476,29.524469 L -36.903052,27.946187 L -37.821589,28.637556 C -38.731562,29.32248 -40.090641,29.945667 -40.674373,29.945667 C -40.840895,29.945667 -40.97714,30.026035 -40.97714,30.124263 C -40.97714,30.222485 -40.618172,31.229146 -40.179432,32.361277 C -39.279908,34.682432 -39.305538,34.662602 -37.897089,34.127433 z M -41.131418,30.021355 C -41.131418,29.978133 -41.513253,28.991302 -41.979942,27.828395 C -42.44663,26.665487 -42.828467,25.664412 -42.828467,25.603772 C -42.828467,25.543139 -42.429275,25.378323 -41.941373,25.237519 C -41.001853,24.966382 -40.329905,24.611321 -39.412168,23.90109 C -39.102974,23.661806 -38.815442,23.46603 -38.773209,23.46603 C -38.730975,23.46603 -38.331331,24.385906 -37.885112,25.510203 C -37.438893,26.634493 -37.008618,27.623797 -36.928942,27.708654 C -36.765823,27.882366 -35.947337,27.02362 -34.465942,25.124508 C -33.952981,24.4669 -33.518576,23.928863 -33.5006,23.928863 C -33.482624,23.928863 -33.098132,24.866096 -32.646174,26.011599 C -32.194216,27.157108 -31.770398,28.094341 -31.704351,28.094341 C -31.638305,28.094341 -31.253339,27.660438 -30.84887,27.130112 C -30.444401,26.599786 -29.708474,25.740407 -29.213476,25.22038 L -28.313483,24.274884 L -29.067445,22.366249 C -29.482125,21.316509 -29.869317,20.324079 -29.927871,20.160857 C -30.023309,19.894822 -30.107248,19.934781 -30.738195,20.546544 C -31.125316,20.921898 -31.892304,21.801761 -32.442612,22.501794 C -32.99292,23.201827 -33.466807,23.774585 -33.495695,23.774585 C -33.524584,23.774585 -33.943289,22.764273 -34.426152,21.529452 C -34.909015,20.29463 -35.32223,19.305327 -35.344409,19.331001 C -35.366588,19.356675 -35.939317,20.071933 -36.617139,20.920454 C -37.294961,21.768981 -38.054971,22.655343 -38.306049,22.890145 L -38.762555,23.317065 L -39.579582,21.193097 C -40.028947,20.024917 -40.452726,19.008256 -40.521315,18.933849 C -40.590169,18.859155 -40.94757,19.045661 -41.319295,19.350265 C -42.066967,19.962921 -43.409434,20.635161 -44.178392,20.781946 C -44.454162,20.834589 -44.679792,20.924466 -44.679792,20.98168 C -44.679792,21.038894 -44.297957,22.037176 -43.831268,23.200083 C -43.36458,24.362983 -42.982743,25.349815 -42.982743,25.393043 C -42.982743,25.558445 -44.499868,25.461429 -45.34154,25.242199 C -45.826008,25.116014 -46.708403,24.768017 -47.302418,24.468876 C -47.896433,24.169734 -48.382444,23.946465 -48.382444,23.972718 C -48.382444,23.998972 -47.98218,25.023861 -47.492969,26.250243 L -46.603493,28.480035 L -45.448797,29.056996 C -44.813713,29.374319 -43.912263,29.73423 -43.445575,29.856798 C -42.620237,30.073548 -41.131418,30.17942 -41.131418,30.021355 z M -19.539869,21.518096 C -19.9754,20.42572 -20.407916,19.439768 -20.501025,19.327077 C -20.760755,19.012745 -21.962645,18.445648 -23.135812,18.083898 C -24.330486,17.715513 -25.940118,17.635397 -25.813576,17.950621 C -25.770997,18.056684 -25.369761,19.063345 -24.921942,20.187641 L -24.107724,22.231815 L -23.147777,22.231815 C -22.111663,22.231815 -20.653309,22.632161 -19.532614,23.224245 C -19.150782,23.425982 -18.818038,23.571506 -18.793188,23.54763 C -18.768337,23.523761 -19.104345,22.610472 -19.539869,21.518096 z M -44.904402,20.804071 C -44.863558,20.697641 -45.206207,19.673623 -45.665844,18.528488 C -46.125479,17.383347 -46.46939,16.394349 -46.430088,16.330712 C -46.390787,16.267074 -46.261196,16.215004 -46.142109,16.215004 C -45.635645,16.215004 -44.156519,15.52841 -43.292113,14.892069 C -42.371049,14.214025 -42.357812,14.209836 -42.225093,14.554577 C -41.655651,16.033716 -40.606482,18.620682 -40.550594,18.68344 C -40.46273,18.782092 -39.364155,17.554832 -38.170065,16.024057 C -37.65791,15.367498 -37.188673,14.861334 -37.127317,14.899256 C -37.065959,14.937178 -36.64873,15.911155 -36.20014,17.063654 C -35.751551,18.216152 -35.334175,19.138862 -35.272638,19.114114 C -35.211102,19.089373 -34.602522,18.374885 -33.920237,17.526357 C -33.237954,16.677837 -32.500737,15.817272 -32.281976,15.614003 L -31.884228,15.244426 L -31.740607,15.614003 C -31.661616,15.817272 -31.274688,16.813865 -30.880766,17.828653 C -30.486845,18.84344 -30.139622,19.698643 -30.109163,19.7291 C -30.078705,19.759563 -29.717193,19.526246 -29.305805,19.21062 C -28.517463,18.605784 -27.111746,17.913673 -26.663536,17.909688 C -25.920584,17.90308 -25.934686,17.717692 -26.852868,15.420768 C -27.339673,14.202969 -27.752104,13.191799 -27.76938,13.173713 C -27.786657,13.155621 -28.144688,13.231819 -28.565004,13.343025 C -29.511597,13.593488 -30.380555,14.032908 -31.163185,14.656886 C -31.493051,14.919883 -31.805461,15.134508 -31.857433,15.13382 C -31.909406,15.133138 -32.326977,14.178548 -32.78537,13.012515 C -33.243761,11.846474 -33.644409,10.862061 -33.675696,10.824922 C -33.778953,10.702374 -35.126806,12.106119 -36.073643,13.322303 C -36.585608,13.979911 -37.053908,14.517955 -37.114311,14.517955 C -37.174713,14.517955 -37.595434,13.57688 -38.049242,12.426677 C -38.503054,11.276475 -38.915751,10.309814 -38.966349,10.27854 C -39.016947,10.247266 -39.554933,10.858573 -40.161875,11.636999 C -41.263351,13.049688 -42.312515,14.170585 -42.415371,14.044577 C -42.445267,14.007949 -42.839434,13.04075 -43.291298,11.895241 C -43.743161,10.749738 -44.130978,9.7888883 -44.153112,9.7600193 C -44.175245,9.7311573 -44.563145,9.9829073 -45.015113,10.319466 C -46.074246,11.108151 -46.420894,11.285228 -47.480104,11.578647 L -48.351949,11.820166 L -47.518673,13.896308 C -47.060371,15.038186 -46.685396,16.069827 -46.685396,16.188839 C -46.685396,16.363689 -46.881106,16.384268 -47.704951,16.296039 C -48.846451,16.173798 -49.926006,15.837225 -51.124332,15.229991 C -51.567899,15.005216 -51.930819,14.88036 -51.930819,14.952532 C -51.930819,15.390917 -50.32134,19.120872 -50.013762,19.395292 C -49.00038,20.299433 -45.121194,21.369023 -44.904402,20.804071 z M -23.193558,12.342073 L -24.083793,10.121054 L -25.039873,9.6154283 C -26.615155,8.7823303 -29.406354,8.1968813 -29.406354,8.6995573 C -29.406354,8.8086853 -29.031415,9.8327033 -28.573156,10.975147 L -27.739957,13.052324 L -26.731115,13.154381 C -25.477662,13.281193 -24.337541,13.621635 -23.235268,14.198256 C -22.76858,14.44239 -22.367974,14.624352 -22.345034,14.602615 C -22.322092,14.580878 -22.703928,13.563638 -23.193558,12.342073 z M -31.735836,9.2846863 C -31.430425,9.1312603 -30.902843,8.9216423 -30.563432,8.8188623 C -30.224024,8.7160763 -29.863962,8.6064243 -29.763298,8.5751773 C -29.641923,8.5375003 -29.867162,7.8009143 -30.431971,6.3884433 C -30.900405,5.2169873 -31.345025,4.1947883 -31.420017,4.1168933 C -31.736372,3.7882903 -33.642426,4.6039973 -35.084019,5.6849293 L -35.546083,6.0313933 L -36.392165,3.9167843 C -36.857511,2.7537473 -37.312069,1.7775633 -37.402297,1.7474883 C -37.556011,1.6962493 -40.017967,4.5477163 -40.505077,5.3411623 C -40.709843,5.6747043 -40.662253,5.8678373 -39.897992,7.8048923 C -39.441893,8.9608993 -39.028775,9.9314023 -38.97995,9.9615793 C -38.931125,9.9917563 -38.373856,9.3624453 -37.741572,8.5631133 C -36.576677,7.0904523 -35.627192,6.0761003 -35.527261,6.1975303 C -35.481932,6.2526123 -34.354819,9.0478473 -33.866838,10.315372 C -33.732759,10.663635 -33.73196,10.663451 -33.011882,10.113799 C -32.615469,9.8112113 -32.041247,9.4381123 -31.735836,9.2846863 z M -26.012257,5.3409923 C -26.012257,5.2999573 -26.362648,4.3800743 -26.790903,3.2968193 C -27.673572,1.0641383 -27.846517,0.86543229 -29.512806,0.16944629 C -30.558409,-0.26729071 -32.854834,-0.75252871 -33.032989,-0.57437471 C -33.077886,-0.52947671 -32.716622,0.52422729 -32.23018,1.7671823 L -31.34574,4.0271113 L -30.414617,4.0291753 C -29.44205,4.0313273 -27.332836,4.6586633 -26.620401,5.1576753 C -26.256683,5.4124293 -26.012257,5.4861083 -26.012257,5.3409923 z"
           id="path3243"
           sodipodi:nodetypes="ccccsssscccsssssssssssccccccccsssccsssssssssssscccssssssscccssssssssscccsccssscccssccssssssssssscccsssssssssssssssssssscccsssssccccscccssccsssscccssssssssccssscccsc" />
        <path
           style="opacity:1;fill:#ffffff;fill-opacity:1;fill-rule:evenodd;stroke:#e0e0e0;stroke-width:1;stroke-linecap:round;stroke-linejoin:bevel;stroke-miterlimit:4;stroke-dasharray:none;stroke-opacity:1;filter:url(#filter4853)"
           d="M -34.592955,8.2993349 C -35.184779,6.8005696 -35.350113,6.1836873 -35.217663,5.9684855 C -34.986218,5.5924426 -32.083331,4.0874146 -31.726748,4.1585913 C -31.485986,4.2066491 -29.878342,7.7400049 -29.8621,8.2568137 C -29.858589,8.3685985 -30.31217,8.6347332 -30.870058,8.8482267 C -31.427949,9.0617184 -32.245265,9.4846723 -32.686318,9.7881247 C -33.127372,10.091579 -33.555707,10.339332 -33.638179,10.338694 C -33.72065,10.338055 -34.1503,9.4203453 -34.592955,8.2993368 L -34.592955,8.2993349 z"
           id="path4731" />
        <path
           style="opacity:1;fill:#ffffff;fill-opacity:1;fill-rule:evenodd;stroke:#e0e0e0;stroke-width:1;stroke-linecap:round;stroke-linejoin:bevel;stroke-miterlimit:4;stroke-dasharray:none;stroke-opacity:1;filter:url(#filter4849)"
           d="M -27.120961,4.8592614 C -27.943514,4.4243237 -29.803972,3.9382518 -30.646158,3.9382518 C -31.283809,3.9382518 -31.299478,3.9195207 -31.831912,2.5207539 C -32.608743,0.47992823 -32.834237,-0.27740705 -32.703873,-0.40777113 C -32.502789,-0.60886013 -30.3528,-0.082267894 -29.19917,0.45062718 C -28.438384,0.80205874 -27.964863,1.1609235 -27.705159,1.5828989 C -27.374984,2.1193715 -26.197654,4.8910555 -26.197654,5.131882 C -26.197654,5.2864404 -26.459041,5.2092627 -27.120963,4.8592596 L -27.120961,4.8592614 z"
           id="path4733" />
        <path
           style="opacity:1;fill:#ffffff;fill-opacity:1;fill-rule:evenodd;stroke:#e0e0e0;stroke-width:1;stroke-linecap:round;stroke-linejoin:bevel;stroke-miterlimit:4;stroke-dasharray:none;stroke-opacity:1;filter:url(#filter4845)"
           d="M -23.793497,13.886581 C -24.332245,13.640641 -25.402228,13.335165 -26.171234,13.207752 C -27.772048,12.942513 -27.737889,12.982675 -28.771273,10.151136 L -29.322204,8.6415445 L -28.254197,8.738388 C -27.188154,8.8350522 -24.559224,9.79836 -24.208647,10.22078 C -24.057057,10.403436 -22.539595,14.119124 -22.539595,14.307657 C -22.539595,14.422705 -22.840268,14.321735 -23.793496,13.886581 L -23.793497,13.886581 z"
           id="path4735" />
        <path
           style="opacity:1;fill:#ffffff;fill-opacity:1;fill-rule:evenodd;stroke:#e0e0e0;stroke-width:1;stroke-linecap:round;stroke-linejoin:bevel;stroke-miterlimit:4;stroke-dasharray:none;stroke-opacity:1;filter:url(#filter4841)"
           d="M -20.253308,22.815642 C -20.873176,22.562252 -21.935653,22.317008 -22.694894,22.252067 L -24.039061,22.137096 L -24.844006,20.133246 C -25.286721,19.031126 -25.648945,18.064026 -25.648945,17.984134 C -25.648945,17.542641 -22.761372,18.173276 -21.240328,18.946957 C -20.663168,19.240529 -20.485608,19.512597 -19.812238,21.135135 C -19.389297,22.154241 -19.068598,23.0502 -19.099573,23.126151 C -19.130549,23.202101 -19.649729,23.062371 -20.253308,22.81564 L -20.253308,22.815642 z"
           id="path4737" />
        <path
           style="opacity:1;fill:#ffffff;fill-opacity:1;fill-rule:evenodd;stroke:#e0e0e0;stroke-width:1;stroke-linecap:round;stroke-linejoin:bevel;stroke-miterlimit:4;stroke-dasharray:none;stroke-opacity:1;filter:url(#filter4837)"
           d="M -30.953131,17.381619 C -31.405816,16.224953 -31.858501,15.280249 -31.959097,15.282273 C -32.059694,15.2843 -32.834272,16.107283 -33.680381,17.111126 C -34.526488,18.114966 -35.236195,18.936294 -35.2575,18.936294 C -35.278804,18.936294 -35.68757,18.030924 -36.165865,16.924361 C -36.64416,15.817799 -37.100022,14.912429 -37.178892,14.912429 C -37.257761,14.912429 -37.9911,15.694339 -38.808531,16.650007 C -39.625965,17.605675 -40.35739,18.387585 -40.433924,18.387585 C -40.510454,18.387585 -40.961811,17.430264 -41.436933,16.260206 L -42.300789,14.132829 L -41.426001,13.19658 C -40.944869,12.681646 -40.205892,11.85121 -39.78383,11.351166 L -39.016446,10.441999 L -38.531174,11.534069 C -38.264274,12.134709 -37.843974,13.078827 -37.597174,13.632108 L -37.148449,14.638075 L -36.565704,13.994732 C -36.245196,13.640891 -35.514967,12.817828 -34.942972,12.165702 C -34.261266,11.388487 -33.84227,11.043026 -33.72675,11.162918 C -33.629821,11.263515 -33.20283,12.189461 -32.777881,13.220577 C -32.352933,14.251692 -31.934731,15.095332 -31.848545,15.095332 C -31.762361,15.095332 -31.25814,14.820189 -30.728054,14.483904 C -29.643491,13.795858 -28.023988,13.193013 -27.822837,13.402463 C -27.61079,13.623254 -26.390866,16.790279 -26.337559,17.258362 C -26.297062,17.61394 -26.423574,17.730016 -27.107854,17.965118 C -27.558165,18.119833 -28.36225,18.525103 -28.89471,18.865712 C -29.42717,19.206321 -29.922948,19.484922 -29.996443,19.484825 C -30.069938,19.484728 -30.500446,18.538284 -30.953131,17.381619 z"
           id="path4739" />
        <path
           style="opacity:1;fill:#ffffff;fill-opacity:1;fill-rule:evenodd;stroke:#e0e0e0;stroke-width:1;stroke-linecap:round;stroke-linejoin:bevel;stroke-miterlimit:4;stroke-dasharray:none;stroke-opacity:1;filter:url(#filter4833)"
           d="M -31.83084,27.594088 C -31.927473,27.409449 -32.315659,26.53499 -32.693473,25.650846 C -33.193639,24.480381 -33.336375,23.94849 -33.218461,23.694547 C -32.931281,23.076072 -30.356761,20.202017 -30.151281,20.270511 C -30.041923,20.306963 -29.607077,21.22195 -29.184959,22.303812 L -28.417474,24.270832 L -29.365223,25.308733 C -29.886483,25.879581 -30.61496,26.702849 -30.984056,27.138218 C -31.586294,27.848586 -31.673167,27.895358 -31.83084,27.594089 L -31.83084,27.594088 z"
           id="path4741" />
        <path
           style="opacity:1;fill:#ffffff;fill-opacity:1;fill-rule:evenodd;stroke:#e0e0e0;stroke-width:1;stroke-linecap:round;stroke-linejoin:bevel;stroke-miterlimit:4;stroke-dasharray:none;stroke-opacity:1;filter:url(#filter4829)"
           d="M -37.738373,25.600317 C -38.181251,24.530948 -38.638883,23.617013 -38.755338,23.569352 C -38.871794,23.521691 -39.406783,23.771928 -39.944207,24.125434 C -40.481632,24.478939 -41.35562,24.937166 -41.886402,25.143717 L -42.851462,25.51926 L -43.008428,25.108499 C -43.094758,24.882581 -43.462967,23.928144 -43.826671,22.98753 C -44.190372,22.046914 -44.48795,21.209891 -44.48795,21.127473 C -44.48795,21.045057 -44.095471,20.847264 -43.615773,20.687935 C -43.136077,20.528603 -42.316261,20.11046 -41.793959,19.758721 C -41.271658,19.406982 -40.770218,19.119197 -40.67965,19.119197 C -40.589079,19.119197 -40.147822,20.040252 -39.699073,21.165987 C -39.250328,22.29172 -38.803562,23.239313 -38.706263,23.271745 C -38.608966,23.304179 -37.839288,22.504367 -36.995872,21.494387 C -36.152457,20.484405 -35.39926,19.722005 -35.322103,19.800159 C -35.244943,19.878316 -34.813153,20.823342 -34.362568,21.900222 L -33.543322,23.858185 L -35.037497,25.638034 C -35.859292,26.616956 -36.622003,27.446404 -36.732409,27.481257 C -36.842817,27.516105 -37.2955,26.669685 -37.738375,25.600316 L -37.738373,25.600317 z"
           id="path4743" />
        <path
           style="opacity:1;fill:#ffffff;fill-opacity:1;fill-rule:evenodd;stroke:#e0e0e0;stroke-width:1;stroke-linecap:round;stroke-linejoin:bevel;stroke-miterlimit:4;stroke-dasharray:none;stroke-opacity:1;filter:url(#filter4825)"
           d="M -39.523396,33.614256 C -39.821115,33.025897 -40.829891,30.380883 -40.829891,30.188625 C -40.829891,30.152404 -40.415281,29.985061 -39.908537,29.816748 C -39.401792,29.648435 -38.570459,29.230288 -38.061128,28.887533 C -37.551798,28.544782 -37.075941,28.264345 -37.003669,28.264345 C -36.931396,28.264345 -36.500333,29.19689 -36.045746,30.336666 L -35.219227,32.408988 L -36.241252,33.070577 C -37.345917,33.785653 -38.458345,34.300142 -38.899818,34.300142 C -39.051896,34.300142 -39.33251,33.991493 -39.523398,33.614256 L -39.523396,33.614256 z"
           id="path4745" />
        <path
           style="opacity:1;fill:#ffffff;fill-opacity:1;fill-rule:evenodd;stroke:#e0e0e0;stroke-width:1;stroke-linecap:round;stroke-linejoin:bevel;stroke-miterlimit:4;stroke-dasharray:none;stroke-opacity:1;filter:url(#filter4821)"
           d="M -42.567469,29.912637 C -43.563245,29.765528 -46.17909,28.742327 -46.476957,28.38342 C -46.703232,28.110776 -48.167641,24.384047 -48.08211,24.298517 C -48.048481,24.264883 -47.412537,24.488264 -46.668906,24.794912 C -45.925274,25.101561 -44.850054,25.401244 -44.279524,25.460876 C -43.708993,25.520511 -43.157203,25.621829 -43.053321,25.686029 C -42.846776,25.813681 -41.378599,29.46797 -41.378599,29.854408 C -41.378599,29.98584 -41.440329,30.083106 -41.515777,30.070555 C -41.591224,30.058006 -42.064486,29.986941 -42.567469,29.912635 L -42.567469,29.912637 z"
           id="path4747" />
        <path
           style="opacity:1;fill:#ffffff;fill-opacity:1;fill-rule:evenodd;stroke:#e0e0e0;stroke-width:1;stroke-linecap:round;stroke-linejoin:bevel;stroke-miterlimit:4;stroke-dasharray:none;stroke-opacity:1;filter:url(#filter4817)"
           d="M -44.579401,25.040517 C -45.182981,24.909811 -46.252963,24.59697 -46.95714,24.345316 L -48.23746,23.887762 L -48.303739,24.292748 C -48.346143,24.551868 -48.823756,23.552721 -49.629783,21.518712 C -50.931251,18.234455 -51.205684,17.290303 -50.420273,18.799117 C -50.171538,19.276951 -49.949028,19.668187 -49.925806,19.668533 C -49.902585,19.668879 -49.266289,19.920762 -48.511815,20.228275 C -47.75734,20.535788 -46.628161,20.835244 -46.002529,20.893731 C -44.888608,20.997865 -44.860638,21.013762 -44.654042,21.660035 C -44.53801,22.023017 -44.198114,22.963455 -43.898722,23.749901 C -43.599332,24.536351 -43.383088,25.201935 -43.41818,25.228982 C -43.453273,25.25603 -43.975821,25.171218 -44.579401,25.040515 L -44.579401,25.040517 z"
           id="path4749" />
        <path
           style="opacity:1;fill:#ffffff;fill-opacity:1;fill-rule:evenodd;stroke:#e0e0e0;stroke-width:1;stroke-linecap:round;stroke-linejoin:bevel;stroke-miterlimit:4;stroke-dasharray:none;stroke-opacity:1;filter:url(#filter4813)"
           d="M -46.022681,20.559966 C -46.514694,20.484341 -47.543523,20.203576 -48.308966,19.936043 C -49.605905,19.482748 -49.739896,19.38543 -50.276481,18.50707 C -50.839319,17.585739 -51.857735,15.270933 -51.748365,15.161563 C -51.718058,15.13126 -51.060878,15.352023 -50.28796,15.652149 C -48.548882,16.327434 -46.682785,16.576626 -46.682785,16.133571 C -46.682785,15.971765 -47.011553,14.992939 -47.413382,13.958405 C -47.815209,12.92387 -48.144434,12.0264 -48.144994,11.964026 C -48.145551,11.901653 -47.768945,11.745047 -47.30809,11.616017 C -46.847231,11.486984 -45.973595,11.060462 -45.366668,10.668186 C -44.759743,10.275914 -44.234616,9.9835127 -44.199718,10.018411 C -44.16482,10.053308 -43.765659,10.978668 -43.312692,12.074763 C -42.732076,13.479739 -42.543858,14.133626 -42.674674,14.29125 C -42.989557,14.670659 -44.999902,15.801248 -45.769847,16.031929 C -46.171368,16.152226 -46.499882,16.290281 -46.499882,16.338715 C -46.499882,16.387146 -46.161406,17.366262 -45.74771,18.514523 C -45.334015,19.662781 -45.025368,20.623687 -45.061824,20.649866 C -45.09828,20.676045 -45.530667,20.635589 -46.022679,20.559966 L -46.022681,20.559966 z"
           id="path4751" />
        <path
           style="opacity:1;fill:#ffffff;fill-opacity:1;fill-rule:evenodd;stroke:#e0e0e0;stroke-width:1;stroke-linecap:round;stroke-linejoin:bevel;stroke-miterlimit:4;stroke-dasharray:none;stroke-opacity:1;filter:url(#filter4809)"
           d="M -39.053771,9.5808792 C -39.708952,8.056288 -40.464085,6.0038992 -40.464085,5.7477711 C -40.464085,5.4177648 -38.690264,3.0883365 -37.857015,2.3240948 C -37.601988,2.0901875 -37.351826,1.9667281 -37.301107,2.0497404 C -37.093169,2.3900716 -35.708608,5.8240965 -35.708608,5.9995041 C -35.708608,6.1038337 -36.100536,6.608677 -36.579557,7.1213814 C -37.05858,7.634084 -37.78736,8.4527869 -38.199069,8.9407189 C -38.708191,9.5440993 -38.981583,9.7488646 -39.053773,9.5808792 L -39.053771,9.5808792 z"
           id="path4753" />
      </g>
      <path
         sodipodi:nodetypes="ccccsssscccsssssssssssccccccccsssccsssssssssssscccssssssscccssssssssscccsccssscccssccssssssssssscccsssssssssssssssssssscccsssssccccscccssccsssscccssssssssccssscccsc"
         id="path3211"
         d="M 45.417304,47.41023 C 45.327413,47.210993 43.322075,42.188248 40.961002,36.248575 L 36.66814,25.449175 L 35.719115,24.891472 C 34.006342,23.884954 31.98876,23.418667 30.520657,23.690063 C 28.310011,24.098721 26.42586,25.706675 23.12645,30.000355 C 20.716562,33.136454 19.402666,34.43165 17.856465,35.195334 C 16.676444,35.778154 16.638161,35.785681 14.879655,35.780374 C 12.91467,35.774448 12.166787,35.568181 10.571681,34.592222 L 9.7487255,34.088701 L 5.2144885,22.67219 C 2.7206585,16.393111 0.67995345,11.162273 0.67958945,11.048104 C 0.67913545,10.905693 0.93317745,10.983173 1.4888825,11.29493 C 3.4225765,12.379751 5.4118715,12.849089 6.8319755,12.555534 C 9.0363985,12.09986 10.769748,10.631777 13.972384,6.5078723 C 16.122429,3.7393403 17.450382,2.2975303 18.526847,1.5628993 C 20.754081,0.042928642 23.464934,-0.042473358 26.168826,1.3221503 C 27.186019,1.8355143 29.291453,1.3228723 29.320411,1.6146603 C 29.426224,2.6808423 28.840741,1.6332023 29.320411,1.6146603 C 29.427954,1.6105053 47.320411,46.341363 47.320411,46.61466 C 47.320411,46.672323 47.138061,47.342689 46.933818,47.393956 C 46.729567,47.445216 46.453599,47.56355 46.320411,47.61466 C 46.160874,47.675879 45.524981,47.648888 45.417304,47.41023 z M 17.026814,35.262058 C 17.449877,35.101309 18.247476,34.647631 18.799258,34.253885 L 19.802498,33.537986 L 19.544251,32.887681 C 19.402215,32.530011 19.001345,31.527144 18.653427,30.659094 L 18.020851,29.080812 L 17.102314,29.772181 C 16.192341,30.457105 14.833262,31.080292 14.24953,31.080292 C 14.083008,31.080292 13.946763,31.16066 13.946763,31.258888 C 13.946763,31.35711 14.305731,32.363771 14.744471,33.495902 C 15.643995,35.817057 15.618365,35.797227 17.026814,35.262058 z M 13.792485,31.15598 C 13.792485,31.112758 13.41065,30.125927 12.943961,28.96302 C 12.477273,27.800112 12.095436,26.799037 12.095436,26.738397 C 12.095436,26.677764 12.494628,26.512948 12.98253,26.372144 C 13.92205,26.101007 14.593998,25.745946 15.511735,25.035715 C 15.820929,24.796431 16.108461,24.600655 16.150694,24.600655 C 16.192928,24.600655 16.592572,25.520531 17.038791,26.644828 C 17.48501,27.769118 17.915285,28.758422 17.994961,28.843279 C 18.15808,29.016991 18.976566,28.158245 20.457961,26.259133 C 20.970922,25.601525 21.405327,25.063488 21.423303,25.063488 C 21.441279,25.063488 21.825771,26.000721 22.277729,27.146224 C 22.729687,28.291733 23.153505,29.228966 23.219552,29.228966 C 23.285598,29.228966 23.670564,28.795063 24.075033,28.264737 C 24.479502,27.734411 25.215429,26.875032 25.710427,26.355005 L 26.61042,25.409509 L 25.856458,23.500874 C 25.441778,22.451134 25.054586,21.458704 24.996032,21.295482 C 24.900594,21.029447 24.816655,21.069406 24.185708,21.681169 C 23.798587,22.056523 23.031599,22.936386 22.481291,23.636419 C 21.930983,24.336452 21.457096,24.90921 21.428208,24.90921 C 21.399319,24.90921 20.980614,23.898898 20.497751,22.664077 C 20.014888,21.429255 19.601673,20.439952 19.579494,20.465626 C 19.557315,20.4913 18.984586,21.206558 18.306764,22.055079 C 17.628942,22.903606 16.868932,23.789968 16.617854,24.02477 L 16.161348,24.45169 L 15.344321,22.327722 C 14.894956,21.159542 14.471177,20.142881 14.402588,20.068474 C 14.333734,19.99378 13.976333,20.180286 13.604608,20.48489 C 12.856936,21.097546 11.514469,21.769786 10.745511,21.916571 C 10.469741,21.969214 10.244111,22.059091 10.244111,22.116305 C 10.244111,22.173519 10.625946,23.171801 11.092635,24.334708 C 11.559323,25.497608 11.94116,26.48444 11.94116,26.527668 C 11.94116,26.69307 10.424035,26.596054 9.5823635,26.376824 C 9.0978955,26.250639 8.2155005,25.902642 7.6214855,25.603501 C 7.0274705,25.304359 6.5414595,25.08109 6.5414595,25.107343 C 6.5414595,25.133597 6.9417235,26.158486 7.4309345,27.384868 L 8.3204105,29.61466 L 9.4751065,30.191621 C 10.11019,30.508944 11.01164,30.868855 11.478328,30.991423 C 12.303666,31.208173 13.792485,31.314045 13.792485,31.15598 z M 35.384034,22.652721 C 34.948503,21.560345 34.515987,20.574393 34.422878,20.461702 C 34.163148,20.14737 32.961258,19.580273 31.788091,19.218523 C 30.593417,18.850138 28.983785,18.770022 29.110327,19.085246 C 29.152906,19.191309 29.554142,20.19797 30.001961,21.322266 L 30.816179,23.36644 L 31.776126,23.36644 C 32.81224,23.36644 34.270594,23.766786 35.391289,24.35887 C 35.773121,24.560607 36.105865,24.706131 36.130715,24.682255 C 36.155566,24.658386 35.819558,23.745097 35.384034,22.652721 z M 10.019501,21.938696 C 10.060345,21.832266 9.7176965,20.808248 9.2580595,19.663113 C 8.7984245,18.517972 8.4545135,17.528974 8.4938155,17.465337 C 8.5331165,17.401699 8.6627075,17.349629 8.7817945,17.349629 C 9.2882585,17.349629 10.767384,16.663035 11.63179,16.026694 C 12.552854,15.34865 12.566091,15.344461 12.69881,15.689202 C 13.268252,17.168341 14.317421,19.755307 14.373309,19.818065 C 14.461173,19.916717 15.559748,18.689457 16.753838,17.158682 C 17.265993,16.502123 17.73523,15.995959 17.796586,16.033881 C 17.857944,16.071803 18.275173,17.04578 18.723763,18.198279 C 19.172352,19.350777 19.589728,20.273487 19.651265,20.248739 C 19.712801,20.223998 20.321381,19.50951 21.003666,18.660982 C 21.685949,17.812462 22.423166,16.951897 22.641927,16.748628 L 23.039675,16.379051 L 23.183296,16.748628 C 23.262287,16.951897 23.649215,17.94849 24.043137,18.963278 C 24.437058,19.978065 24.784281,20.833268 24.81474,20.863725 C 24.845198,20.894188 25.20671,20.660871 25.618098,20.345245 C 26.40644,19.740409 27.812157,19.048298 28.260367,19.044313 C 29.003319,19.037705 28.989217,18.852317 28.071035,16.555393 C 27.58423,15.337594 27.171799,14.326424 27.154523,14.308338 C 27.137246,14.290246 26.779215,14.366444 26.358899,14.47765 C 25.412306,14.728113 24.543348,15.167533 23.760718,15.791511 C 23.430852,16.054508 23.118442,16.269133 23.06647,16.268445 C 23.014497,16.267763 22.596926,15.313173 22.138533,14.14714 C 21.680142,12.981099 21.279494,11.996686 21.248207,11.959547 C 21.14495,11.836999 19.797097,13.240744 18.85026,14.456928 C 18.338295,15.114536 17.869995,15.65258 17.809592,15.65258 C 17.74919,15.65258 17.328469,14.711505 16.874661,13.561302 C 16.420849,12.4111 16.008152,11.444439 15.957554,11.413165 C 15.906956,11.381891 15.36897,11.993198 14.762028,12.771624 C 13.660552,14.184313 12.611388,15.30521 12.508532,15.179202 C 12.478636,15.142574 12.084469,14.175375 11.632605,13.029866 C 11.180742,11.884363 10.792925,10.923513 10.770791,10.894644 C 10.748658,10.865782 10.360758,11.117532 9.9087905,11.454091 C 8.8496575,12.242776 8.5030095,12.419853 7.4437995,12.713272 L 6.5719545,12.954791 L 7.4052305,15.030933 C 7.8635325,16.172811 8.2385075,17.204452 8.2385075,17.323464 C 8.2385075,17.498314 8.0427975,17.518893 7.2189525,17.430664 C 6.0774525,17.308423 4.9978975,16.97185 3.7995715,16.364616 C 3.3560045,16.139841 2.9930845,16.014985 2.9930845,16.087157 C 2.9930845,16.525542 4.6025635,20.255497 4.9101415,20.529917 C 5.9235235,21.434058 9.8027095,22.503648 10.019501,21.938696 z M 31.730345,13.476698 L 30.84011,11.255679 L 29.88403,10.750053 C 28.308748,9.9169553 25.517549,9.3315063 25.517549,9.8341823 C 25.517549,9.9433103 25.892488,10.967328 26.350747,12.109772 L 27.183946,14.186949 L 28.192788,14.289006 C 29.446241,14.415818 30.586362,14.75626 31.688635,15.332881 C 32.155323,15.577015 32.555929,15.758977 32.578869,15.73724 C 32.601811,15.715503 32.219975,14.698263 31.730345,13.476698 z M 23.188067,10.419311 C 23.493478,10.265885 24.02106,10.056267 24.360471,9.9534873 C 24.699879,9.8507013 25.059941,9.7410493 25.160605,9.7098023 C 25.28198,9.6721253 25.056741,8.9355393 24.491932,7.5230683 C 24.023498,6.3516123 23.578878,5.3294133 23.503886,5.2515183 C 23.187531,4.9229153 21.281477,5.7386223 19.839884,6.8195543 L 19.37782,7.1660183 L 18.531738,5.0514093 C 18.066392,3.8883723 17.611834,2.9121883 17.521606,2.8821133 C 17.367892,2.8308743 14.905936,5.6823413 14.418826,6.4757873 C 14.21406,6.8093293 14.26165,7.0024623 15.025911,8.9395173 C 15.48201,10.095524 15.895128,11.066027 15.943953,11.096204 C 15.992778,11.126381 16.550047,10.49707 17.182331,9.6977383 C 18.347226,8.2250773 19.296711,7.2107253 19.396642,7.3321553 C 19.441971,7.3872373 20.569084,10.182472 21.057065,11.449997 C 21.191144,11.79826 21.191943,11.798076 21.912021,11.248424 C 22.308434,10.945836 22.882656,10.572737 23.188067,10.419311 z M 28.911646,6.4756173 C 28.911646,6.4345823 28.561255,5.5146993 28.133,4.4314443 C 27.250331,2.1987633 27.077386,2.0000573 25.411097,1.3040713 C 24.365494,0.86733465 22.069069,0.38209665 21.890914,0.56025065 C 21.846017,0.60514865 22.207281,1.6588523 22.693723,2.9018073 L 23.578163,5.1617363 L 24.509286,5.1638003 C 25.481853,5.1659523 27.591067,5.7932883 28.303502,6.2923003 C 28.66722,6.5470543 28.911646,6.6207333 28.911646,6.4756173 z"
         style="opacity:1;fill:#000000;stroke-width:0.992028;stroke-miterlimit:4;stroke-dasharray:none" />
      <path
         id="path4755"
         d=""
         style="opacity:1;fill:#008000;fill-opacity:1;fill-rule:evenodd;stroke:none;stroke-width:0.54870886;stroke-linecap:round;stroke-linejoin:bevel;stroke-miterlimit:4;stroke-dasharray:none;stroke-opacity:1" />
    </g>
  </g>
</svg>
