<?xml version="1.0" encoding="UTF-8" standalone="no"?>
<!-- Created with Inkscape (http://www.inkscape.org/) -->
<svg
   xmlns:dc="http://purl.org/dc/elements/1.1/"
   xmlns:cc="http://creativecommons.org/ns#"
   xmlns:rdf="http://www.w3.org/1999/02/22-rdf-syntax-ns#"
   xmlns:svg="http://www.w3.org/2000/svg"
   xmlns="http://www.w3.org/2000/svg"
   xmlns:xlink="http://www.w3.org/1999/xlink"
   xmlns:sodipodi="http://sodipodi.sourceforge.net/DTD/sodipodi-0.dtd"
   xmlns:inkscape="http://www.inkscape.org/namespaces/inkscape"
   height="48"
   id="svg2"
   inkscape:version="0.46"
   sodipodi:docbase="/home/matthew/media/image/my_pictures/svg"
   sodipodi:docname="stopped.svg"
   sodipodi:version="0.32"
   width="48"
   inkscape:output_extension="org.inkscape.output.svg.inkscape"
   version="1.0">
  <metadata
     id="metadata3">
    <rdf:RDF>
      <cc:Work
         rdf:about="">
        <dc:title>Ampelmaennchen</dc:title>
        <dc:description>Ampelmaennchen are the little men on traffic signals.  These two are in the East German style (inspired by a wikipedia article).</dc:description>
        <dc:subject>
          <rdf:Bag>
            <rdf:li>roadtravel</rdf:li>
            <rdf:li>traffic signal man stop go sign pedestrian</rdf:li>
            <rdf:li>transport</rdf:li>
            <rdf:li>stop</rdf:li>
            <rdf:li>roadsign</rdf:li>
            <rdf:li>go</rdf:li>
            <rdf:li>pedestrian</rdf:li>
            <rdf:li>city</rdf:li>
            <rdf:li>europe</rdf:li>
          </rdf:Bag>
        </dc:subject>
        <dc:publisher>
          <cc:Agent
             rdf:about="http://www.openclipart.org/">
            <dc:title>Open Clip Art Library</dc:title>
          </cc:Agent>
        </dc:publisher>
        <dc:creator>
          <cc:Agent>
            <dc:title>Matthew Gates</dc:title>
          </cc:Agent>
        </dc:creator>
        <dc:rights>
          <cc:Agent>
            <dc:title>Publc Domain</dc:title>
          </cc:Agent>
        </dc:rights>
        <dc:date>2005-07-28</dc:date>
        <dc:format>image/svg+xml</dc:format>
        <dc:type
           rdf:resource="http://purl.org/dc/dcmitype/StillImage" />
        <cc:license
           rdf:resource="http://web.resource.org/cc/PublicDomain" />
        <dc:language>en</dc:language>
      </cc:Work>
      <cc:License
         rdf:about="http://web.resource.org/cc/PublicDomain">
        <cc:permits
           rdf:resource="http://web.resource.org/cc/Reproduction" />
        <cc:permits
           rdf:resource="http://web.resource.org/cc/Distribution" />
        <cc:permits
           rdf:resource="http://web.resource.org/cc/DerivativeWorks" />
      </cc:License>
    </rdf:RDF>
  </metadata>
  <defs
     id="defs4">
    <inkscape:perspective
       sodipodi:type="inkscape:persp3d"
       inkscape:vp_x="0 : 186.02362 : 1"
       inkscape:vp_y="0 : 1000 : 0"
       inkscape:vp_z="524.40942 : 186.02362 : 1"
       inkscape:persp3d-origin="262.20471 : 124.01575 : 1"
       id="perspective36" />
    <radialGradient
       cx="298.12531"
       cy="350.82419"
       fx="298.12531"
       fy="350.82419"
       gradientTransform="matrix(1,0,0,1.112913,0,-39.61257)"
       gradientUnits="userSpaceOnUse"
       id="radialGradient3548"
       inkscape:collect="always"
       r="340.96289"
       xlink:href="#linearGradient3528" />
    <radialGradient
       cx="298.12531"
       cy="350.82419"
       fx="298.12531"
       fy="350.82419"
       gradientTransform="matrix(1,0,0,1.112913,0,-39.61257)"
       gradientUnits="userSpaceOnUse"
       id="radialGradient3546"
       inkscape:collect="always"
       r="340.96289"
       xlink:href="#linearGradient3528" />
    <radialGradient
       cx="298.12531"
       cy="350.82419"
       fx="298.12531"
       fy="350.82419"
       gradientTransform="matrix(1,0,0,1.112913,0,-39.61257)"
       gradientUnits="userSpaceOnUse"
       id="radialGradient3544"
       inkscape:collect="always"
       r="340.96289"
       xlink:href="#linearGradient3528" />
    <radialGradient
       cx="298.12531"
       cy="350.82419"
       fx="298.12531"
       fy="350.82419"
       gradientTransform="matrix(1,0,0,1.112913,0,-39.61257)"
       gradientUnits="userSpaceOnUse"
       id="radialGradient3542"
       inkscape:collect="always"
       r="340.96289"
       xlink:href="#linearGradient3528" />
    <radialGradient
       cx="298.12531"
       cy="350.82419"
       fx="298.12531"
       fy="350.82419"
       gradientTransform="matrix(1,0,0,1.112913,0,-39.61257)"
       gradientUnits="userSpaceOnUse"
       id="radialGradient3540"
       inkscape:collect="always"
       r="340.96289"
       xlink:href="#linearGradient3528" />
    <radialGradient
       cx="298.12531"
       cy="350.82419"
       fx="298.12531"
       fy="350.82419"
       gradientTransform="matrix(1,0,0,1.112913,0,-39.61257)"
       gradientUnits="userSpaceOnUse"
       id="radialGradient3538"
       inkscape:collect="always"
       r="340.96289"
       xlink:href="#linearGradient3528" />
    <radialGradient
       cx="298.12531"
       cy="350.82419"
       fx="298.12531"
       fy="350.82419"
       gradientTransform="matrix(1,0,0,1.112913,0,-39.61257)"
       gradientUnits="userSpaceOnUse"
       id="radialGradient3536"
       inkscape:collect="always"
       r="340.96289"
       xlink:href="#linearGradient3528" />
    <radialGradient
       cx="298.12531"
       cy="350.82419"
       fx="298.12531"
       fy="350.82419"
       gradientTransform="matrix(1,0,0,1.112913,0,-39.61257)"
       gradientUnits="userSpaceOnUse"
       id="radialGradient3534"
       inkscape:collect="always"
       r="340.96289"
       xlink:href="#linearGradient3528" />
    <radialGradient
       cx="298.12531"
       cy="350.82419"
       fx="298.12531"
       fy="350.82419"
       gradientTransform="matrix(1,0,0,1.112913,0,-39.61257)"
       gradientUnits="userSpaceOnUse"
       id="radialGradient3526"
       inkscape:collect="always"
       r="340.96289"
       xlink:href="#linearGradient3528" />
    <linearGradient
       id="linearGradient3528">
      <stop
         id="stop3530"
         offset="0.0000000"
         style="stop-color:#05ff00;stop-opacity:1.0000000;" />
      <stop
         id="stop3532"
         offset="1.0000000"
         style="stop-color:#0d8d0b;stop-opacity:0.79274613;" />
    </linearGradient>
    <radialGradient
       cx="356.63849"
       cy="420.37048"
       fx="356.63849"
       fy="420.37048"
       gradientTransform="matrix(0.420135,0,0,0.457467,94.65933,78.20887)"
       gradientUnits="userSpaceOnUse"
       id="radialGradient2076"
       inkscape:collect="always"
       r="312.88068"
       xlink:href="#linearGradient2070" />
    <linearGradient
       id="linearGradient2070">
      <stop
         id="stop2072"
         offset="0.0000000"
         style="stop-color:#ff0000;stop-opacity:1.0000000;" />
      <stop
         id="stop2074"
         offset="1.0000000"
         style="stop-color:#9a1a00;stop-opacity:1.0000000;" />
    </linearGradient>
  </defs>
  <sodipodi:namedview
     bordercolor="#666666"
     borderopacity="1.0"
     id="base"
     inkscape:current-layer="layer1"
     inkscape:cx="43.777416"
     inkscape:cy="21.108235"
     inkscape:document-units="px"
     inkscape:pageopacity="0.0"
     inkscape:pageshadow="2"
     inkscape:window-height="972"
     inkscape:window-width="1672"
     inkscape:window-x="5"
     inkscape:window-y="49"
     inkscape:zoom="11.271806"
     pagecolor="#ffffff"
     showguides="true"
     showgrid="true">
    <inkscape:grid
       type="xygrid"
       id="grid2409"
       visible="true"
       enabled="true" />
  </sodipodi:namedview>
  <g
     id="layer1"
     inkscape:groupmode="layer"
     inkscape:label="Layer 1">
    <g
       id="g1369"
       inkscape:label="Layer 1"
       transform="matrix(0.1805802,0,0,0.162999,-20.231068,-20.134086)">
      <path
         d="M 237.08507,413.39984 C 228.29817,412.72562 218.52647,410.90872 215.62905,409.4104 L 214.31284,408.72977 L 215.23212,407.75124 C 215.73772,407.21304 217.29306,406.16421 218.68842,405.42049 C 222.35094,403.46839 222.80048,402.90448 222.80048,400.26224 C 222.80048,399.03519 221.57191,390.70427 220.07032,381.74908 C 216.60508,361.08301 214.47255,346.09952 212.31928,327.28909 C 207.53438,285.4893 206.95173,282.28028 202.64362,273.99955 C 199.18594,267.35345 193.79792,262.94256 185.83564,260.23976 C 177.45437,257.39472 166.28344,255.77358 151.37754,255.23916 C 147.33374,255.09418 143.22152,254.77534 142.23926,254.53062 C 140.3939,254.07087 138.80344,252.58862 137.4276,250.04633 C 136.74241,248.78022 136.59983,248.72385 134.08235,248.72385 C 132.63609,248.72385 128.98012,249.12959 125.95796,249.62549 C 120.69411,250.48923 120.39876,250.49658 118.9319,249.80051 C 118.01293,249.36443 116.81206,248.20596 115.92859,246.90323 C 110.5176,238.92444 113.09169,226.12013 120.53588,223.98517 C 121.94102,223.58218 124.25628,224.13159 128.06005,225.77066 C 129.99548,226.60464 131.29463,226.85921 133.65446,226.86686 C 136.8963,226.87738 137.6632,226.61985 140.0339,224.72463 C 143.49457,221.95805 151.09302,220.4745 174.27489,218.03928 C 192.5245,216.12219 191.00511,216.53751 214.18761,207.12892 C 218.80903,205.25332 223.01563,203.31906 223.53561,202.83057 C 224.27089,202.13981 224.48102,201.47684 224.48102,199.84775 C 224.48102,197.84863 224.37051,197.64595 222.0583,195.40453 C 220.7258,194.11282 218.43099,192.0293 216.95872,190.77448 C 213.65463,187.95839 211.42064,184.4558 205.80237,173.79011 C 200.1841,163.12441 201.24463,164.3697 191.39561,160.4397 C 185.18631,157.96204 183.30779,156.99943 183.30779,156.29527 C 183.30779,155.15517 188.97256,153.35304 198.35051,151.50973 C 206.79185,149.85052 207.29399,149.58939 214.18771,143.27384 C 227.34294,131.22193 237.27783,126.67453 248.71554,127.46975 C 259.5499,128.22302 270.35844,133.66613 280.35897,142.46174 C 290.35951,151.25736 290.24865,150.94276 299.31424,153.1117 C 305.80978,154.66576 310.03134,156.04865 310.96937,156.92964 C 311.44261,157.37411 311.22725,157.64878 309.70897,158.53713 C 308.70182,159.12642 305.56081,160.59437 302.72889,161.79925 C 299.89697,163.00413 296.85624,164.6094 295.97173,165.36652 C 294.86161,166.31676 293.49987,168.42108 291.57506,172.1608 C 286.45026,182.11783 282.35071,186.95715 274.68959,192.09345 C 268.5102,196.23633 267.75492,197.0651 267.75492,199.70306 C 267.75492,201.65978 269.07465,203.08084 272.2063,204.49613 C 279.86985,207.95954 298.30222,215.60115 300.73552,216.32363 C 304.67193,217.49241 307.10018,217.82685 320.90199,219.10109 C 341.31274,220.98551 348.40012,222.17574 351.57184,224.25166 C 353.72533,225.66114 356.65056,225.9189 360.67751,225.05399 C 367.68977,223.54789 369.57295,223.72577 371.96763,226.12045 C 375.93681,230.08963 377.03757,236.79524 374.81602,243.47217 C 373.75518,246.66059 372.36827,248.49257 370.16399,249.61711 C 367.87056,250.78712 365.85799,250.5329 360.00282,248.33361 C 357.49831,247.39287 355.04943,246.62699 354.56085,246.63166 C 353.9638,246.63736 352.70814,247.8047 350.73157,250.19155 C 347.29542,254.34096 348.34109,254.02876 336.65705,254.39373 C 322.1829,254.84585 311.30086,256.05541 306.16416,257.78309 C 300.26102,259.76854 296.09752,263.03078 294.12373,267.21722 C 291.5751,272.62282 289.75357,283.42395 287.92548,303.9716 C 285.63095,329.76116 282.50506,350.67376 276.34097,381.47255 C 274.60825,390.13016 273.07429,398.58904 272.93221,400.27007 L 272.67382,403.32648 L 274.52078,404.10752 C 275.53658,404.53709 277.26262,405.21484 278.35644,405.61363 C 279.45026,406.01242 280.76419,406.67798 281.27629,407.09265 L 282.2074,407.8466 L 280.91414,408.51537 C 277.87967,410.08455 267.12823,412.1941 259.56229,412.96218 C 251.99636,413.73026 242.50246,413.81552 237.08507,413.39984 z"
         id="path1371"
         sodipodi:nodetypes="ccccssssssssssssssssssssssszssssszsssssssssssssssssssssssscccsccccc"
         style="fill:url(#radialGradient2076);fill-opacity:1" />
    </g>
  </g>
</svg>
