<?xml version="1.0" encoding="UTF-8" standalone="no"?>
<svg
   xmlns:dc="http://purl.org/dc/elements/1.1/"
   xmlns:cc="http://creativecommons.org/ns#"
   xmlns:rdf="http://www.w3.org/1999/02/22-rdf-syntax-ns#"
   xmlns:svg="http://www.w3.org/2000/svg"
   xmlns="http://www.w3.org/2000/svg"
   xmlns:xlink="http://www.w3.org/1999/xlink"
   xmlns:sodipodi="http://sodipodi.sourceforge.net/DTD/sodipodi-0.dtd"
   xmlns:inkscape="http://www.inkscape.org/namespaces/inkscape"
   xml:space="preserve"
   width="100%"
   height="100%"
   viewBox="0 0 600 600"
   id="svg2"
   sodipodi:version="0.32"
   inkscape:version="0.46"
   sodipodi:docname="svg.svg"
   inkscape:output_extension="org.inkscape.output.svg.inkscape"><sodipodi:namedview
   inkscape:window-height="908"
   inkscape:window-width="1116"
   inkscape:pageshadow="2"
   inkscape:pageopacity="0.0"
   guidetolerance="10.0"
   gridtolerance="10.0"
   objecttolerance="10.0"
   borderopacity="1.0"
   bordercolor="#666666"
   pagecolor="#ffffff"
   id="base"
   showgrid="false"
   inkscape:zoom="0.82333333"
   inkscape:cx="300"
   inkscape:cy="300"
   inkscape:window-x="180"
   inkscape:window-y="158"
   inkscape:current-layer="svg2" />
 <title
   id="title4">SVG Icon Basic</title>
 <desc
   id="desc6">Designed for the SVG Logo Contest in 2006 by Harvey Rayner. It is available under the Creative Commons license for those who have an SVG product or who are using SVG on their site.</desc>
 
   <metadata
   id="metadata8">
      <title
   id="title10">Creative Commons License</title>
      <rdf:RDF>
         <cc:Work
   rdf:about="">
            <cc:license
   rdf:resource="http://creativecommons.org/licenses/by-nd/2.5/" />
            <dc:type
   rdf:resource="http://purl.org/dc/dcmitype/StillImage" />
         <dc:format>image/svg+xml</dc:format></cc:Work>
         <cc:License
   rdf:about="http://creativecommons.org/licenses/by-nd/2.5/">
            <cc:permits
   rdf:resource="http://web.resource.org/cc/Reproduction" /><cc:permits
   rdf:resource="http://web.resource.org/cc/Distribution" />
            <cc:requires
   rdf:resource="http://web.resource.org/cc/Notice" />
            <cc:requires
   rdf:resource="http://web.resource.org/cc/Attribution" />
         </cc:License>
      </rdf:RDF> 
   </metadata>

 <defs
   id="defs12"><inkscape:perspective
   sodipodi:type="inkscape:persp3d"
   inkscape:vp_x="0 : 0.5 : 1"
   inkscape:vp_y="0 : 1000 : 0"
   inkscape:vp_z="1 : 0.5 : 1"
   inkscape:persp3d-origin="0.5 : 0.33333333 : 1"
   id="perspective88" />
    <linearGradient
   id="id0"
   gradientUnits="userSpaceOnUse"
   x1="300"
   y1="600"
   x2="300"
   y2="0">
     <stop
   offset="0"
   stop-color="#F71E3B"
   id="stop15"
   style="stop-color:#f7e01e;stop-opacity:1;" />
     <stop
   offset="0.501961"
   stop-color="#F71E3B"
   id="stop17" />
     <stop
   offset="0.858824"
   stop-color="#CC172F"
   id="stop19" />
     <stop
   offset="1"
   stop-color="#870A1A"
   id="stop21" />
    </linearGradient>
    <linearGradient
   id="id1"
   gradientUnits="userSpaceOnUse"
   x1="300.247"
   y1="585.416"
   x2="300.247"
   y2="352.174">
     <stop
   offset="0"
   stop-color="white"
   id="stop24" />
     <stop
   offset="0.458824"
   stop-color="#F71E3B"
   id="stop26" />
     <stop
   offset="0.901961"
   stop-color="black"
   id="stop28" />
     <stop
   offset="1"
   stop-color="black"
   id="stop30" />
    </linearGradient>
    <linearGradient
   id="id2"
   gradientUnits="userSpaceOnUse"
   x1="300"
   y1="553.42"
   x2="300"
   y2="300">
     <stop
   offset="0"
   stop-color="#FFB0BB"
   id="stop33" />
     <stop
   offset="0.101961"
   stop-color="#F5566B"
   id="stop35" />
     <stop
   offset="0.239216"
   stop-color="#5E010D"
   id="stop37" />
     <stop
   offset="1"
   stop-color="#290005"
   id="stop39" />
    </linearGradient>
    <linearGradient
   id="id3"
   gradientUnits="userSpaceOnUse"
   x1="300"
   y1="466.034"
   x2="300"
   y2="314.27">
     <stop
   offset="0"
   stop-color="#D45162"
   id="stop42" />
     <stop
   offset="0.560784"
   stop-color="#F71E3B"
   id="stop44" />
     <stop
   offset="1"
   stop-color="#FFB0BB"
   id="stop46" />
    </linearGradient>
 
     

   

   

   

   

      
    
    


    

 <linearGradient
   inkscape:collect="always"
   xlink:href="#id3"
   id="linearGradient2463"
   gradientUnits="userSpaceOnUse"
   x1="300"
   y1="466.034"
   x2="300"
   y2="314.27"
   gradientTransform="matrix(0.981872,0,0,0.981872,5.972808,7.2602574)" /><linearGradient
   inkscape:collect="always"
   xlink:href="#id2"
   id="linearGradient2466"
   gradientUnits="userSpaceOnUse"
   x1="300"
   y1="553.42"
   x2="300"
   y2="300"
   gradientTransform="matrix(0.981872,0,0,0.981872,5.972808,7.2602574)" /><linearGradient
   inkscape:collect="always"
   xlink:href="#id1"
   id="linearGradient2480"
   gradientUnits="userSpaceOnUse"
   x1="300.247"
   y1="585.416"
   x2="300.247"
   y2="352.174"
   gradientTransform="matrix(0.981872,0,0,0.981872,5.972808,7.2602574)" /><linearGradient
   inkscape:collect="always"
   xlink:href="#id0"
   id="linearGradient3274"
   x1="0"
   y1="300"
   x2="600"
   y2="300"
   gradientUnits="userSpaceOnUse" /><filter
   inkscape:collect="always"
   id="filter3290"><feGaussianBlur
     inkscape:collect="always"
     stdDeviation="3.015"
     id="feGaussianBlur3292" /></filter></defs>

 <g
   id="g3294"><rect
     transform="matrix(0.981872,0,0,0.981872,5.972808,7.2602574)"
     id="background"
     x="0"
     y="0"
     width="600"
     height="600"
     style="fill:url(#linearGradient3274);fill-opacity:1;stroke:#000000;stroke-width:3;stroke-miterlimit:4;stroke-dasharray:none;stroke-opacity:1;filter:url(#filter3290)" /><g
     transform="matrix(0.981872,0,0,0.981872,5.972808,7.2602574)"
     id="node_outline"
     style="fill:#000000">
    <circle
   cx="300"
   cy="300"
   r="167"
   id="circle52"
   sodipodi:cx="300"
   sodipodi:cy="300"
   sodipodi:rx="167"
   sodipodi:ry="167" />
    <circle
   cx="157.29201"
   cy="157.293"
   r="83.596901"
   id="circle54"
   sodipodi:cx="157.29201"
   sodipodi:cy="157.293"
   sodipodi:rx="83.596901"
   sodipodi:ry="83.596901" />
    <circle
   cx="300"
   cy="98.1819"
   r="83.596901"
   id="circle56"
   sodipodi:cx="300"
   sodipodi:cy="98.1819"
   sodipodi:rx="83.596901"
   sodipodi:ry="83.596901" />
    <circle
   cx="442.70801"
   cy="157.293"
   r="83.596901"
   id="circle58"
   sodipodi:cx="442.70801"
   sodipodi:cy="157.293"
   sodipodi:rx="83.596901"
   sodipodi:ry="83.596901" />
    <circle
   cx="501.819"
   cy="300"
   r="83.595398"
   id="circle60"
   sodipodi:cx="501.819"
   sodipodi:cy="300"
   sodipodi:rx="83.595398"
   sodipodi:ry="83.595398" />
    <circle
   cx="98.180603"
   cy="300"
   r="83.596497"
   id="circle62"
   sodipodi:cx="98.180603"
   sodipodi:cy="300"
   sodipodi:rx="83.596497"
   sodipodi:ry="83.596497" />
   </g><rect
     id="bottom_grad"
     x="44.33445"
     y="353.05103"
     width="512.88385"
     height="229.01379"
     style="fill:url(#linearGradient2480)" /><g
     transform="matrix(0.981872,0,0,0.981872,5.972808,7.2602574)"
     id="connectors"
     style="fill:none;stroke:#ffffff;stroke-width:63.99240112">
    <line
   x1="300"
   y1="98.1819"
   x2="300"
   y2="300"
   id="line66" />
    <line
   x1="157.29201"
   y1="157.29401"
   x2="300"
   y2="300"
   id="line68" />
    <line
   x1="442.707"
   y1="157.293"
   x2="300"
   y2="300"
   id="line70" />
   </g><g
     transform="matrix(0.981872,0,0,0.981872,5.972808,7.2602574)"
     id="nodes"
     style="fill:#ffffff">
    <circle
   cx="300"
   cy="98.18"
   r="45.25"
   id="circle73"
   sodipodi:cx="300"
   sodipodi:cy="98.18"
   sodipodi:rx="45.25"
   sodipodi:ry="45.25" />
    <circle
   cx="442.70999"
   cy="157.28999"
   r="45.25"
   id="circle75"
   sodipodi:cx="442.70999"
   sodipodi:cy="157.28999"
   sodipodi:rx="45.25"
   sodipodi:ry="45.25" />
    <circle
   cx="501.82001"
   cy="300"
   r="45.25"
   id="circle77"
   sodipodi:cx="501.82001"
   sodipodi:cy="300"
   sodipodi:rx="45.25"
   sodipodi:ry="45.25" />
    <circle
   cx="98.18"
   cy="300"
   r="45.25"
   id="circle79"
   sodipodi:cx="98.18"
   sodipodi:cy="300"
   sodipodi:rx="45.25"
   sodipodi:ry="45.25" />
    <circle
   cx="157.28999"
   cy="157.28999"
   r="45.25"
   id="circle81"
   sodipodi:cx="157.28999"
   sodipodi:cy="157.28999"
   sodipodi:rx="45.25"
   sodipodi:ry="45.25" />
   </g><rect
     id="svg_textbox_outline"
     x="70.957809"
     y="270.40588"
     width="459.1528"
     height="311.65894"
     style="fill:#ffffff" /><rect
     id="svg_textbox_background"
     x="102.3736"
     y="301.82187"
     width="396.32184"
     height="248.826"
     style="fill:url(#linearGradient2466)" /><path
     id="svg_textbox_reflection"
     d="M 138.34094,315.83416 L 462.72887,315.83416 C 474.80482,315.83416 484.68304,325.71365 484.68304,337.78832 L 484.68304,450.06932 C 360.25433,464.84727 262.41372,390.83789 132.19589,390.83789 C 126.90188,390.83789 121.63458,390.92835 116.38579,391.08375 L 116.38579,337.78872 C 116.38579,325.71395 126.26529,315.83455 138.34113,315.83455 L 138.34094,315.83416 z"
     style="fill:url(#linearGradient2463)" /><path
     id="svg_text"
     d="M 356.50013,335.1898 L 316.92323,526.31119 L 284.13165,526.31119 L 244.55121,335.1898 L 277.34976,335.1898 L 300.52165,447.12615 L 323.70168,335.1898 L 356.50023,335.1898 L 356.50013,335.1898 z M 412.48441,414.35991 L 468.46291,414.35991 L 468.46291,470.33035 L 468.47218,470.33035 C 468.47218,501.24664 443.40764,526.31119 412.49134,526.31119 C 381.57965,526.31119 356.51511,501.24664 356.50706,470.33614 L 356.50706,470.33034 L 356.50706,391.17299 L 356.50009,391.17299 C 356.50009,360.26013 381.57269,335.18979 412.48437,335.18979 C 443.39725,335.18979 468.46287,360.26013 468.46287,391.17299 L 435.66549,391.17299 C 435.66549,378.37576 425.28857,367.99531 412.48437,367.99531 C 399.68832,367.99531 389.30906,378.37576 389.30906,391.17299 L 389.30906,470.33613 C 389.31254,483.12874 399.69186,493.50684 412.48437,493.50684 C 425.28857,493.50684 435.66549,483.13797 435.66549,470.34192 L 435.66549,470.33033 L 435.66549,447.1608 L 412.48437,447.1608 L 412.48437,414.35998 L 412.48441,414.35991 z M 389.3091,470.33614 L 389.3091,470.33614 z M 148.99199,430.75226 C 138.86673,420.61885 132.5962,406.62364 132.5962,391.16839 C 132.5962,360.26014 157.66771,335.1899 188.57587,335.1899 C 219.48638,335.1899 244.55092,360.26023 244.55092,391.16839 L 211.76051,391.16839 C 211.76051,378.36075 201.37771,367.98138 188.57587,367.98138 C 175.76931,367.98138 165.38542,378.36065 165.38542,391.16839 C 165.38542,397.56643 167.97734,403.35568 172.16616,407.55259 L 172.1766,407.55259 C 176.37239,411.75417 182.1697,414.34957 188.57583,414.34957 L 188.57583,414.35421 C 204.02882,414.35421 218.02404,420.62469 228.15509,430.75343 L 228.15509,430.75343 C 238.28271,440.88458 244.55088,454.87861 244.55088,470.33613 C 244.55088,501.24663 219.48634,526.31118 188.57583,526.31118 C 157.66757,526.31118 132.59616,501.24663 132.59616,470.33613 L 165.38539,470.33613 C 165.38539,483.13797 175.76927,493.52078 188.57583,493.52078 C 201.37767,493.52078 211.76047,483.13797 211.76047,470.33613 C 211.76047,463.93693 209.16972,458.14884 204.9809,453.95074 L 204.96466,453.95074 C 200.77236,449.75149 194.97735,447.15261 188.57584,447.15261 L 188.57584,447.15261 C 173.11823,447.15261 159.1242,440.87981 148.99196,430.7522 L 148.99196,430.7522 L 148.99199,430.75226 z"
     style="fill:#ffffff" /></g>
</svg>