<?xml version="1.0" encoding="UTF-8" standalone="no"?>
<!-- Generator: Adobe Illustrator 12.0.0, SVG Export Plug-In . SVG Version: 6.00 Build 51448)  -->
<svg
   xmlns:dc="http://purl.org/dc/elements/1.1/"
   xmlns:cc="http://creativecommons.org/ns#"
   xmlns:rdf="http://www.w3.org/1999/02/22-rdf-syntax-ns#"
   xmlns:svg="http://www.w3.org/2000/svg"
   xmlns="http://www.w3.org/2000/svg"
   xmlns:xlink="http://www.w3.org/1999/xlink"
   xmlns:sodipodi="http://sodipodi.sourceforge.net/DTD/sodipodi-0.dtd"
   xmlns:inkscape="http://www.inkscape.org/namespaces/inkscape"
   height="48"
   id="Layer_1"
   inkscape:version="0.46"
   sodipodi:docbase="F:\openclip\svg da inviare"
   sodipodi:docname="unlocked.svg"
   sodipodi:version="0.32"
   space="preserve"
   style="overflow:visible"
   version="1.0"
   viewBox="0 0 107.373 138.498"
   width="48"
   inkscape:output_extension="org.inkscape.output.svg.inkscape">
  <sodipodi:namedview
     bordercolor="#666666"
     borderopacity="1.0"
     id="base"
     inkscape:current-layer="Layer_1"
     inkscape:cx="23.819881"
     inkscape:cy="25.756926"
     inkscape:pageopacity="0.0"
     inkscape:pageshadow="2"
     inkscape:window-height="1125"
     inkscape:window-width="1919"
     inkscape:window-x="1"
     inkscape:window-y="49"
     inkscape:zoom="15.848585"
     pagecolor="#ffffff"
     showgrid="true">
    <inkscape:grid
       id="grid2408"
       type="xygrid" />
  </sodipodi:namedview>
  <metadata
     id="metadata3">
    <rdf:RDF>
      <cc:Work
         rdf:about="">
        <dc:title>Lucchetto ottone</dc:title>
        <dc:description />
        <dc:subject>
          <rdf:Bag>
            <rdf:li>animal</rdf:li>
          </rdf:Bag>
        </dc:subject>
        <dc:publisher>
          <cc:Agent
             rdf:about="http://www.openclipart.org/">
            <dc:title>Open Clip Art Library</dc:title>
          </cc:Agent>
        </dc:publisher>
        <dc:creator>
          <cc:Agent>
            <dc:title>Architetto Francesco Rollandin</dc:title>
          </cc:Agent>
        </dc:creator>
        <dc:rights>
          <cc:Agent>
            <dc:title>Architetto Francesco Rollandin</dc:title>
          </cc:Agent>
        </dc:rights>
        <dc:date />
        <dc:format>image/svg+xml</dc:format>
        <dc:type
           rdf:resource="http://purl.org/dc/dcmitype/StillImage" />
        <cc:license
           rdf:resource="http://web.resource.org/cc/PublicDomain" />
        <dc:language>en</dc:language>
      </cc:Work>
      <cc:License
         rdf:about="http://web.resource.org/cc/PublicDomain">
        <cc:permits
           rdf:resource="http://web.resource.org/cc/Reproduction" />
        <cc:permits
           rdf:resource="http://web.resource.org/cc/Distribution" />
        <cc:permits
           rdf:resource="http://web.resource.org/cc/DerivativeWorks" />
      </cc:License>
    </rdf:RDF>
  </metadata>
  <defs
     id="defs61">
    <linearGradient
       id="linearGradient4335"
       inkscape:collect="always">
      <stop
         id="stop4337"
         offset="0"
         style="stop-color:#f40000;stop-opacity:1;" />
      <stop
         id="stop4339"
         offset="1"
         style="stop-color:#f40000;stop-opacity:0;" />
    </linearGradient>
    <linearGradient
       id="linearGradient4323">
      <stop
         id="stop4325"
         offset="0"
         style="stop-color:#ffe7bf;stop-opacity:1;" />
      <stop
         id="stop4327"
         offset="1"
         style="stop-color:#ffc70b;stop-opacity:0.35840708;" />
    </linearGradient>
    <inkscape:perspective
       id="perspective37"
       inkscape:persp3d-origin="53.686501 : 46.166 : 1"
       inkscape:vp_z="107.373 : 69.249001 : 1"
       inkscape:vp_y="0 : 1000 : 0"
       inkscape:vp_x="0 : 69.249001 : 1"
       sodipodi:type="inkscape:persp3d" />
    <linearGradient
       y2="461.6665"
       x2="-256.1553"
       y1="461.6665"
       x1="-258.10641"
       gradientTransform="matrix(76.2002,76.2007,76.2007,-76.2002,-15540.281,54801.852)"
       gradientUnits="userSpaceOnUse"
       id="linearGradient2442"
       xlink:href="#XMLID_4_"
       inkscape:collect="always" />
    <linearGradient
       y2="94.121902"
       x2="103.5597"
       y1="96.978996"
       x1="7.3916001"
       gradientUnits="userSpaceOnUse"
       id="linearGradient2444"
       xlink:href="#XMLID_5_"
       inkscape:collect="always" />
    <linearGradient
       y2="461.6235"
       x2="-252.8316"
       y1="461.6235"
       x1="-254.83591"
       gradientTransform="matrix(0,126.6817,126.6817,0,-58425.73,32328.262)"
       gradientUnits="userSpaceOnUse"
       id="linearGradient2446"
       xlink:href="#XMLID_6_"
       inkscape:collect="always" />
    <linearGradient
       y2="461.6665"
       x2="-256.1553"
       y1="461.6665"
       x1="-258.10641"
       gradientTransform="matrix(76.2002,76.2007,76.2007,-76.2002,-15540.281,54801.852)"
       gradientUnits="userSpaceOnUse"
       id="linearGradient2478"
       xlink:href="#XMLID_4_"
       inkscape:collect="always" />
    <linearGradient
       y2="94.121902"
       x2="103.5597"
       y1="96.978996"
       x1="7.3916001"
       gradientUnits="userSpaceOnUse"
       id="linearGradient2480"
       xlink:href="#XMLID_5_"
       inkscape:collect="always" />
    <linearGradient
       y2="461.6235"
       x2="-252.8316"
       y1="461.6235"
       x1="-254.83591"
       gradientTransform="matrix(0,126.6817,126.6817,0,-58425.73,32328.262)"
       gradientUnits="userSpaceOnUse"
       id="linearGradient2482"
       xlink:href="#XMLID_6_"
       inkscape:collect="always" />
    <linearGradient
       gradientTransform="matrix(76.2002,76.2007,76.2007,-76.2002,-15540.281,54801.852)"
       gradientUnits="userSpaceOnUse"
       id="XMLID_4_"
       x1="-258.10641"
       x2="-256.1553"
       y1="461.6665"
       y2="461.6665">
      <stop
         id="stop12"
         offset="0"
         style="stop-color:#ffffff" />
      <stop
         id="stop14"
         offset="1"
         style="stop-color:#0a0a0a" />
    </linearGradient>
    <linearGradient
       gradientUnits="userSpaceOnUse"
       id="XMLID_5_"
       x1="7.3916001"
       x2="103.5597"
       y1="96.978996"
       y2="94.121902">
      <stop
         id="stop29"
         offset="0"
         style="stop-color:#ffed44" />
      <stop
         id="stop31"
         offset="0.3017"
         style="stop-color:#ffea40" />
      <stop
         id="stop33"
         offset="0.5348"
         style="stop-color:#ffe235" />
      <stop
         id="stop35"
         offset="0.7449"
         style="stop-color:#ffd324" />
      <stop
         id="stop37"
         offset="0.9404"
         style="stop-color:#f2bf0b" />
      <stop
         id="stop39"
         offset="1"
         style="stop-color:#ecb700" />
    </linearGradient>
    <linearGradient
       gradientTransform="matrix(0,126.6817,126.6817,0,-58425.73,32328.262)"
       gradientUnits="userSpaceOnUse"
       id="XMLID_6_"
       x1="-254.83591"
       x2="-252.8316"
       y1="461.6235"
       y2="461.6235">
      <stop
         id="stop54"
         offset="0"
         style="stop-color:#f8a000" />
      <stop
         id="stop56"
         offset="1"
         style="stop-color:#b18500" />
    </linearGradient>
    <linearGradient
       y2="461.6235"
       x2="-252.8316"
       y1="461.6235"
       x1="-254.83591"
       gradientTransform="matrix(0,121.72001,121.72001,0,-56135.29,31064.786)"
       gradientUnits="userSpaceOnUse"
       id="linearGradient2498"
       xlink:href="#XMLID_6_"
       inkscape:collect="always" />
    <linearGradient
       gradientTransform="matrix(0.9608334,0,0,0.9608334,2.1030667,2.712204)"
       y2="94.121902"
       x2="103.5597"
       y1="96.978996"
       x1="7.3916001"
       gradientUnits="userSpaceOnUse"
       id="linearGradient2506"
       xlink:href="#XMLID_5_"
       inkscape:collect="always" />
    <linearGradient
       y2="461.6665"
       x2="-256.1553"
       y1="461.6665"
       x1="-258.10641"
       gradientTransform="matrix(73.215697,73.216178,73.216178,-73.215697,-14929.518,52658.162)"
       gradientUnits="userSpaceOnUse"
       id="linearGradient2514"
       xlink:href="#XMLID_4_"
       inkscape:collect="always" />
    <linearGradient
       y2="461.6235"
       x2="-252.8316"
       y1="461.6235"
       x1="-254.83591"
       gradientTransform="matrix(0,121.72001,121.72001,0,-56135.29,31064.786)"
       gradientUnits="userSpaceOnUse"
       id="linearGradient2498-736"
       xlink:href="#XMLID_6_-600"
       inkscape:collect="always" />
    <linearGradient
       gradientTransform="matrix(0,126.6817,126.6817,0,-58425.73,32328.262)"
       gradientUnits="userSpaceOnUse"
       id="XMLID_6_-600"
       x1="-254.83591"
       x2="-252.8316"
       y1="461.6235"
       y2="461.6235">
      <stop
         id="stop2547"
         offset="0"
         style="stop-color:#f80000" />
      <stop
         id="stop2549"
         offset="1"
         style="stop-color:#b10000" />
    </linearGradient>
    <linearGradient
       gradientTransform="matrix(0.9608334,0,0,0.9608334,2.1030667,2.712204)"
       y2="94.121902"
       x2="103.5597"
       y1="96.978996"
       x1="7.3916001"
       gradientUnits="userSpaceOnUse"
       id="linearGradient2506-490"
       xlink:href="#XMLID_5_-680"
       inkscape:collect="always" />
    <linearGradient
       gradientUnits="userSpaceOnUse"
       id="XMLID_5_-680"
       x1="7.3916001"
       x2="103.5597"
       y1="96.978996"
       y2="94.121902">
      <stop
         id="stop2553"
         offset="0"
         style="stop-color:#ff0044" />
      <stop
         id="stop2555"
         offset="0.3017"
         style="stop-color:#ff0040" />
      <stop
         id="stop2557"
         offset="0.5348"
         style="stop-color:#ff0035" />
      <stop
         id="stop2559"
         offset="0.7449"
         style="stop-color:#ff0024" />
      <stop
         id="stop2561"
         offset="0.9404"
         style="stop-color:#f2000b" />
      <stop
         id="stop2563"
         offset="1"
         style="stop-color:#ec0000" />
    </linearGradient>
    <linearGradient
       gradientTransform="matrix(0,126.6817,126.6817,0,-58425.73,32328.262)"
       gradientUnits="userSpaceOnUse"
       id="XMLID_6_-600-614"
       x1="-254.83591"
       x2="-252.8316"
       y1="461.6235"
       y2="461.6235">
      <stop
         id="stop3157"
         offset="0"
         style="stop-color:#ff0000" />
      <stop
         id="stop3159"
         offset="1"
         style="stop-color:#c50000" />
    </linearGradient>
    <linearGradient
       gradientUnits="userSpaceOnUse"
       id="XMLID_5_-680-814"
       x1="7.3916001"
       x2="103.5597"
       y1="96.978996"
       y2="94.121902">
      <stop
         id="stop3163"
         offset="0"
         style="stop-color:#ff004c" />
      <stop
         id="stop3165"
         offset="0.3017"
         style="stop-color:#ff0047" />
      <stop
         id="stop3167"
         offset="0.5348"
         style="stop-color:#ff003b" />
      <stop
         id="stop3169"
         offset="0.7449"
         style="stop-color:#ff0028" />
      <stop
         id="stop3171"
         offset="0.9404"
         style="stop-color:#ff000c" />
      <stop
         id="stop3173"
         offset="1"
         style="stop-color:#ff0000" />
    </linearGradient>
    <filter
       id="filter4283"
       inkscape:collect="always">
      <feGaussianBlur
         id="feGaussianBlur4285"
         stdDeviation="0.91389035"
         inkscape:collect="always" />
    </filter>
    <filter
       id="filter4287"
       inkscape:collect="always">
      <feGaussianBlur
         id="feGaussianBlur4289"
         stdDeviation="0.91389035"
         inkscape:collect="always" />
    </filter>
    <filter
       id="filter4303"
       inkscape:collect="always">
      <feGaussianBlur
         id="feGaussianBlur4305"
         stdDeviation="0.91389035"
         inkscape:collect="always" />
    </filter>
    <filter
       height="2.57722"
       y="-0.78861001"
       width="3.1077972"
       x="-1.0538986"
       id="filter4307"
       inkscape:collect="always">
      <feGaussianBlur
         id="feGaussianBlur4309"
         stdDeviation="0.91389035"
         inkscape:collect="always" />
    </filter>
    <filter
       height="1.1236013"
       y="-0.061800627"
       width="1.2390616"
       x="-0.11953079"
       id="filter4311"
       inkscape:collect="always">
      <feGaussianBlur
         id="feGaussianBlur4313"
         stdDeviation="1.1744686"
         inkscape:collect="always" />
    </filter>
    <filter
       height="1.252551"
       y="-0.1262755"
       width="1.0683391"
       x="-0.034169536"
       id="filter4315"
       inkscape:collect="always">
      <feGaussianBlur
         id="feGaussianBlur4317"
         stdDeviation="1.1744686"
         inkscape:collect="always" />
    </filter>
    <filter
       id="filter4319"
       inkscape:collect="always">
      <feGaussianBlur
         id="feGaussianBlur4321"
         stdDeviation="1.1744686"
         inkscape:collect="always" />
    </filter>
    <radialGradient
       gradientUnits="userSpaceOnUse"
       gradientTransform="matrix(1,0,0,1.9341355,-72.784146,-75.575338)"
       r="11.790789"
       fy="80.904045"
       fx="86.729874"
       cy="80.904045"
       cx="86.729874"
       id="radialGradient4329"
       xlink:href="#linearGradient4323"
       inkscape:collect="always" />
    <radialGradient
       gradientUnits="userSpaceOnUse"
       gradientTransform="matrix(1,0,0,0.2705951,-10.00869,85.089645)"
       r="41.246162"
       fy="116.65626"
       fx="53.409794"
       cy="116.65626"
       cx="53.409794"
       id="radialGradient4331"
       xlink:href="#linearGradient4323"
       inkscape:collect="always" />
    <radialGradient
       gradientUnits="userSpaceOnUse"
       gradientTransform="matrix(1,0,0,0.893233,-9.7683441,8.6584558)"
       r="26.06027"
       fy="81.096741"
       fx="37.983555"
       cy="81.096741"
       cx="37.983555"
       id="radialGradient4333"
       xlink:href="#linearGradient4323"
       inkscape:collect="always" />
    <linearGradient
       gradientUnits="userSpaceOnUse"
       y2="94.822889"
       x2="105.30008"
       y1="94.822889"
       x1="1.0334997"
       id="linearGradient4341"
       xlink:href="#linearGradient4335"
       inkscape:collect="always" />
    <linearGradient
       y2="461.6665"
       x2="-256.1553"
       y1="461.6665"
       x1="-258.10641"
       gradientTransform="matrix(73.215697,73.216178,73.216178,-73.215697,-14929.518,52658.162)"
       gradientUnits="userSpaceOnUse"
       id="linearGradient2485"
       xlink:href="#XMLID_4_"
       inkscape:collect="always" />
    <linearGradient
       gradientTransform="matrix(76.2002,76.2007,76.2007,-76.2002,-15540.281,54801.852)"
       gradientUnits="userSpaceOnUse"
       id="XMLID_4_-236"
       x1="-258.10641"
       x2="-256.1553"
       y1="461.6665"
       y2="461.6665">
      <stop
         id="stop2571"
         offset="0"
         style="stop-color:#ffffff" />
      <stop
         id="stop2573"
         offset="1"
         style="stop-color:#0a0a0a" />
    </linearGradient>
    <linearGradient
       id="linearGradient4323-1">
      <stop
         id="stop3560"
         offset="0"
         style="stop-color:#00e7bf;stop-opacity:1;" />
      <stop
         id="stop3562"
         offset="1"
         style="stop-color:#00c70b;stop-opacity:0.35840708;" />
    </linearGradient>
    <linearGradient
       id="linearGradient4323-325">
      <stop
         id="stop3566"
         offset="0"
         style="stop-color:#00e7bf;stop-opacity:1;" />
      <stop
         id="stop3568"
         offset="1"
         style="stop-color:#00c70b;stop-opacity:0.35840708;" />
    </linearGradient>
    <linearGradient
       id="linearGradient4323-760">
      <stop
         id="stop3572"
         offset="0"
         style="stop-color:#00e7bf;stop-opacity:1;" />
      <stop
         id="stop3574"
         offset="1"
         style="stop-color:#00c70b;stop-opacity:0.35840708;" />
    </linearGradient>
    <linearGradient
       id="linearGradient4323-760-50">
      <stop
         id="stop4115"
         offset="0"
         style="stop-color:#00ffd6;stop-opacity:1;" />
      <stop
         id="stop4117"
         offset="1"
         style="stop-color:#00e30b;stop-opacity:0.35840708;" />
    </linearGradient>
    <linearGradient
       id="linearGradient4323-325-465">
      <stop
         id="stop4121"
         offset="0"
         style="stop-color:#00ffd6;stop-opacity:1;" />
      <stop
         id="stop4123"
         offset="1"
         style="stop-color:#00e30b;stop-opacity:0.35840708;" />
    </linearGradient>
    <linearGradient
       id="linearGradient4323-1-693">
      <stop
         id="stop4127"
         offset="0"
         style="stop-color:#00ffd6;stop-opacity:1;" />
      <stop
         id="stop4129"
         offset="1"
         style="stop-color:#00e30b;stop-opacity:0.35840708;" />
    </linearGradient>
    <linearGradient
       inkscape:collect="always"
       xlink:href="#XMLID_4_-236-753"
       id="linearGradient2511-603"
       gradientUnits="userSpaceOnUse"
       gradientTransform="matrix(73.215697,73.216178,73.216178,-73.215697,-14929.518,52658.162)"
       x1="-258.10641"
       y1="461.6665"
       x2="-256.1553"
       y2="461.6665" />
    <linearGradient
       gradientTransform="matrix(76.2002,76.2007,76.2007,-76.2002,-15540.281,54801.852)"
       gradientUnits="userSpaceOnUse"
       id="XMLID_4_-236-753"
       x1="-258.10641"
       x2="-256.1553"
       y1="461.6665"
       y2="461.6665">
      <stop
         id="stop4405"
         offset="0"
         style="stop-color:#ffffff" />
      <stop
         id="stop4407"
         offset="1"
         style="stop-color:#0b0b0b" />
    </linearGradient>
    <radialGradient
       inkscape:collect="always"
       xlink:href="#linearGradient4323-760-50-108"
       id="radialGradient2485-918-769-859"
       gradientUnits="userSpaceOnUse"
       gradientTransform="matrix(1,0,0,0.2705951,-10.00869,96.631145)"
       cx="53.409794"
       cy="116.65626"
       fx="53.409794"
       fy="116.65626"
       r="41.246162" />
    <linearGradient
       id="linearGradient4323-760-50-108">
      <stop
         id="stop4411"
         offset="0"
         style="stop-color:#00ffee;stop-opacity:1;" />
      <stop
         id="stop4413"
         offset="1"
         style="stop-color:#00fc0c;stop-opacity:0.35840708;" />
    </linearGradient>
    <radialGradient
       inkscape:collect="always"
       xlink:href="#linearGradient4323-325-465-419"
       id="radialGradient2482-355-290-722"
       gradientUnits="userSpaceOnUse"
       gradientTransform="matrix(1,0,0,1.9341355,-72.784146,-64.033838)"
       cx="86.729874"
       cy="80.904045"
       fx="86.729874"
       fy="80.904045"
       r="11.790789" />
    <linearGradient
       id="linearGradient4323-325-465-419">
      <stop
         id="stop4417"
         offset="0"
         style="stop-color:#00ffee;stop-opacity:1;" />
      <stop
         id="stop4419"
         offset="1"
         style="stop-color:#00fc0c;stop-opacity:0.35840708;" />
    </linearGradient>
    <radialGradient
       inkscape:collect="always"
       xlink:href="#linearGradient4323-1-693-440"
       id="radialGradient2479-765-817-622"
       gradientUnits="userSpaceOnUse"
       gradientTransform="matrix(1,0,0,0.893233,-9.7683441,20.199956)"
       cx="37.983555"
       cy="81.096741"
       fx="37.983555"
       fy="81.096741"
       r="26.06027" />
    <linearGradient
       id="linearGradient4323-1-693-440">
      <stop
         id="stop4423"
         offset="0"
         style="stop-color:#00ffee;stop-opacity:1;" />
      <stop
         id="stop4425"
         offset="1"
         style="stop-color:#00fc0c;stop-opacity:0.35840708;" />
    </linearGradient>
    <linearGradient
       inkscape:collect="always"
       xlink:href="#linearGradient4335-921-797-558"
       id="linearGradient2474-362-484-807"
       gradientUnits="userSpaceOnUse"
       x1="1.0334997"
       y1="94.822889"
       x2="105.30008"
       y2="94.822889"
       gradientTransform="translate(0,11.5415)" />
    <linearGradient
       id="linearGradient4335-921-797-558"
       inkscape:collect="always">
      <stop
         id="stop4429"
         offset="0"
         style="stop-color:#0e0e0e;stop-opacity:1;" />
      <stop
         id="stop4431"
         offset="1"
         style="stop-color:#0e0e0e;stop-opacity:0;" />
    </linearGradient>
    <linearGradient
       y2="461.6665"
       x2="-256.1553"
       y1="461.6665"
       x1="-258.10641"
       gradientTransform="matrix(73.215697,73.216178,73.216178,-73.215697,-14929.518,52658.162)"
       gradientUnits="userSpaceOnUse"
       id="linearGradient4625"
       xlink:href="#XMLID_4_-236-753"
       inkscape:collect="always" />
    <radialGradient
       r="41.246162"
       fy="116.65626"
       fx="53.409794"
       cy="116.65626"
       cx="53.409794"
       gradientTransform="matrix(1,0,0,0.2705951,-10.00869,96.631145)"
       gradientUnits="userSpaceOnUse"
       id="radialGradient4627"
       xlink:href="#linearGradient4323-760-50-108"
       inkscape:collect="always" />
    <radialGradient
       r="11.790789"
       fy="80.904045"
       fx="86.729874"
       cy="80.904045"
       cx="86.729874"
       gradientTransform="matrix(1,0,0,1.9341355,-72.784146,-64.033838)"
       gradientUnits="userSpaceOnUse"
       id="radialGradient4629"
       xlink:href="#linearGradient4323-325-465-419"
       inkscape:collect="always" />
    <radialGradient
       r="26.06027"
       fy="81.096741"
       fx="37.983555"
       cy="81.096741"
       cx="37.983555"
       gradientTransform="matrix(1,0,0,0.893233,-9.7683441,20.199956)"
       gradientUnits="userSpaceOnUse"
       id="radialGradient4631"
       xlink:href="#linearGradient4323-1-693-440"
       inkscape:collect="always" />
    <linearGradient
       y2="94.822889"
       x2="105.30008"
       y1="94.822889"
       x1="1.0334997"
       gradientTransform="translate(0,11.5415)"
       gradientUnits="userSpaceOnUse"
       id="linearGradient4633"
       xlink:href="#linearGradient4335-921-797-558"
       inkscape:collect="always" />
    <linearGradient
       y2="461.6665"
       x2="-256.1553"
       y1="461.6665"
       x1="-258.10641"
       gradientTransform="matrix(73.215697,73.216178,73.216178,-73.215697,-14929.518,52658.162)"
       gradientUnits="userSpaceOnUse"
       id="linearGradient4654"
       xlink:href="#XMLID_4_-236-753"
       inkscape:collect="always" />
    <linearGradient
       y2="461.6665"
       x2="-256.1553"
       y1="461.6665"
       x1="-258.10641"
       gradientTransform="matrix(73.215697,73.216178,73.216178,-73.215697,-14929.518,52658.162)"
       gradientUnits="userSpaceOnUse"
       id="linearGradient4654-604"
       xlink:href="#XMLID_4_-236-753-175"
       inkscape:collect="always" />
    <linearGradient
       gradientTransform="matrix(76.2002,76.2007,76.2007,-76.2002,-15540.281,54801.852)"
       gradientUnits="userSpaceOnUse"
       id="XMLID_4_-236-753-175"
       x1="-258.10641"
       x2="-256.1553"
       y1="461.6665"
       y2="461.6665">
      <stop
         id="stop2638"
         offset="0"
         style="stop-color:#f2f2f2" />
      <stop
         id="stop2640"
         offset="1"
         style="stop-color:#000000" />
    </linearGradient>
    <linearGradient
       y2="461.6665"
       x2="-256.1553"
       y1="461.6665"
       x1="-258.10641"
       gradientTransform="matrix(73.215697,73.216178,73.216178,-73.215697,-14929.518,52658.162)"
       gradientUnits="userSpaceOnUse"
       id="linearGradient4654-604-780"
       xlink:href="#XMLID_4_-236-753-175-770"
       inkscape:collect="always" />
    <linearGradient
       gradientTransform="matrix(76.2002,76.2007,76.2007,-76.2002,-15540.281,54801.852)"
       gradientUnits="userSpaceOnUse"
       id="XMLID_4_-236-753-175-770"
       x1="-258.10641"
       x2="-256.1553"
       y1="461.6665"
       y2="461.6665">
      <stop
         id="stop3270"
         offset="0"
         style="stop-color:#e5e5e5" />
      <stop
         id="stop3272"
         offset="1"
         style="stop-color:#000000" />
    </linearGradient>
    <linearGradient
       y2="461.6665"
       x2="-256.1553"
       y1="461.6665"
       x1="-258.10641"
       gradientTransform="matrix(73.215697,73.216178,73.216178,-73.215697,-14929.518,52658.162)"
       gradientUnits="userSpaceOnUse"
       id="linearGradient4654-604-780-635"
       xlink:href="#XMLID_4_-236-753-175-770-400"
       inkscape:collect="always" />
    <linearGradient
       gradientTransform="matrix(76.2002,76.2007,76.2007,-76.2002,-15540.281,54801.852)"
       gradientUnits="userSpaceOnUse"
       id="XMLID_4_-236-753-175-770-400"
       x1="-258.10641"
       x2="-256.1553"
       y1="461.6665"
       y2="461.6665">
      <stop
         id="stop3573"
         offset="0"
         style="stop-color:#d8d8d8" />
      <stop
         id="stop3575"
         offset="1"
         style="stop-color:#000000" />
    </linearGradient>
  </defs>
  <g
     id="g3747">
    <g
       transform="matrix(1,-0.314305,-0.1053759,1,3.0804548,13.613164)"
       id="g2499">
      <path
         d="M 47.0625,5.03125 C 42.967682,5.3936367 38.824994,5.8905791 34.937779,7.2887632 C 31.817042,8.5649323 29.012748,10.552758 26.55342,12.843228 C 23.764724,15.475298 21.388353,18.586956 19.921225,22.14951 C 18.039967,26.468782 17.488706,31.237768 17.51532,35.911206 C 17.653392,39.863168 17.8995,43.815651 18.285285,47.751032 C 18.371386,50.566293 20.487717,52.928552 23.29078,53.24575 C 26.084029,53.900505 28.901433,55.406411 31.8125,54.96875 C 34.986418,53.65887 34.571432,49.738865 34.4375,46.9375 C 34.431693,41.834591 34.891411,36.736911 35.624473,31.690488 C 36.14046,28.62719 37.104637,25.474114 39.3125,23.1875 C 41.391967,20.885193 44.359958,19.475033 47.4375,19.1875 C 50.956819,18.844088 54.512309,18.985926 58.03125,19.28125 C 61.020264,19.591394 64.082628,20.438124 66.360641,22.493026 C 68.890049,24.690981 70.515012,27.836192 71.18881,31.095908 C 71.976721,34.549772 72.374878,38.089015 72.53125,41.625 C 72.412146,44.653326 72.294673,48.425147 75.236965,50.234246 C 77.707108,51.948423 80.819793,52.252711 83.570645,53.359373 C 84.825032,53.611164 86.2956,54.600975 87.4375,54.46875 C 87.19296,51.553134 86.752489,48.567259 86.4375,45.625 C 85.959915,41.680514 85.706634,37.714766 85.46875,33.75 C 85.168093,31.054948 84.839572,28.276939 83.457707,25.884164 C 82.136716,23.310682 80.547146,20.844921 78.591556,18.70549 C 76.778969,16.549106 74.465264,14.928185 72.142549,13.373768 C 69.333471,11.575479 66.438816,9.883452 63.408612,8.4872309 C 59.831051,7.0217205 56.190024,5.5461647 52.311701,5.1384187 C 50.577211,4.8648794 48.809292,4.9413585 47.0625,5.03125 z"
         id="path7"
         style="fill:#bebebe" />
      <path
         d="M 56.78125,16.875 C 52.598441,17.032151 48.451801,17.598134 44.3125,18.1875 C 40.65293,18.871776 37.636922,21.592521 36.041354,24.886043 C 34.292364,28.209504 33.789605,31.985658 33.073996,35.623831 C 32.511289,39.262166 31.974766,42.909879 31.563147,46.566801 C 31.472086,49.359632 29.220188,51.773648 26.59375,52.5 C 29.228988,53.223305 32.22881,53.849354 35,54.53125 C 34.930404,47.417949 34.625823,40.288777 35.1875,33.1875 C 35.573121,29.6336 36.982446,26.11229 39.5,23.53125 C 42.328278,21.058272 45.846701,19.2553 49.629067,18.946569 C 53.191227,18.658077 56.771506,18.917214 60.3125,19.34375 C 65.08679,20.229593 69.150333,23.811718 70.889398,28.30948 C 72.058295,31.454556 72.240906,34.848628 72.59375,38.15625 C 73.016152,41.262828 72.575179,44.428789 73.15625,47.5 C 73.82929,50.45463 77.214948,51.352903 79.84375,50.84375 C 78.176944,48.777715 76.069353,46.918467 75.25,44.3125 C 74.367687,40.193141 74.517089,35.94302 73.9375,31.78125 C 73.605436,27.579048 71.534384,23.650958 68.625,20.65625 C 66.547149,18.616699 63.801025,17.200706 60.873235,16.989548 C 59.520084,16.800693 58.143398,16.85008 56.78125,16.875 z"
         id="path9"
         style="fill:#9f9f9f" />
      <path
         sodipodi:nodetypes="cccscsccsccscccccccccccccccccccccccccccccscccccccc"
         d="M 44.40625,4.59375 C 40.971657,5.0294006 37.497657,5.4913885 34.25,6.75 C 28.586416,9.6328962 23.890551,14.351682 20.991361,20.001874 C 19.384104,23.1725 18.291083,26.615917 17.919059,30.158543 C 17.408902,34.864998 17.781509,39.607586 18.006132,44.320652 C 17.985724,47.428909 18.661425,50.903449 21.537629,52.644953 C 23.957408,54.138008 26.92829,54.263178 29.625,55 C 26.819595,53.80429 23.853206,53.02764 21.09375,51.71875 C 19.232216,49.400954 18.995689,46.319026 18.84375,43.46875 C 18.549071,37.927225 17.963814,32.317442 18.96875,26.8125 C 20.09035,23.098517 21.607102,19.452091 23.96875,16.34375 C 26.051584,14.028195 28.424092,11.98145 30.981922,10.20906 C 33.413351,8.4962777 36.133026,7.1436358 39.078838,6.6123062 C 43.200685,5.6519109 47.449696,5.4818209 51.643843,5.014129 C 51.73013,4.974659 53.298105,4.9216411 51.902705,4.8957191 C 49.408075,4.7100128 46.910381,4.4272773 44.40625,4.59375 z M 61.03125,7.4375 C 66.125311,9.6275561 71.246908,12.011109 75.472152,15.672493 C 78.277811,18.016793 80.73181,20.827369 82.420825,24.086223 C 84.034001,26.824455 85.077183,29.884448 85.297419,33.064115 C 85.729661,36.74169 85.992911,40.439568 86.323795,44.125075 C 86.633756,46.692095 87.115116,49.818379 86.552396,52.395041 C 86.164942,53.898775 84.614151,53.957604 83.369997,53.100353 C 80.73058,52.150135 78.05296,51.182729 75.71875,49.59375 C 73.650195,47.711069 73.184177,44.776257 73.099113,42.116173 C 72.885115,37.798997 72.421013,33.475424 71.34375,29.28125 C 70.276482,25.845021 67.994734,22.831623 65,20.84375 C 62.288442,19.143622 58.993036,18.877355 55.875,18.6875 C 52.379419,18.619204 48.800164,18.260934 45.375,19.15625 C 42.023976,20.120635 39.153578,22.539534 37.5,25.59375 C 36.037101,28.548228 35.318381,31.79585 35.082435,35.07083 C 34.599224,39.204469 34.503083,43.372983 34.5625,47.53125 C 34.964615,50.117364 34.837414,53.469565 32.023786,54.653176 C 31.333294,55.015969 30.492726,55.180041 29.71875,55.03125 C 31.945454,56.759895 35.523694,54.611114 35.4375,51.90625 C 35.12523,47.883035 35.39478,43.842741 35.795661,39.834276 C 36.128366,36.135253 36.418936,32.399164 37.4375,28.8125 C 38.359509,26.067705 39.856212,23.36336 42.347842,21.757954 C 44.763454,20.046989 47.779513,19.470539 50.692179,19.476949 C 54.385565,19.254299 58.105911,19.446314 61.75,20.09375 C 65.330367,20.877261 67.973163,23.783085 69.78125,26.8125 C 71.367507,29.698848 71.910374,32.999971 72.09375,36.25 C 72.382909,40.914122 73.331851,43.000126 73.521821,47.66934 C 78.219041,51.592367 82.156569,52.473017 86.594069,53.93135 C 87.263245,48.685451 87.49405,49.459979 87.098855,47.303389 C 86.256231,42.435137 86.378379,38.322284 85.670708,33.436562 C 85.161692,28.788507 83.36884,24.322901 80.626339,20.544248 C 77.69238,16.586191 73.935656,13.185529 69.524725,10.948146 C 65.574905,8.7237505 61.260783,7.278557 57,5.78125 C 58.34375,6.3333333 59.6875,6.8854167 61.03125,7.4375 z"
         id="path16"
         style="fill:url(#linearGradient4654-604-780-635)" />
      <path
         d="M 46.9375,6.84375 C 43.650039,6.9557593 40.345998,7.2487815 37.1875,8.21875 C 34.862277,9.1212511 32.503563,10.947697 32.21875,13.59375 C 34.912912,15.953088 38.325587,13.41051 41.252201,12.96762 C 45.416672,11.955524 49.671919,11.3258 53.9375,10.9375 C 57.272232,10.789149 60.57633,11.676498 63.521307,13.210695 C 66.378408,14.466013 69.002301,16.258505 71.875,17.4375 C 73.362069,17.692203 73.964948,15.766673 72.90625,14.875 C 70.93204,12.349796 67.786803,11.271258 64.964146,10.001194 C 61.895949,8.7318789 58.658997,7.920289 55.40625,7.28125 C 52.595073,6.9757506 49.767322,6.7397319 46.9375,6.84375 z"
         id="path18"
         style="fill:#9f9f9f" />
      <path
         d="M 25.5,21.1875 C 23.076821,23.136576 22.438276,26.338342 21.650699,29.180694 C 20.503701,33.587385 20.626526,38.226711 21.417805,42.683588 C 21.910563,44.858685 22.305357,47.323098 24.03125,48.90625 C 26.031868,46.189423 24.494299,42.663755 24.298228,39.626436 C 23.856568,36.534092 23.711871,33.370332 24.253138,30.280106 C 24.633331,27.444375 24.788414,24.513898 25.90625,21.84375 C 26.064687,21.566707 25.954971,20.949981 25.5,21.1875 z"
         id="path20"
         style="fill:#d8d8d8" />
      <path
         d="M 62.875,16.40625 C 65.37256,18.40056 68.30133,20.098854 69.90625,22.96875 C 70.945019,24.714539 71.918743,26.747117 73.875,27.625 C 74.737378,24.980213 72.500669,22.759904 70.672831,21.186862 C 68.246517,19.05288 65.848392,16.575457 62.608145,15.762679 C 62.53646,15.82804 61.243474,15.210797 62.393089,15.958761 L 62.786177,16.323772 L 62.875,16.40625 z"
         id="path22"
         style="fill:#d8d8d8" />
      <path
         d="M 44.59375,7 C 41.594991,7.2772469 38.38808,6.7441343 35.637948,8.2560432 C 32.952419,9.6472232 30.118544,11.198476 28.25,13.625 C 27.427387,15.144578 27.339807,17.469016 29.03125,18.4375 C 32.153206,18.067246 34.273993,15.514625 36.690506,13.787636 C 39.020618,12.24575 41.237912,10.291377 44.0625,9.75 C 47.132657,9.0414459 50.27403,8.7488984 53.40625,8.46875 C 55.040979,8.6210305 56.896555,9.1475363 58.375,8.15625 C 55.481563,6.6056011 52.070329,6.8164727 48.891536,6.8635624 C 47.458941,6.9090416 46.026345,6.9545208 44.59375,7 z"
         id="path24"
         style="fill:#d8d8d8" />
      <path
         d="M 69.65625,14.5625 C 70.588454,17.435862 73.723721,18.413747 75.8125,20.25 C 78.514083,22.568627 80.443145,25.751886 81.308916,29.201742 C 82.07065,31.70584 82.77966,34.225062 83.46875,36.75 C 86.264186,35.347275 84.672737,31.795427 83.96875,29.5625 C 83.052164,26.63565 81.553708,23.945785 80.0625,21.28125 C 78.213045,18.35536 75.672182,15.667143 72.316384,14.539054 C 71.447526,14.210085 70.514456,14.104229 69.59375,14.03125 L 69.65625,14.5625 z"
         id="path26"
         style="fill:#d8d8d8" />
    </g>
    <g
       id="g4003"
       transform="translate(0,-11.5415)">
      <g
         id="g3993">
        <path
           style="fill:#0d0d0d;filter:url(#filter4307)"
           id="path5"
           d="M 4.236106,73.037491 C 4.236106,72.017086 2.849624,72.061285 2.170314,72.278433 C 2.076153,73.443924 3.36463,73.198911 2.154941,74.933216 C 3.212819,74.653613 3.907501,74.020424 4.236106,73.037491" />
        <path
           style="fill:#00654a;fill-opacity:1;filter:url(#filter4303)"
           id="path41"
           d="M 103.72637,129.11461 C 103.72637,144.06806 87.581481,145.88596 76.02842,145.88596 C 64.525323,145.88596 53.020303,145.88596 41.518167,145.88596 C 31.783003,145.88596 20.152114,147.24362 11.156792,143.01403 C 0.1859966,137.85435 2.32289,125.39426 2.32289,115.37565 C 2.32289,105.3311 1.925105,95.19431 2.4141692,85.153601 C 3.0425542,72.196762 9.0660188,66.561474 21.635641,66.561474 C 42.931553,66.561474 64.229386,66.561474 85.526258,66.561474 C 101.50204,66.561474 103.72637,78.176989 103.72637,91.896729 C 103.72637,104.30301 103.72637,116.70929 103.72637,129.11461" />
        <path
           style="opacity:0.86000001;fill:url(#radialGradient4627);fill-opacity:1;filter:url(#filter4315)"
           id="path43"
           d="M 82.632747,117.0427 C 86.45206,117.23295 83.873183,122.18028 82.74036,123.75989 C 78.55497,129.61424 71.561064,133.38552 64.932274,135.73667 C 53.235088,139.88459 40.331096,140.09598 28.165023,138.24445 C 21.385383,137.21444 5.0310376,134.87577 2.4915546,126.68466 C -0.48606819,117.07537 17.186541,122.46564 20.272738,123.47452 C 32.40422,127.44757 43.670953,129.77663 56.514413,128.39014 C 63.14032,127.67336 69.993945,126.06877 75.250664,121.74886 C 77.419265,119.9694 79.506195,116.8832 82.632747,117.0427" />
        <path
           style="opacity:0.86000001;fill:url(#radialGradient4629);fill-opacity:1;filter:url(#filter4311)"
           id="path45"
           d="M 25.651117,99.417172 C 25.651117,103.14809 26.494728,112.01466 22.879112,114.77513 C 20.782574,116.37396 19.103998,113.56544 18.574579,111.87918 C 14.530431,99.020348 21.645402,84.997946 8.5136918,75.668253 C 6.8994918,74.521018 3.3107788,73.466984 2.2653918,71.738445 C 1.2248098,70.020475 7.8622468,69.581374 8.5405948,69.64671 C 22.269944,70.935188 25.651117,88.472319 25.651117,99.417172" />
        <path
           style="opacity:0.86000001;fill:url(#radialGradient4631);fill-opacity:1;filter:url(#filter4319)"
           id="path47"
           d="M 3.4064059,83.941029 C 1.8364039,91.509514 1.3348489,100.28673 4.3518659,107.57945 C 6.5022109,112.77852 13.82184,118.85291 19.440794,114.33315 C 27.424358,107.91382 20.743684,88.368549 32.742571,85.647469 C 39.290651,84.162981 46.705402,84.751011 52.339729,80.378259 C 55.92652,77.592803 54.064425,74.438387 50.53048,72.811696 C 38.448,67.250392 6.9749409,66.765171 3.4064059,83.941029" />
        <path
           style="fill:#004a4a;filter:url(#filter4287)"
           id="path49"
           d="M 10.780353,136.28051 C 10.780353,124.14806 10.780353,112.01562 10.780353,99.883177 C 10.780353,86.990714 9.9694097,69.172059 27.322061,69.172059 C 50.866323,69.172059 74.409623,69.172059 97.953885,69.172059 C 93.463911,65.958071 87.535568,66.561474 82.29134,66.561474 C 74.813173,66.561474 67.333085,66.561474 59.852037,66.561474 C 46.292756,66.561474 32.733475,66.561474 19.174194,66.561474 C 0.64644327,66.561474 2.9726209,86.768762 2.9726209,100.03691 C 2.9726209,112.32213 -1.8680577,136.75324 12.006377,143.10435 C 11.137783,140.93959 10.780353,138.60476 10.780353,136.28051" />
        <path
           style="fill:#0d0d0d;filter:url(#filter4283)"
           id="path51"
           d="M 88.298435,66.561474 C 68.526405,66.561474 48.756297,66.561474 28.983306,66.561474 C 21.017998,66.561474 10.161541,64.927097 5.6609976,73.201794 C 1.0115248,81.749368 2.9120532,94.98773 2.9120532,104.48653 C 2.9120532,113.54815 0.71847053,125.93521 3.7989025,134.70474 C 7.9141519,146.41634 23.095319,145.88692 33.330117,145.88692 C 45.295375,145.88692 57.259673,145.88692 69.224931,145.88692 C 79.188773,145.88692 91.877539,147.39062 99.772707,140.20647 C 108.20017,132.53806 104.31553,111.48812 104.31553,101.48008 C 104.31553,88.302252 107.04141,66.561474 88.298435,66.561474 M 101.20435,120.65639 C 101.20435,147.56646 61.404708,140.85888 43.739786,140.85888 C 34.632046,140.85888 23.460436,142.25497 14.973395,138.44719 C 3.2541099,133.18951 5.0633592,119.33237 5.0633592,108.70363 C 5.0633592,98.954051 3.3194466,86.631362 6.3239726,77.169075 C 9.8377404,66.103157 21.688659,67.339749 31.01643,67.339749 C 43.298763,67.339749 55.578214,67.339749 67.861508,67.339749 C 76.339902,67.339749 88.718319,65.551638 95.674753,71.105255 C 102.18632,76.303364 100.75372,86.473786 100.85172,93.933696 C 100.9699,102.84062 101.08713,111.74851 101.20435,120.65639" />
        <path
           style="fill:url(#linearGradient4633);fill-opacity:1"
           id="path58"
           d="M 17.867722,65.905191 C 1.9251347,65.905191 1.0334997,80.772161 1.0334997,93.002611 C 1.0334997,104.22226 1.0334997,115.44096 1.0334997,126.65965 C 1.0334997,152.37539 34.32704,146.9707 52.365655,146.9707 C 69.764195,146.9707 105.29749,152.75684 105.29749,127.43888 C 105.29749,116.29418 105.29749,105.14562 105.29749,93.999961 C 105.29749,83.526871 105.80645,68.693531 92.547505,66.270311 C 80.525974,64.071921 66.780413,65.905191 54.645243,65.905191 C 42.385746,65.905191 30.126248,65.905191 17.867722,65.905191 M 2.7924875,129.32788 C 2.7924875,119.63595 2.7924875,109.94306 2.7924875,100.25018 C 2.7924875,91.222191 0.42159333,76.485891 8.3802614,70.304851 C 14.031167,65.917681 25.275678,67.644301 32.002761,67.644301 C 44.663393,67.644301 57.325005,67.644301 69.985647,67.644301 C 77.310065,67.644301 86.597449,66.257821 93.77424,68.349551 C 105.27127,71.701901 103.53947,86.860961 103.53947,96.272331 C 103.53947,107.0548 103.53947,117.83727 103.53947,128.62167 C 103.53947,142.49802 89.765766,145.22871 78.326992,145.22871 C 64.678567,145.22871 51.031111,145.22871 37.384626,145.22871 C 24.890081,145.22967 2.7924875,146.84772 2.7924875,129.32788" />
      </g>
    </g>
  </g>
</svg>
