<?xml version="1.0" encoding="UTF-8" standalone="no"?>
<!DOCTYPE svg PUBLIC "-//W3C//DTD SVG 20010904//EN"
"http://www.w3.org/TR/2001/REC-SVG-20010904/DTD/svg10.dtd">
<!-- Created with Inkscape (http://www.inkscape.org/) -->
<svg
   width="80.000000pt"
   height="80.000000pt"
   id="svg1"
   sodipodi:version="0.32"
   inkscape:version="0.40"
   sodipodi:docbase="/home/nicu/Desktop/newoooicons"
   sodipodi:docname="help_new_white.svg"
   xmlns="http://www.w3.org/2000/svg"
   xmlns:cc="http://web.resource.org/cc/"
   xmlns:inkscape="http://www.inkscape.org/namespaces/inkscape"
   xmlns:sodipodi="http://sodipodi.sourceforge.net/DTD/sodipodi-0.dtd"
   xmlns:rdf="http://www.w3.org/1999/02/22-rdf-syntax-ns#"
   xmlns:dc="http://purl.org/dc/elements/1.1/"
   xmlns:xlink="http://www.w3.org/1999/xlink">
  <defs
     id="defs3">
    <linearGradient
       inkscape:collect="always"
       id="linearGradient6060">
      <stop
         style="stop-color:#ffffff;stop-opacity:1;"
         offset="0"
         id="stop6061" />
      <stop
         style="stop-color:#ffffff;stop-opacity:0;"
         offset="1"
         id="stop6062" />
    </linearGradient>
    <linearGradient
       id="linearGradient5434">
      <stop
         style="stop-color:#e4ffff;stop-opacity:0.0000000;"
         offset="0.0000000"
         id="stop5435" />
      <stop
         style="stop-color:#b8b8bb;stop-opacity:1.0000000;"
         offset="0.56666666"
         id="stop6690" />
      <stop
         style="stop-color:#d4d4d4;stop-opacity:1.0000000;"
         offset="1.0000000"
         id="stop5436" />
    </linearGradient>
    <linearGradient
       id="linearGradient5430">
      <stop
         style="stop-color:#de0000;stop-opacity:1.0000000;"
         offset="0.0000000"
         id="stop5431" />
      <stop
         style="stop-color:#b00000;stop-opacity:1.0000000;"
         offset="1.0000000"
         id="stop5432" />
    </linearGradient>
    <linearGradient
       inkscape:collect="always"
       xlink:href="#linearGradient5430"
       id="linearGradient5433"
       gradientTransform="scale(0.999262,1.000739)"
       x1="38.809406"
       y1="35.756599"
       x2="94.349892"
       y2="90.134895"
       gradientUnits="userSpaceOnUse" />
    <linearGradient
       inkscape:collect="always"
       xlink:href="#linearGradient6060"
       id="linearGradient6063"
       gradientTransform="scale(1.530041,0.653577)"
       x1="33.709305"
       y1="7.5003219"
       x2="31.903437"
       y2="53.154648"
       gradientUnits="userSpaceOnUse" />
    <linearGradient
       inkscape:collect="always"
       xlink:href="#linearGradient6060"
       id="linearGradient6065"
       gradientUnits="userSpaceOnUse"
       gradientTransform="scale(-1.530041,-0.653577)"
       x1="-32.324413"
       y1="-153.95477"
       x2="-33.574623"
       y2="-124.37590" />
    <radialGradient
       inkscape:collect="always"
       xlink:href="#linearGradient5434"
       id="radialGradient6689"
       gradientTransform="scale(0.991247,1.008830)"
       cx="52.246655"
       cy="49.439381"
       fx="52.246655"
       fy="49.439381"
       r="40.467258"
       gradientUnits="userSpaceOnUse" />
  </defs>
  <sodipodi:namedview
     id="base"
     pagecolor="#ffffff"
     bordercolor="#666666"
     borderopacity="1.0"
     inkscape:pageopacity="0.0"
     inkscape:pageshadow="2"
     inkscape:zoom="1.0000000"
     inkscape:cx="40.000000"
     inkscape:cy="40.000000"
     inkscape:current-layer="layer1"
     inkscape:window-width="1025"
     inkscape:window-height="543"
     inkscape:window-x="52"
     inkscape:window-y="356" />
  <metadata
     id="metadata4">
    <rdf:RDF
       id="RDF5">
      <cc:Work
         rdf:about=""
         id="Work6">
        <dc:format
           id="format7">image/svg+xml</dc:format>
        <dc:type
           id="type9"
           rdf:resource="http://purl.org/dc/dcmitype/StillImage" />
      </cc:Work>
    </rdf:RDF>
  </metadata>
  <g
     inkscape:label="Layer 1"
     inkscape:groupmode="layer"
     id="layer1">
    <path
       style="fill:url(#linearGradient5433);fill-opacity:1.0;stroke:none;stroke-width:20.217623;stroke-linecap:round;stroke-linejoin:round;stroke-miterlimit:4.0000000;stroke-opacity:1.0000000;"
       d="M 19.695000,14.928461 C 0.87790829,31.649949 -1.1536633,61.288838 16.269909,80.896002 C 33.693482,100.50317 63.365730,101.96899 82.182822,85.247507 C 100.99991,68.526020 103.05347,38.867594 85.629897,19.260431 C 68.206324,-0.34673337 38.512091,-1.7930262 19.695000,14.928461 z M 33.198547,30.124327 C 44.812434,19.803844 61.787761,21.076311 71.406153,31.900118 C 81.024543,42.723928 80.293162,59.731159 68.679275,70.051641 C 57.065387,80.372125 40.112045,79.080121 30.493653,68.256314 C 20.875262,57.432507 21.584660,40.444810 33.198547,30.124327 z "
       id="path1061" />
    <path
       style="fill:url(#radialGradient6689);fill-opacity:1.0;stroke:none;stroke-width:20.217623;stroke-linecap:round;stroke-linejoin:round;stroke-miterlimit:4.0000000;stroke-opacity:1.0000000;"
       d="M 11.676294,24.173676 L 27.293159,37.250377 C 23.070043,43.778826 21.964657,51.835919 25.419098,59.503126 L 7.4649611,65.513658 C 8.2670909,73.604592 20.637358,87.742503 24.987560,88.456373 L 37.265882,74.105712 C 43.933590,78.164635 51.578138,78.479968 57.448284,76.084042 L 63.336528,95.713709 C 71.899555,94.319669 89.067140,82.281630 89.866016,76.078897 L 74.538641,63.305802 C 78.809378,57.008405 80.254438,51.240443 78.400535,45.027759 L 96.651758,41.263756 C 96.217218,30.775763 84.939988,16.047909 79.426788,13.616822 L 67.219100,27.801812 C 63.061732,24.088777 52.557406,22.456515 46.211099,22.607453 L 42.301969,4.0381518 C 23.561001,6.6504931 15.079155,18.230038 11.676294,24.173676 z M 37.130233,34.940487 C 45.779830,27.254168 58.399314,28.201724 65.562740,36.262899 C 72.726162,44.324077 72.204804,56.990824 63.555205,64.677143 C 54.905604,72.363460 42.265366,71.392546 35.101940,63.331371 C 27.938512,55.270195 28.480634,42.626806 37.130233,34.940487 z "
       id="path2927"
       sodipodi:nodetypes="cccccccccccccccccccccc" />
    <path
       style="fill:url(#linearGradient6063);fill-opacity:1.0;fill-rule:evenodd;stroke:none;stroke-width:1.0000000pt;stroke-linecap:butt;stroke-linejoin:miter;stroke-opacity:1.0000000;"
       d="M 14.109499,26.649077 C 33.634565,-5.0131921 73.476253,0.70910270 90.626649,30.260554 C 93.265172,35.273747 87.627390,33.621544 81.294936,33.621544 C 60.035213,19.480437 39.308590,17.043482 21.372031,37.730871 C 15.831134,39.313984 11.998681,35.883905 14.109499,26.649077 z "
       id="path5438"
       sodipodi:nodetypes="ccccc" />
    <path
       style="fill:url(#linearGradient6065);fill-opacity:1.0;fill-rule:evenodd;stroke:none;stroke-width:1.0000000pt;stroke-linecap:butt;stroke-linejoin:miter;stroke-opacity:1.0000000;"
       d="M 90.274988,73.410873 C 73.652297,100.58765 34.074461,103.75388 13.757838,76.049396 C 11.119315,71.036203 12.438577,66.286863 18.771031,66.286863 C 40.406915,77.104805 61.778946,81.854145 80.512456,62.329079 C 86.053353,60.745966 92.385806,64.176045 90.274988,73.410873 z "
       id="path6064"
       sodipodi:nodetypes="ccccc" />
  </g>
</svg>
