<?xml version="1.0" encoding="UTF-8" standalone="no"?>
<!-- Generator: Adobe Illustrator 12.0.0, SVG Export Plug-In . SVG Version: 6.00 Build 51448)  -->
<svg
   xmlns:dc="http://purl.org/dc/elements/1.1/"
   xmlns:cc="http://creativecommons.org/ns#"
   xmlns:rdf="http://www.w3.org/1999/02/22-rdf-syntax-ns#"
   xmlns:svg="http://www.w3.org/2000/svg"
   xmlns="http://www.w3.org/2000/svg"
   xmlns:xlink="http://www.w3.org/1999/xlink"
   xmlns:sodipodi="http://sodipodi.sourceforge.net/DTD/sodipodi-0.dtd"
   xmlns:inkscape="http://www.inkscape.org/namespaces/inkscape"
   height="48"
   id="Layer_1"
   inkscape:version="0.46"
   sodipodi:docbase="F:\openclip\svg da inviare"
   sodipodi:docname="locked.svg"
   sodipodi:version="0.32"
   space="preserve"
   style="overflow:visible"
   version="1.0"
   viewBox="0 0 107.373 138.498"
   width="48"
   inkscape:output_extension="org.inkscape.output.svg.inkscape">
  <sodipodi:namedview
     bordercolor="#666666"
     borderopacity="1.0"
     id="base"
     inkscape:current-layer="Layer_1"
     inkscape:cx="24.000001"
     inkscape:cy="26.377375"
     inkscape:pageopacity="0.0"
     inkscape:pageshadow="2"
     inkscape:window-height="783"
     inkscape:window-width="1029"
     inkscape:window-x="68"
     inkscape:window-y="356"
     inkscape:zoom="10.291667"
     pagecolor="#ffffff"
     showgrid="true">
    <inkscape:grid
       id="grid2408"
       type="xygrid" />
  </sodipodi:namedview>
  <metadata
     id="metadata3">
    <rdf:RDF>
      <cc:Work
         rdf:about="">
        <dc:title>Lucchetto ottone</dc:title>
        <dc:description />
        <dc:subject>
          <rdf:Bag>
            <rdf:li>animal</rdf:li>
          </rdf:Bag>
        </dc:subject>
        <dc:publisher>
          <cc:Agent
             rdf:about="http://www.openclipart.org/">
            <dc:title>Open Clip Art Library</dc:title>
          </cc:Agent>
        </dc:publisher>
        <dc:creator>
          <cc:Agent>
            <dc:title>Architetto Francesco Rollandin</dc:title>
          </cc:Agent>
        </dc:creator>
        <dc:rights>
          <cc:Agent>
            <dc:title>Architetto Francesco Rollandin</dc:title>
          </cc:Agent>
        </dc:rights>
        <dc:date />
        <dc:format>image/svg+xml</dc:format>
        <dc:type
           rdf:resource="http://purl.org/dc/dcmitype/StillImage" />
        <cc:license
           rdf:resource="http://web.resource.org/cc/PublicDomain" />
        <dc:language>en</dc:language>
      </cc:Work>
      <cc:License
         rdf:about="http://web.resource.org/cc/PublicDomain">
        <cc:permits
           rdf:resource="http://web.resource.org/cc/Reproduction" />
        <cc:permits
           rdf:resource="http://web.resource.org/cc/Distribution" />
        <cc:permits
           rdf:resource="http://web.resource.org/cc/DerivativeWorks" />
      </cc:License>
    </rdf:RDF>
  </metadata>
  <defs
     id="defs61">
    <linearGradient
       id="linearGradient4335"
       inkscape:collect="always">
      <stop
         id="stop4337"
         offset="0"
         style="stop-color:#dc0000;stop-opacity:1;" />
      <stop
         id="stop4339"
         offset="1"
         style="stop-color:#dc0000;stop-opacity:0;" />
    </linearGradient>
    <linearGradient
       id="linearGradient4323">
      <stop
         id="stop4325"
         offset="0"
         style="stop-color:#ffd0ac;stop-opacity:1;" />
      <stop
         id="stop4327"
         offset="1"
         style="stop-color:#ffb309;stop-opacity:0.35840708;" />
    </linearGradient>
    <inkscape:perspective
       id="perspective37"
       inkscape:persp3d-origin="53.686501 : 46.166 : 1"
       inkscape:vp_z="107.373 : 69.249001 : 1"
       inkscape:vp_y="0 : 1000 : 0"
       inkscape:vp_x="0 : 69.249001 : 1"
       sodipodi:type="inkscape:persp3d" />
    <linearGradient
       y2="461.6665"
       x2="-256.1553"
       y1="461.6665"
       x1="-258.10641"
       gradientTransform="matrix(76.2002,76.2007,76.2007,-76.2002,-15540.281,54801.852)"
       gradientUnits="userSpaceOnUse"
       id="linearGradient2442"
       xlink:href="#XMLID_4_"
       inkscape:collect="always" />
    <linearGradient
       y2="94.121902"
       x2="103.5597"
       y1="96.978996"
       x1="7.3916001"
       gradientUnits="userSpaceOnUse"
       id="linearGradient2444"
       xlink:href="#XMLID_5_"
       inkscape:collect="always" />
    <linearGradient
       y2="461.6235"
       x2="-252.8316"
       y1="461.6235"
       x1="-254.83591"
       gradientTransform="matrix(0,126.6817,126.6817,0,-58425.73,32328.262)"
       gradientUnits="userSpaceOnUse"
       id="linearGradient2446"
       xlink:href="#XMLID_6_"
       inkscape:collect="always" />
    <linearGradient
       y2="461.6665"
       x2="-256.1553"
       y1="461.6665"
       x1="-258.10641"
       gradientTransform="matrix(76.2002,76.2007,76.2007,-76.2002,-15540.281,54801.852)"
       gradientUnits="userSpaceOnUse"
       id="linearGradient2478"
       xlink:href="#XMLID_4_"
       inkscape:collect="always" />
    <linearGradient
       y2="94.121902"
       x2="103.5597"
       y1="96.978996"
       x1="7.3916001"
       gradientUnits="userSpaceOnUse"
       id="linearGradient2480"
       xlink:href="#XMLID_5_"
       inkscape:collect="always" />
    <linearGradient
       y2="461.6235"
       x2="-252.8316"
       y1="461.6235"
       x1="-254.83591"
       gradientTransform="matrix(0,126.6817,126.6817,0,-58425.73,32328.262)"
       gradientUnits="userSpaceOnUse"
       id="linearGradient2482"
       xlink:href="#XMLID_6_"
       inkscape:collect="always" />
    <linearGradient
       gradientTransform="matrix(76.2002,76.2007,76.2007,-76.2002,-15540.281,54801.852)"
       gradientUnits="userSpaceOnUse"
       id="XMLID_4_"
       x1="-258.10641"
       x2="-256.1553"
       y1="461.6665"
       y2="461.6665">
      <stop
         id="stop12"
         offset="0"
         style="stop-color:#FFFFFF" />
      <stop
         id="stop14"
         offset="1"
         style="stop-color:#000000" />
    </linearGradient>
    <linearGradient
       gradientUnits="userSpaceOnUse"
       id="XMLID_5_"
       x1="7.3916001"
       x2="103.5597"
       y1="96.978996"
       y2="94.121902">
      <stop
         id="stop29"
         offset="0"
         style="stop-color:#FFD53D" />
      <stop
         id="stop31"
         offset="0.3017"
         style="stop-color:#FDD33A" />
      <stop
         id="stop33"
         offset="0.5348"
         style="stop-color:#F6CB30" />
      <stop
         id="stop35"
         offset="0.7449"
         style="stop-color:#EABE20" />
      <stop
         id="stop37"
         offset="0.9404"
         style="stop-color:#DAAC09" />
      <stop
         id="stop39"
         offset="1"
         style="stop-color:#D4A500" />
    </linearGradient>
    <linearGradient
       gradientTransform="matrix(0,126.6817,126.6817,0,-58425.73,32328.262)"
       gradientUnits="userSpaceOnUse"
       id="XMLID_6_"
       x1="-254.83591"
       x2="-252.8316"
       y1="461.6235"
       y2="461.6235">
      <stop
         id="stop54"
         offset="0"
         style="stop-color:#DF9000" />
      <stop
         id="stop56"
         offset="1"
         style="stop-color:#9F7800" />
    </linearGradient>
    <linearGradient
       y2="461.6235"
       x2="-252.8316"
       y1="461.6235"
       x1="-254.83591"
       gradientTransform="matrix(0,121.72001,121.72001,0,-56135.29,31064.786)"
       gradientUnits="userSpaceOnUse"
       id="linearGradient2498"
       xlink:href="#XMLID_6_"
       inkscape:collect="always" />
    <linearGradient
       gradientTransform="matrix(0.9608334,0,0,0.9608334,2.1030667,2.712204)"
       y2="94.121902"
       x2="103.5597"
       y1="96.978996"
       x1="7.3916001"
       gradientUnits="userSpaceOnUse"
       id="linearGradient2506"
       xlink:href="#XMLID_5_"
       inkscape:collect="always" />
    <linearGradient
       y2="461.6665"
       x2="-256.1553"
       y1="461.6665"
       x1="-258.10641"
       gradientTransform="matrix(73.215697,73.216178,73.216178,-73.215697,-14929.518,52658.162)"
       gradientUnits="userSpaceOnUse"
       id="linearGradient2514"
       xlink:href="#XMLID_4_"
       inkscape:collect="always" />
    <linearGradient
       y2="461.6235"
       x2="-252.8316"
       y1="461.6235"
       x1="-254.83591"
       gradientTransform="matrix(0,121.72001,121.72001,0,-56135.29,31064.786)"
       gradientUnits="userSpaceOnUse"
       id="linearGradient2498-736"
       xlink:href="#XMLID_6_-600"
       inkscape:collect="always" />
    <linearGradient
       gradientTransform="matrix(0,126.6817,126.6817,0,-58425.73,32328.262)"
       gradientUnits="userSpaceOnUse"
       id="XMLID_6_-600"
       x1="-254.83591"
       x2="-252.8316"
       y1="461.6235"
       y2="461.6235">
      <stop
         id="stop2547"
         offset="0"
         style="stop-color:#df0000" />
      <stop
         id="stop2549"
         offset="1"
         style="stop-color:#9f0000" />
    </linearGradient>
    <linearGradient
       gradientTransform="matrix(0.9608334,0,0,0.9608334,2.1030667,2.712204)"
       y2="94.121902"
       x2="103.5597"
       y1="96.978996"
       x1="7.3916001"
       gradientUnits="userSpaceOnUse"
       id="linearGradient2506-490"
       xlink:href="#XMLID_5_-680"
       inkscape:collect="always" />
    <linearGradient
       gradientUnits="userSpaceOnUse"
       id="XMLID_5_-680"
       x1="7.3916001"
       x2="103.5597"
       y1="96.978996"
       y2="94.121902">
      <stop
         id="stop2553"
         offset="0"
         style="stop-color:#ff003d" />
      <stop
         id="stop2555"
         offset="0.3017"
         style="stop-color:#fd003a" />
      <stop
         id="stop2557"
         offset="0.5348"
         style="stop-color:#f60030" />
      <stop
         id="stop2559"
         offset="0.7449"
         style="stop-color:#ea0020" />
      <stop
         id="stop2561"
         offset="0.9404"
         style="stop-color:#da0009" />
      <stop
         id="stop2563"
         offset="1"
         style="stop-color:#d40000" />
    </linearGradient>
    <linearGradient
       gradientTransform="matrix(0,126.6817,126.6817,0,-58425.73,32328.262)"
       gradientUnits="userSpaceOnUse"
       id="XMLID_6_-600-614"
       x1="-254.83591"
       x2="-252.8316"
       y1="461.6235"
       y2="461.6235">
      <stop
         id="stop3157"
         offset="0"
         style="stop-color:#f80000" />
      <stop
         id="stop3159"
         offset="1"
         style="stop-color:#b10000" />
    </linearGradient>
    <linearGradient
       gradientUnits="userSpaceOnUse"
       id="XMLID_5_-680-814"
       x1="7.3916001"
       x2="103.5597"
       y1="96.978996"
       y2="94.121902">
      <stop
         id="stop3163"
         offset="0"
         style="stop-color:#ff0044" />
      <stop
         id="stop3165"
         offset="0.3017"
         style="stop-color:#ff0040" />
      <stop
         id="stop3167"
         offset="0.5348"
         style="stop-color:#ff0035" />
      <stop
         id="stop3169"
         offset="0.7449"
         style="stop-color:#ff0024" />
      <stop
         id="stop3171"
         offset="0.9404"
         style="stop-color:#f2000b" />
      <stop
         id="stop3173"
         offset="1"
         style="stop-color:#ec0000" />
    </linearGradient>
    <filter
       id="filter4283"
       inkscape:collect="always">
      <feGaussianBlur
         id="feGaussianBlur4285"
         stdDeviation="0.91389035"
         inkscape:collect="always" />
    </filter>
    <filter
       id="filter4287"
       inkscape:collect="always">
      <feGaussianBlur
         id="feGaussianBlur4289"
         stdDeviation="0.91389035"
         inkscape:collect="always" />
    </filter>
    <filter
       id="filter4303"
       inkscape:collect="always">
      <feGaussianBlur
         id="feGaussianBlur4305"
         stdDeviation="0.91389035"
         inkscape:collect="always" />
    </filter>
    <filter
       height="2.57722"
       y="-0.78861001"
       width="3.1077972"
       x="-1.0538986"
       id="filter4307"
       inkscape:collect="always">
      <feGaussianBlur
         id="feGaussianBlur4309"
         stdDeviation="0.91389035"
         inkscape:collect="always" />
    </filter>
    <filter
       height="1.1236013"
       y="-0.061800627"
       width="1.2390616"
       x="-0.11953079"
       id="filter4311"
       inkscape:collect="always">
      <feGaussianBlur
         id="feGaussianBlur4313"
         stdDeviation="1.1744686"
         inkscape:collect="always" />
    </filter>
    <filter
       height="1.252551"
       y="-0.1262755"
       width="1.0683391"
       x="-0.034169536"
       id="filter4315"
       inkscape:collect="always">
      <feGaussianBlur
         id="feGaussianBlur4317"
         stdDeviation="1.1744686"
         inkscape:collect="always" />
    </filter>
    <filter
       id="filter4319"
       inkscape:collect="always">
      <feGaussianBlur
         id="feGaussianBlur4321"
         stdDeviation="1.1744686"
         inkscape:collect="always" />
    </filter>
    <radialGradient
       gradientUnits="userSpaceOnUse"
       gradientTransform="matrix(1,0,0,1.9341355,-72.784146,-75.575338)"
       r="11.790789"
       fy="80.904045"
       fx="86.729874"
       cy="80.904045"
       cx="86.729874"
       id="radialGradient4329"
       xlink:href="#linearGradient4323"
       inkscape:collect="always" />
    <radialGradient
       gradientUnits="userSpaceOnUse"
       gradientTransform="matrix(1,0,0,0.2705951,-10.00869,85.089645)"
       r="41.246162"
       fy="116.65626"
       fx="53.409794"
       cy="116.65626"
       cx="53.409794"
       id="radialGradient4331"
       xlink:href="#linearGradient4323"
       inkscape:collect="always" />
    <radialGradient
       gradientUnits="userSpaceOnUse"
       gradientTransform="matrix(1,0,0,0.893233,-9.7683441,8.6584558)"
       r="26.06027"
       fy="81.096741"
       fx="37.983555"
       cy="81.096741"
       cx="37.983555"
       id="radialGradient4333"
       xlink:href="#linearGradient4323"
       inkscape:collect="always" />
    <linearGradient
       gradientUnits="userSpaceOnUse"
       y2="94.822889"
       x2="105.30008"
       y1="94.822889"
       x1="1.0334997"
       id="linearGradient4341"
       xlink:href="#linearGradient4335"
       inkscape:collect="always" />
    <linearGradient
       y2="94.822889"
       x2="105.30008"
       y1="94.822889"
       x1="1.0334997"
       gradientUnits="userSpaceOnUse"
       id="linearGradient2465"
       xlink:href="#linearGradient4335"
       inkscape:collect="always" />
    <radialGradient
       r="26.06027"
       fy="81.096741"
       fx="37.983555"
       cy="81.096741"
       cx="37.983555"
       gradientTransform="matrix(1,0,0,0.893233,-9.7683441,8.6584558)"
       gradientUnits="userSpaceOnUse"
       id="radialGradient2470"
       xlink:href="#linearGradient4323"
       inkscape:collect="always" />
    <radialGradient
       r="11.790789"
       fy="80.904045"
       fx="86.729874"
       cy="80.904045"
       cx="86.729874"
       gradientTransform="matrix(1,0,0,1.9341355,-72.784146,-75.575338)"
       gradientUnits="userSpaceOnUse"
       id="radialGradient2473"
       xlink:href="#linearGradient4323"
       inkscape:collect="always" />
    <radialGradient
       r="41.246162"
       fy="116.65626"
       fx="53.409794"
       cy="116.65626"
       cx="53.409794"
       gradientTransform="matrix(1,0,0,0.2705951,-10.00869,85.089645)"
       gradientUnits="userSpaceOnUse"
       id="radialGradient2476"
       xlink:href="#linearGradient4323"
       inkscape:collect="always" />
    <linearGradient
       y2="461.6665"
       x2="-256.1553"
       y1="461.6665"
       x1="-258.10641"
       gradientTransform="matrix(73.215697,73.216178,73.216178,-73.215697,-14929.518,52658.162)"
       gradientUnits="userSpaceOnUse"
       id="linearGradient2485"
       xlink:href="#XMLID_4_"
       inkscape:collect="always" />
    <linearGradient
       y2="461.6665"
       x2="-256.1553"
       y1="461.6665"
       x1="-258.10641"
       gradientTransform="matrix(73.215697,73.216178,73.216178,-73.215697,-14929.518,52658.162)"
       gradientUnits="userSpaceOnUse"
       id="linearGradient2485-155"
       xlink:href="#XMLID_4_-236"
       inkscape:collect="always" />
    <linearGradient
       gradientTransform="matrix(76.2002,76.2007,76.2007,-76.2002,-15540.281,54801.852)"
       gradientUnits="userSpaceOnUse"
       id="XMLID_4_-236"
       x1="-258.10641"
       x2="-256.1553"
       y1="461.6665"
       y2="461.6665">
      <stop
         id="stop2571"
         offset="0"
         style="stop-color:#e6e6e6" />
      <stop
         id="stop2573"
         offset="1"
         style="stop-color:#000000" />
    </linearGradient>
    <linearGradient
       inkscape:collect="always"
       xlink:href="#linearGradient4335"
       id="linearGradient2474"
       gradientUnits="userSpaceOnUse"
       x1="1.0334997"
       y1="94.822889"
       x2="105.30008"
       y2="94.822889" />
    <radialGradient
       inkscape:collect="always"
       xlink:href="#linearGradient4323"
       id="radialGradient2479"
       gradientUnits="userSpaceOnUse"
       gradientTransform="matrix(1,0,0,0.893233,-9.7683441,8.6584558)"
       cx="37.983555"
       cy="81.096741"
       fx="37.983555"
       fy="81.096741"
       r="26.06027" />
    <radialGradient
       inkscape:collect="always"
       xlink:href="#linearGradient4323"
       id="radialGradient2482"
       gradientUnits="userSpaceOnUse"
       gradientTransform="matrix(1,0,0,1.9341355,-72.784146,-75.575338)"
       cx="86.729874"
       cy="80.904045"
       fx="86.729874"
       fy="80.904045"
       r="11.790789" />
    <radialGradient
       inkscape:collect="always"
       xlink:href="#linearGradient4323"
       id="radialGradient2485"
       gradientUnits="userSpaceOnUse"
       gradientTransform="matrix(1,0,0,0.2705951,-10.00869,85.089645)"
       cx="53.409794"
       cy="116.65626"
       fx="53.409794"
       fy="116.65626"
       r="41.246162" />
    <linearGradient
       inkscape:collect="always"
       xlink:href="#XMLID_4_-236"
       id="linearGradient2494"
       gradientUnits="userSpaceOnUse"
       gradientTransform="matrix(73.215697,73.216178,73.216178,-73.215697,-14929.518,52658.162)"
       x1="-258.10641"
       y1="461.6665"
       x2="-256.1553"
       y2="461.6665" />
    <linearGradient
       inkscape:collect="always"
       xlink:href="#XMLID_4_-236-553"
       id="linearGradient2494-42"
       gradientUnits="userSpaceOnUse"
       gradientTransform="matrix(73.215697,73.216178,73.216178,-73.215697,-14929.518,52658.162)"
       x1="-258.10641"
       y1="461.6665"
       x2="-256.1553"
       y2="461.6665" />
    <linearGradient
       gradientTransform="matrix(76.2002,76.2007,76.2007,-76.2002,-15540.281,54801.852)"
       gradientUnits="userSpaceOnUse"
       id="XMLID_4_-236-553"
       x1="-258.10641"
       x2="-256.1553"
       y1="461.6665"
       y2="461.6665">
      <stop
         id="stop2606"
         offset="0"
         style="stop-color:#d9d9d9" />
      <stop
         id="stop2608"
         offset="1"
         style="stop-color:#000000" />
    </linearGradient>
    <linearGradient
       inkscape:collect="always"
       xlink:href="#XMLID_4_-236-553-839"
       id="linearGradient2494-42-823"
       gradientUnits="userSpaceOnUse"
       gradientTransform="matrix(73.215697,73.216178,73.216178,-73.215697,-14929.518,52658.162)"
       x1="-258.10641"
       y1="461.6665"
       x2="-256.1553"
       y2="461.6665" />
    <linearGradient
       gradientTransform="matrix(76.2002,76.2007,76.2007,-76.2002,-15540.281,54801.852)"
       gradientUnits="userSpaceOnUse"
       id="XMLID_4_-236-553-839"
       x1="-258.10641"
       x2="-256.1553"
       y1="461.6665"
       y2="461.6665">
      <stop
         id="stop2828"
         offset="0"
         style="stop-color:#cccccc" />
      <stop
         id="stop2830"
         offset="1"
         style="stop-color:#000000" />
    </linearGradient>
  </defs>
  <path
     d="M 4.236106,61.495991 C 4.236106,60.475586 2.849624,60.519785 2.170314,60.736933 C 2.076153,61.902424 3.36463,61.657411 2.154941,63.391716 C 3.212819,63.112113 3.907501,62.478924 4.236106,61.495991"
     id="path5"
     style="fill:#e60000;filter:url(#filter4307)" />
  <g
     id="g2506">
    <path
       style="fill:#b4b4b4"
       id="path7"
       d="M 34.255435,38.756908 C 34.255435,31.780297 35.722627,23.092441 42.796283,19.830412 C 47.466894,17.678145 55.304412,17.848213 60.320923,18.842675 C 74.572004,21.663682 72.304437,40.001187 72.304437,50.91049 C 72.304437,55.811701 70.916994,57.061745 75.872973,57.061745 C 77.044229,57.061745 89.406311,57.202027 89.406311,56.928189 C 89.406311,47.158435 90.8687,36.105008 88.679921,26.506282 C 81.448689,-5.2185149 25.157303,-5.2185149 17.924149,26.506282 C 15.736332,36.105008 17.19872,47.158435 17.19872,56.928189 C 17.19872,57.203949 28.3588,57.061745 29.381127,57.061745 C 35.331568,57.061745 34.255435,56.862853 34.255435,50.91049 C 34.255435,46.858655 34.255435,42.806821 34.255435,38.756908" />
    <path
       style="fill:#989898"
       id="path9"
       d="M 70.994821,21.872183 C 66.816157,15.694985 62.264689,15.717084 55.326511,16.274367 C 48.502672,16.823964 40.143422,16.977697 36.311618,23.682393 C 33.379155,28.812282 32.699845,34.5965 32.183878,40.335557 C 31.906197,43.408303 31.650615,46.505069 31.118314,49.545146 C 30.439965,53.393283 27.796713,53.034892 25.388864,55.128548 C 28.523103,55.150648 31.658302,55.172747 34.792541,55.195807 C 34.792541,47.97034 34.348636,40.606512 34.87229,33.396419 C 35.844653,20.057169 47.666747,16.850867 59.14102,18.508305 C 72.334223,20.412677 72.556176,32.529747 72.556176,43.139269 C 72.556176,47.10655 72.556176,51.072871 72.556176,55.03823 C 72.556176,55.669498 80.439814,59.415787 80.439814,54.632758 C 74.387524,54.720194 74.249164,45.122429 74.264538,41.033122 C 74.293363,33.689473 75.245548,28.62492 70.994821,21.872183" />
    <path
       style="fill:url(#linearGradient2494-42-823)"
       id="path16"
       d="M 47.662904,2.9966107 C 30.95305,2.9966107 17.190073,16.639484 17.190073,33.334925 C 17.190073,37.138865 15.535518,57.270246 18.660148,57.270246 C 23.884199,57.270246 29.10825,57.270246 34.331341,57.270246 C 35.823515,57.270246 35.012571,46.566562 35.012571,44.897594 C 35.012571,32.646969 35.753374,18.720649 51.256421,18.720649 C 56.944555,18.720649 63.070828,18.181622 67.398422,22.654301 C 72.075759,27.486332 72.297712,34.668562 72.297712,40.987002 C 72.297712,46.203367 72.297712,51.41781 72.297712,56.632253 C 72.297712,58.028344 83.390533,57.271207 85.056618,57.271207 C 89.907866,57.271207 90.161526,58.216667 90.161526,53.455738 C 90.161526,47.500492 90.161526,41.547168 90.161526,35.591923 C 90.161526,20.434776 81.641816,6.9254585 66.083041,3.6586249 C 60.141247,2.4095415 53.697899,2.9966107 47.662904,2.9966107 M 17.952014,32.853548 C 17.952014,-1.2079963 73.317156,-7.4995334 86.633346,20.559684 C 91.44616,30.70032 89.398624,44.301878 89.398624,55.206376 C 89.398624,58.109054 81.360292,56.604389 78.911128,56.604389 C 72.064229,56.604389 73.060613,56.516953 73.060613,49.710409 C 73.060613,38.164074 74.707482,19.607499 59.000738,18.137423 C 54.102409,17.680067 47.551447,17.320715 43.026883,19.403802 C 35.744727,22.752306 34.244866,31.632329 34.244866,38.808793 C 34.244866,43.815696 34.244866,48.825481 34.244866,53.834306 C 34.244866,58.798932 28.067668,56.604389 23.789077,56.604389 C 18.184535,56.604389 17.951053,57.545044 17.951053,51.992388 C 17.951053,46.004475 17.951053,40.0156 17.951053,34.026725 C 17.952014,33.636627 17.952014,33.243646 17.952014,32.853548" />
    <path
       style="fill:#989898"
       id="path18"
       d="M 73.541991,10.688082 C 75.703866,18.078813 62.664396,10.122151 59.212121,9.7176403 C 53.708468,9.0738819 47.866601,10.542996 42.64255,12.148549 C 39.966628,12.969101 35.710137,15.369262 32.814185,14.74376 C 30.812769,14.310424 32.482697,11.2617 33.291719,10.488229 C 36.458626,7.4558385 41.5251,6.2711309 45.714334,5.7234559 C 50.576151,5.0864233 71.476199,3.6163482 73.541991,10.688082" />
    <path
       style="fill:#cccccc"
       id="path20"
       d="M 21.121803,31.199953 C 20.34545,36.070418 20.642347,41.362688 20.941166,46.260056 C 21.015151,47.49761 22.869559,54.83069 24.06964,49.997698 C 25.219757,45.362638 24.149389,39.893574 23.774664,35.212394 C 23.643991,33.546309 25.179402,20.826796 26.111411,21.271662 C 23.579615,20.067738 21.304361,30.048875 21.121803,31.199953" />
    <path
       style="fill:#cccccc"
       id="path22"
       d="M 70.450029,18.79079 C 72.137252,20.379048 74.05988,22.446761 74.817978,24.692229 C 75.686571,27.259576 73.451672,28.103187 72.075759,25.970137 C 70.49711,23.519051 69.512256,20.353105 67.173587,18.483323 C 66.5894,18.015398 61.553672,15.578724 61.682424,14.843687 C 62.0927,12.538647 69.973456,18.342081 70.450029,18.79079" />
    <path
       style="fill:#cccccc"
       id="path24"
       d="M 57.822756,5.9655859 C 57.181881,7.3578335 54.485782,6.9465968 53.31933,7.0282676 C 48.939852,7.3338127 44.61418,8.4282019 40.796789,10.630432 C 39.210453,11.545145 30.482242,19.872689 28.757546,18.505423 C 23.307699,14.174946 35.519892,7.8814877 37.816283,7.083996 C 39.136468,6.6247176 58.870065,3.6960974 57.822756,5.9655859" />
    <path
       style="fill:#cccccc"
       id="path26"
       d="M 83.42128,17.398543 C 85.202665,20.459758 91.553774,34.691622 86.606443,37.332953 C 84.511826,38.450402 82.916842,25.312927 82.347068,23.753495 C 80.969233,19.980302 79.17824,17.329363 75.65102,15.307769 C 73.877322,14.291207 69.544924,13.338061 68.58313,11.352018 C 67.089034,8.2629386 73.857144,8.6914702 75.089893,9.2881478 C 78.488361,10.935977 81.536125,14.158612 83.42128,17.398543" />
  </g>
  <path
     d="M 103.72637,117.57311 C 103.72637,132.52656 87.581481,134.34446 76.02842,134.34446 C 64.525323,134.34446 53.020303,134.34446 41.518167,134.34446 C 31.783003,134.34446 20.152114,135.70212 11.156792,131.47253 C 0.1859966,126.31285 2.32289,113.85276 2.32289,103.83415 C 2.32289,93.789602 1.925105,83.65281 2.4141692,73.612101 C 3.0425542,60.655262 9.0660188,55.019974 21.635641,55.019974 C 42.931553,55.019974 64.229386,55.019974 85.526258,55.019974 C 101.50204,55.019974 103.72637,66.635489 103.72637,80.355229 C 103.72637,92.76151 103.72637,105.16779 103.72637,117.57311"
     id="path41"
     style="fill:#ff4231;fill-opacity:1;filter:url(#filter4303)" />
  <path
     d="M 82.632747,105.5012 C 86.45206,105.69145 83.873183,110.63878 82.74036,112.21839 C 78.55497,118.07274 71.561064,121.84402 64.932274,124.19517 C 53.235088,128.34309 40.331096,128.55448 28.165023,126.70295 C 21.385383,125.67294 5.0310376,123.33427 2.4915546,115.14316 C -0.48606819,105.53387 17.186541,110.92414 20.272738,111.93302 C 32.40422,115.90607 43.670953,118.23513 56.514413,116.84864 C 63.14032,116.13186 69.993945,114.52727 75.250664,110.20736 C 77.419265,108.4279 79.506195,105.3417 82.632747,105.5012"
     id="path43"
     style="opacity:0.86000001;fill:url(#radialGradient2485);fill-opacity:1;filter:url(#filter4315)" />
  <path
     d="M 25.651117,87.875672 C 25.651117,91.606589 26.494728,100.47316 22.879112,103.23363 C 20.782574,104.83246 19.103998,102.02394 18.574579,100.33768 C 14.530431,87.478848 21.645402,73.456446 8.5136918,64.126753 C 6.8994918,62.979518 3.3107788,61.925484 2.2653918,60.196945 C 1.2248098,58.478975 7.8622468,58.039874 8.5405948,58.10521 C 22.269944,59.393688 25.651117,76.930819 25.651117,87.875672"
     id="path45"
     style="opacity:0.86000001;fill:url(#radialGradient2482);fill-opacity:1;filter:url(#filter4311)" />
  <path
     d="M 3.4064059,72.399529 C 1.8364039,79.968014 1.3348489,88.745227 4.3518659,96.037952 C 6.5022109,101.23702 13.82184,107.31141 19.440794,102.79165 C 27.424358,96.372322 20.743684,76.827049 32.742571,74.105969 C 39.290651,72.621481 46.705402,73.209511 52.339729,68.836759 C 55.92652,66.051303 54.064425,62.896887 50.53048,61.270196 C 38.448,55.708892 6.9749409,55.223671 3.4064059,72.399529"
     id="path47"
     style="opacity:0.86000001;fill:url(#radialGradient2479);fill-opacity:1;filter:url(#filter4319)" />
  <path
     d="M 10.780353,124.73901 C 10.780353,112.60656 10.780353,100.47412 10.780353,88.341677 C 10.780353,75.449214 9.9694097,57.630559 27.322061,57.630559 C 50.866323,57.630559 74.409623,57.630559 97.953885,57.630559 C 93.463911,54.416571 87.535568,55.019974 82.29134,55.019974 C 74.813173,55.019974 67.333085,55.019974 59.852037,55.019974 C 46.292756,55.019974 32.733475,55.019974 19.174194,55.019974 C 0.64644327,55.019974 2.9726209,75.227262 2.9726209,88.49541 C 2.9726209,100.78063 -1.8680577,125.21174 12.006377,131.56285 C 11.137783,129.39809 10.780353,127.06326 10.780353,124.73901"
     id="path49"
     style="fill:#ff2a2a;filter:url(#filter4287)" />
  <path
     d="M 88.298435,55.019974 C 68.526405,55.019974 48.756297,55.019974 28.983306,55.019974 C 21.017998,55.019974 10.161541,53.385597 5.6609976,61.660294 C 1.0115248,70.207868 2.9120532,83.44623 2.9120532,92.945029 C 2.9120532,102.00665 0.71847053,114.39371 3.7989025,123.16324 C 7.9141519,134.87484 23.095319,134.34542 33.330117,134.34542 C 45.295375,134.34542 57.259673,134.34542 69.224931,134.34542 C 79.188773,134.34542 91.877539,135.84912 99.772707,128.66497 C 108.20017,120.99656 104.31553,99.946622 104.31553,89.938582 C 104.31553,76.760752 107.04141,55.019974 88.298435,55.019974 M 101.20435,109.11489 C 101.20435,136.02496 61.404708,129.31738 43.739786,129.31738 C 34.632046,129.31738 23.460436,130.71347 14.973395,126.90569 C 3.2541099,121.64801 5.0633592,107.79087 5.0633592,97.162127 C 5.0633592,87.412551 3.3194466,75.089862 6.3239726,65.627575 C 9.8377404,54.561657 21.688659,55.798249 31.01643,55.798249 C 43.298763,55.798249 55.578214,55.798249 67.861508,55.798249 C 76.339902,55.798249 88.718319,54.010138 95.674753,59.563755 C 102.18632,64.761864 100.75372,74.932286 100.85172,82.392196 C 100.9699,91.299122 101.08713,100.20701 101.20435,109.11489"
     id="path51"
     style="fill:#ff0000;filter:url(#filter4283)" />
  <path
     d="M 17.867722,54.363691 C 1.9251347,54.363691 1.0334997,69.230661 1.0334997,81.461111 C 1.0334997,92.680756 1.0334997,103.89946 1.0334997,115.11815 C 1.0334997,140.83389 34.32704,135.4292 52.365655,135.4292 C 69.764195,135.4292 105.29749,141.21534 105.29749,115.89738 C 105.29749,104.75268 105.29749,93.604116 105.29749,82.458461 C 105.29749,71.985371 105.80645,57.152031 92.547505,54.728811 C 80.525974,52.530421 66.780413,54.363691 54.645243,54.363691 C 42.385746,54.363691 30.126248,54.363691 17.867722,54.363691 M 2.7924875,117.78638 C 2.7924875,108.09445 2.7924875,98.401556 2.7924875,88.708676 C 2.7924875,79.680691 0.42159333,64.944391 8.3802614,58.763351 C 14.031167,54.376181 25.275678,56.102801 32.002761,56.102801 C 44.663393,56.102801 57.325005,56.102801 69.985647,56.102801 C 77.310065,56.102801 86.597449,54.716321 93.77424,56.808051 C 105.27127,60.160401 103.53947,75.319461 103.53947,84.730831 C 103.53947,95.513296 103.53947,106.29577 103.53947,117.08017 C 103.53947,130.95652 89.765766,133.68721 78.326992,133.68721 C 64.678567,133.68721 51.031111,133.68721 37.384626,133.68721 C 24.890081,133.68817 2.7924875,135.30622 2.7924875,117.78638"
     id="path58"
     style="fill:url(#linearGradient2474);fill-opacity:1" />
</svg>
