<?xml version="1.0" encoding="UTF-8" standalone="no"?>
<!-- Created with Inkscape (http://www.inkscape.org/) -->
<svg
   xmlns:dc="http://purl.org/dc/elements/1.1/"
   xmlns:cc="http://creativecommons.org/ns#"
   xmlns:rdf="http://www.w3.org/1999/02/22-rdf-syntax-ns#"
   xmlns:svg="http://www.w3.org/2000/svg"
   xmlns="http://www.w3.org/2000/svg"
   xmlns:sodipodi="http://sodipodi.sourceforge.net/DTD/sodipodi-0.dtd"
   xmlns:inkscape="http://www.inkscape.org/namespaces/inkscape"
   width="48"
   height="48"
   id="svg2"
   sodipodi:version="0.32"
   inkscape:version="0.46"
   sodipodi:docname="start2.svg"
   inkscape:output_extension="org.inkscape.output.svg.inkscape"
   version="1.0">
  <defs
     id="defs4">
    <inkscape:perspective
       sodipodi:type="inkscape:persp3d"
       inkscape:vp_x="0 : 526.18109 : 1"
       inkscape:vp_y="0 : 1000 : 0"
       inkscape:vp_z="744.09448 : 526.18109 : 1"
       inkscape:persp3d-origin="372.04724 : 350.78739 : 1"
       id="perspective10" />
    <inkscape:perspective
       id="perspective2390"
       inkscape:persp3d-origin="372.04724 : 350.78739 : 1"
       inkscape:vp_z="744.09448 : 526.18109 : 1"
       inkscape:vp_y="0 : 1000 : 0"
       inkscape:vp_x="0 : 526.18109 : 1"
       sodipodi:type="inkscape:persp3d" />
    <filter
       inkscape:collect="always"
       id="filter4880">
      <feGaussianBlur
         inkscape:collect="always"
         stdDeviation="0.704446"
         id="feGaussianBlur4882" />
    </filter>
    <filter
       inkscape:collect="always"
       id="filter3305">
      <feGaussianBlur
         inkscape:collect="always"
         stdDeviation="0.70500374"
         id="feGaussianBlur3307" />
    </filter>
  </defs>
  <sodipodi:namedview
     id="base"
     pagecolor="#ffffff"
     bordercolor="#666666"
     borderopacity="1.0"
     gridtolerance="10000"
     guidetolerance="10"
     objecttolerance="10"
     inkscape:pageopacity="0.0"
     inkscape:pageshadow="2"
     inkscape:zoom="6.1193304"
     inkscape:cx="4.6753674"
     inkscape:cy="10.974175"
     inkscape:document-units="px"
     inkscape:current-layer="layer1"
     showgrid="false"
     inkscape:window-width="911"
     inkscape:window-height="1111"
     inkscape:window-x="250"
     inkscape:window-y="52">
    <inkscape:grid
       type="xygrid"
       id="grid2431"
       visible="true"
       enabled="true" />
  </sodipodi:namedview>
  <metadata
     id="metadata7">
    <rdf:RDF>
      <cc:Work
         rdf:about="">
        <dc:format>image/svg+xml</dc:format>
        <dc:type
           rdf:resource="http://purl.org/dc/dcmitype/StillImage" />
        <dc:title>Checkered flag</dc:title>
        <dc:subject>
          <rdf:Bag>
            <rdf:li>Checkered flag racing race cars</rdf:li>
          </rdf:Bag>
        </dc:subject>
      </cc:Work>
    </rdf:RDF>
  </metadata>
  <g
     inkscape:label="Layer 1"
     inkscape:groupmode="layer"
     id="layer1">
    <path
       style="fill:#008000;fill-opacity:1;fill-rule:evenodd;stroke:none;stroke-width:0.54870886;stroke-linecap:round;stroke-linejoin:bevel;stroke-miterlimit:4;stroke-dasharray:none;stroke-opacity:1"
       d=""
       id="path4755" />
    <g
       id="g3309"
       transform="matrix(0.9930329,0,0,1.0071295,0.1672105,-0.171108)">
      <g
         transform="translate(30.97324,2.4987491)"
         style="stroke:#ffffff;stroke-opacity:1;filter:url(#filter3305)"
         id="g3284">
        <g
           id="g3226"
           transform="translate(-38.863448,-10.666171)"
           style="fill:#ffffff;stroke:#ffffff;stroke-opacity:1">
          <path
             sodipodi:nodetypes="csssscccssssscccccccccsssccsssssssssssscccssssssscccssssssssscccsccssscccssccssssssssssscccsssssssssssssssssssscccsssssccccscccssccsssscccssssssssccssscccsc"
             id="path3228"
             d="M 54.519399,40.964659 C 52.280737,39.666761 49.643677,39.065487 47.724808,39.41545 C 44.835406,39.942412 42.372746,42.015858 38.060286,47.55253 C 34.910467,51.59651 33.193152,53.266657 31.172206,54.251422 C 29.629872,55.002965 29.579835,55.012671 27.281397,55.005827 C 24.713084,54.998186 23.735571,54.732206 21.650704,53.473713 L 20.575069,52.824426 L 14.648641,38.102909 C 11.389107,30.006078 8.7218237,23.260946 8.7213477,23.113726 C 8.7207547,22.930088 9.0527977,23.029998 9.7791267,23.432007 C 12.306541,24.830876 14.906629,25.436084 16.762761,25.057547 C 19.644029,24.469959 21.909586,22.576875 26.095558,17.259126 C 28.905752,13.689122 30.64144,11.829918 32.048422,10.882616 C 34.959505,8.9226231 38.502698,8.8124981 42.036792,10.572171 L 54.519399,40.964659 z M 30.08782,54.337462 C 30.64078,54.130177 31.683273,53.545163 32.404474,53.03743 L 33.715749,52.114283 L 33.37821,51.275719 C 33.192563,50.814505 32.66861,49.521315 32.213867,48.40197 L 31.387065,46.366786 L 30.186501,47.258302 C 28.99713,48.141507 27.22076,48.945102 26.457799,48.945102 C 26.240148,48.945102 26.062071,49.048736 26.062071,49.175401 C 26.062071,49.302057 26.531256,50.60014 27.104707,52.060016 C 28.28042,55.05313 28.246921,55.027559 30.08782,54.337462 z M 25.860423,49.042701 C 25.860423,48.986967 25.36135,47.714455 24.751369,46.214894 C 24.141389,44.715331 23.642313,43.424452 23.642313,43.346257 C 23.642313,43.268071 24.164072,43.055542 24.80178,42.873976 C 26.02977,42.524347 26.908032,42.066498 28.107551,41.150659 C 28.51168,40.842104 28.887496,40.589652 28.942696,40.589652 C 28.997897,40.589652 29.520248,41.775827 30.103474,43.2256 C 30.6867,44.675365 31.249086,45.951066 31.353226,46.060488 C 31.566429,46.284489 32.636223,45.177142 34.572465,42.728249 C 35.242925,41.880268 35.81071,41.186473 35.834205,41.186473 C 35.857701,41.186473 36.360247,42.395028 36.950974,43.872147 C 37.541701,45.349274 38.095648,46.557829 38.181974,46.557829 C 38.268299,46.557829 38.771465,45.998314 39.300122,45.314462 C 39.828779,44.63061 40.790664,43.522447 41.437646,42.851875 L 42.613973,41.632664 L 41.628515,39.171492 C 41.086512,37.817859 40.580436,36.538127 40.503904,36.327653 C 40.379163,35.984603 40.269451,36.03613 39.444778,36.824994 C 38.938796,37.309011 37.936312,38.443588 37.217037,39.346276 C 36.497763,40.248964 35.878374,40.987532 35.840616,40.987532 C 35.802857,40.987532 35.255593,39.684741 34.624472,38.092448 C 33.993351,36.500153 33.453262,35.224453 33.424274,35.257559 C 33.395285,35.290666 32.646705,36.212986 31.760765,37.307149 C 30.874825,38.401319 29.881461,39.544277 29.553293,39.847052 L 28.956621,40.397563 L 27.888734,37.65872 C 27.301396,36.15236 26.7475,34.841382 26.657852,34.745434 C 26.567857,34.649117 26.10072,34.889615 25.61486,35.2824 C 24.637623,36.072416 22.882966,36.939265 21.877907,37.128544 C 21.517465,37.196426 21.222557,37.312322 21.222557,37.386099 C 21.222557,37.459876 21.721631,38.747154 22.331612,40.246715 C 22.941592,41.746267 23.440668,43.018781 23.440668,43.074523 C 23.440668,43.287808 21.457725,43.162706 20.357627,42.880011 C 19.724408,42.717296 18.571083,42.268556 17.794682,41.882816 C 17.018281,41.497074 16.383045,41.20917 16.383045,41.243023 C 16.383045,41.276878 16.906206,42.598465 17.545624,44.179877 L 18.708204,47.055179 L 20.217438,47.799167 C 21.047517,48.208353 22.225748,48.672456 22.835728,48.830506 C 23.914478,49.110004 25.860423,49.246525 25.860423,49.042701 z M 54.081435,38.077804 C 53.512179,36.669192 52.946863,35.397814 52.825166,35.252499 C 52.485688,34.84717 50.91477,34.115902 49.381395,33.649428 C 47.819908,33.174398 45.716055,33.071089 45.881451,33.477568 C 45.937103,33.614336 46.461535,34.912419 47.046852,36.362191 L 48.111067,38.99814 L 49.365756,38.99814 C 50.719998,38.99814 52.626125,39.514384 54.090917,40.277872 C 54.589987,40.538011 55.024897,40.725663 55.057377,40.694875 C 55.089858,40.664096 54.650682,39.486416 54.081435,38.077804 z M 20.928983,37.157074 C 20.982368,37.019833 20.534513,35.699368 19.933749,34.222724 C 19.332988,32.746072 18.883482,31.470766 18.934852,31.388706 C 18.98622,31.306645 19.1556,31.239502 19.311252,31.239502 C 19.97322,31.239502 21.906496,30.354143 23.036309,29.533585 C 24.240176,28.659252 24.257477,28.65385 24.430946,29.098392 C 25.17523,31.005732 26.546535,34.341608 26.619583,34.422534 C 26.734425,34.549745 28.170306,32.967201 29.731029,30.993277 C 30.400436,30.146648 31.013747,29.493953 31.093942,29.542853 C 31.174139,29.591753 31.719474,30.84769 32.305799,32.33383 C 32.892123,33.819969 33.43765,35.009797 33.518081,34.977885 C 33.598511,34.945982 34.393949,34.024654 35.285723,32.930483 C 36.177494,31.836322 37.141066,30.726629 37.426995,30.464515 L 37.946868,29.987948 L 38.134586,30.464515 C 38.23783,30.726629 38.743561,32.011729 39.258432,33.320291 C 39.773303,34.628853 40.227137,35.731631 40.266948,35.770905 C 40.306758,35.810187 40.779268,35.509327 41.316969,35.102329 C 42.347363,34.322397 44.184691,33.429924 44.770519,33.424786 C 45.741587,33.416265 45.723155,33.177208 44.523055,30.215339 C 43.886781,28.644995 43.347718,27.341098 43.325137,27.317777 C 43.302556,27.294447 42.834595,27.392704 42.285225,27.536103 C 41.04799,27.859074 39.912228,28.425703 38.889299,29.230318 C 38.458151,29.569451 38.049819,29.846209 37.98189,29.845322 C 37.913959,29.844442 37.368177,28.613505 36.769039,27.109913 C 36.169904,25.60631 35.646241,24.336916 35.605348,24.289026 C 35.470387,24.131001 33.708689,25.941121 32.471136,27.509382 C 31.801977,28.357364 31.189891,29.051168 31.110941,29.051168 C 31.031994,29.051168 30.482095,27.837658 29.88895,26.354478 C 29.295799,24.8713 28.756388,23.624797 28.690254,23.58447 C 28.624121,23.544142 27.920952,24.332419 27.127654,25.336194 C 25.687981,27.157847 24.316682,28.603237 24.182246,28.44075 C 24.14317,28.393518 23.627978,27.146322 23.037374,25.669195 C 22.446771,24.192077 21.939879,22.953067 21.910949,22.91584 C 21.88202,22.878623 21.37502,23.203253 20.78428,23.637244 C 19.399951,24.654248 18.946869,24.882587 17.562439,25.260949 L 16.422903,25.572386 L 17.512028,28.249558 C 18.111047,29.722002 18.601154,31.052297 18.601154,31.205762 C 18.601154,31.43123 18.345353,31.457766 17.268556,31.343996 C 15.77657,31.186367 14.365548,30.752358 12.799289,29.969334 C 12.219529,29.679488 11.745178,29.518487 11.745178,29.611552 C 11.745178,30.176847 13.848831,34.986599 14.250848,35.340462 C 15.575378,36.506346 20.645628,37.885576 20.928983,37.157074 z M 49.305918,26.245382 L 48.142346,23.381393 L 46.892711,22.729391 C 44.833755,21.655117 41.185547,20.900184 41.185547,21.548382 C 41.185547,21.689102 41.675607,23.009566 42.27457,24.48274 L 43.363594,27.161246 L 44.682191,27.292848 C 46.320504,27.456371 47.810687,27.895369 49.251402,28.638918 C 49.861381,28.953727 50.384989,29.188366 50.414973,29.160336 C 50.444959,29.132307 49.945884,27.820582 49.305918,26.245382 z M 38.140822,22.302902 C 38.540006,22.10506 39.229577,21.834759 39.6732,21.702225 C 40.11682,21.569683 40.587435,21.428287 40.719007,21.387995 C 40.877649,21.33941 40.583253,20.389588 39.845025,18.568215 C 39.232763,17.05763 38.651627,15.739511 38.55361,15.639066 C 38.140121,15.215335 35.648833,16.267183 33.764614,17.661038 L 33.160678,18.107801 L 32.054815,15.381027 C 31.446589,13.881298 30.852464,12.622515 30.734532,12.583734 C 30.533622,12.517661 27.315748,16.194609 26.679076,17.217753 C 26.411438,17.647853 26.47364,17.896897 27.47256,20.394717 C 28.068699,21.88538 28.608661,23.136838 28.672477,23.175751 C 28.736293,23.214664 29.464666,22.403171 30.291086,21.372438 C 31.81365,19.473451 33.054665,18.165451 33.185279,18.322034 C 33.244526,18.393062 34.717707,21.997499 35.355518,23.631964 C 35.530764,24.081047 35.531808,24.08081 36.472979,23.372037 C 36.991107,22.981852 37.741637,22.500743 38.140822,22.302902 z M 45.621767,17.217534 C 45.621767,17.164619 45.163792,15.978436 44.604046,14.581586 C 43.450362,11.702558 43.224316,11.446328 41.04641,10.548859 C 39.679766,9.9856901 36.678247,9.3599781 36.445391,9.5897071 C 36.386709,9.6476031 36.858896,11.006347 37.494695,12.609129 L 38.650693,15.523293 L 39.867707,15.525954 C 41.138891,15.528729 43.895718,16.337675 44.826898,16.981148 C 45.302292,17.309651 45.621767,17.40466 45.621767,17.217534 z"
             style="fill:#ffffff;stroke:#ffffff;stroke-width:0.992028;stroke-miterlimit:4;stroke-dasharray:none;stroke-opacity:1" />
          <path
             sodipodi:nodetypes="ccc"
             inkscape:connector-type="polyline"
             id="path3230"
             d="M 42.073724,10.930632 L 42.957837,11.862351 L 54.765131,40.614116"
             style="fill:#ffffff;fill-rule:evenodd;stroke:#ffffff;stroke-width:0.77200001;stroke-linecap:round;stroke-linejoin:bevel;stroke-miterlimit:4;stroke-dasharray:none;stroke-opacity:1" />
        </g>
        <path
           style="fill:#ffffff;fill-opacity:1;fill-rule:evenodd;stroke:#ffffff;stroke-width:0.1261576;stroke-linecap:round;stroke-linejoin:bevel;stroke-miterlimit:4;stroke-dasharray:none;stroke-opacity:1"
           d="M -20.000535,26.410325 C -21.297641,26.130797 -22.761918,25.610943 -23.805194,25.059577 C -24.503524,24.690517 -24.664313,24.491442 -25.316798,23.188039 C -25.973097,21.87701 -26.046948,21.613707 -26.046948,20.584705 C -26.046948,19.556921 -26.017717,19.452379 -25.760969,19.561848 C -23.717907,20.432935 -20.525994,21.072391 -20.272035,20.661478 C -20.216027,20.570854 -20.647383,19.262381 -21.230602,17.753753 C -21.81382,16.245128 -22.272022,14.993414 -22.248828,14.972168 C -22.225633,14.950919 -21.684861,14.779008 -21.04711,14.590138 C -20.33935,14.380531 -19.334053,13.888184 -18.466936,13.326482 C -17.685593,12.820335 -17.014902,12.437633 -16.976516,12.476021 C -16.938128,12.514411 -16.42959,13.709295 -15.846433,15.131324 C -15.263275,16.553349 -14.744914,17.758064 -14.69452,17.80846 C -14.555253,17.947726 -13.600143,16.974587 -11.871662,14.932306 C -11.012274,13.916894 -10.251239,13.144749 -10.180485,13.216432 C -10.109727,13.288116 -9.5985263,14.413056 -9.0444733,15.716303 C -8.4904193,17.019551 -7.9668993,18.159381 -7.8810963,18.24926 C -7.7195293,18.418498 -7.6979353,18.397308 -4.9037033,15.327794 C -4.1053543,14.450792 -3.3921198,13.793359 -3.3187393,13.866836 C -3.2453587,13.940312 -2.7862725,14.956416 -2.2985476,16.124845 C -1.1354694,18.911187 -1.0206676,19.148051 -0.8332271,19.148051 C -0.7460379,19.148051 -0.3218934,18.894583 0.1093204,18.584786 C 1.1941728,17.805403 2.3769296,17.228227 3.4757002,16.942032 C 3.9873362,16.808774 4.4179748,16.71746 4.432684,16.739123 C 4.6315407,17.031993 6.3524904,21.573977 6.4183326,21.979711 C 6.5064386,22.522633 6.4946367,22.535538 5.735065,22.726801 C 4.8071334,22.960459 3.5537643,23.572818 2.5509519,24.282473 C 2.1464959,24.568687 1.7311171,24.853939 1.6278885,24.916356 C 1.5028144,24.991985 1.0759393,24.116974 0.3482011,22.293216 C -0.2523972,20.788077 -0.8005536,19.49757 -0.8699207,19.425431 C -1.010642,19.279084 -1.8288116,20.109988 -3.8150243,22.416383 C -4.5503393,23.270234 -5.2309063,23.96884 -5.3273933,23.96884 C -5.4238783,23.96884 -5.9887703,22.836654 -6.5827043,21.452872 C -7.1766403,20.069093 -7.7326923,18.92926 -7.8183833,18.919915 C -7.9040763,18.910574 -8.8600593,19.926539 -9.9427993,21.17762 C -11.02554,22.428698 -11.9884,23.47776 -12.082495,23.50886 C -12.176594,23.53996 -12.501,22.957574 -12.803409,22.214666 C -14.222491,18.728483 -14.487417,18.167552 -14.714806,18.167552 C -14.845567,18.167552 -15.37136,18.451351 -15.883233,18.798217 C -17.127501,19.641382 -17.942996,20.043849 -19.07252,20.372212 C -20.17572,20.692921 -20.192487,20.329831 -18.915128,23.780686 C -18.421125,25.115266 -18.056482,26.310252 -18.104816,26.436205 C -18.211685,26.714706 -18.613546,26.70922 -20.000535,26.410325 z"
           id="path3232" />
        <path
           style="fill:#ffffff;fill-opacity:1;fill-rule:evenodd;stroke:#ffffff;stroke-width:0.1261576;stroke-linecap:round;stroke-linejoin:bevel;stroke-miterlimit:4;stroke-dasharray:none;stroke-opacity:1"
           d="M -3.6697205,12.342336 C -4.2714253,10.941026 -5.6198763,7.5982078 -5.6198763,7.5078859 C -5.6198763,7.172341 -1.9354213,5.1984306 -0.936977,4.9990705 C -0.4462959,4.9010958 -0.4037717,4.9347057 -0.063053,5.6896771 C 0.8389656,7.6883909 1.74346,10.092095 1.6999945,10.374997 C 1.6654907,10.59957 1.3040508,10.812966 0.4031075,11.140692 C -0.2838713,11.390587 -1.2935487,11.899005 -1.8406184,12.270515 C -3.2887687,13.253938 -3.2784636,13.253529 -3.6697188,12.342338 L -3.6697205,12.342336 z"
           id="path3234" />
        <path
           style="fill:#ffffff;fill-opacity:1;fill-rule:evenodd;stroke:#ffffff;stroke-width:0.1261576;stroke-linecap:round;stroke-linejoin:bevel;stroke-miterlimit:4;stroke-dasharray:none;stroke-opacity:1"
           d="M 4.4937086,5.5790409 C 3.5139936,5.1905539 1.451549,4.7673932 0.5378134,4.7673932 L -0.181767,4.7673932 L -0.5497746,3.8277479 C -1.507394,1.3825523 -2.3621183,-0.99608537 -2.3040139,-1.0541898 C -2.2034163,-1.1547841 0.3320997,-0.64388834 1.4577147,-0.29622122 C 2.2657492,-0.04664489 2.5903974,0.15980416 3.051474,0.7172753 C 3.5090535,1.2705221 4.6788825,3.7000608 5.4293224,5.6556783 C 5.5489074,5.9673137 5.4530897,5.9594681 4.4937053,5.5790409 L 4.4937086,5.5790409 z"
           id="path3236" />
        <path
           style="fill:#ffffff;fill-opacity:1;fill-rule:evenodd;stroke:#ffffff;stroke-width:0.1261576;stroke-linecap:round;stroke-linejoin:bevel;stroke-miterlimit:4;stroke-dasharray:none;stroke-opacity:1"
           d="M -10.536887,11.526639 C -10.726868,11.089642 -11.098801,10.180567 -11.363402,9.5064741 C -11.627999,8.8323805 -11.914704,8.1119307 -12.000517,7.9054735 C -12.427783,6.8775179 -12.073074,6.2547766 -9.3411173,3.2364708 L -8.1773003,1.9506717 L -7.7391343,2.8279278 C -7.4981423,3.3104201 -6.9461953,4.5772711 -6.5125833,5.6431541 C -5.8101863,7.3697597 -5.7536383,7.597595 -5.9940943,7.732162 C -6.1425323,7.8152332 -7.0315523,8.7853802 -7.9696863,9.8880421 C -10.264656,12.585498 -10.117404,12.491513 -10.536882,11.526641 L -10.536887,11.526639 z"
           id="path3238" />
        <path
           style="fill:#ffffff;fill-opacity:1;fill-rule:evenodd;stroke:#ffffff;stroke-width:0.1261576;stroke-linecap:round;stroke-linejoin:bevel;stroke-miterlimit:4;stroke-dasharray:none;stroke-opacity:1"
           d="M -15.235631,38.247872 C -16.175816,38.09156 -17.733676,37.516324 -19.198746,36.784494 L -20.112828,36.327897 L -21.2045,33.597631 C -21.80492,32.095993 -22.27603,30.849516 -22.251415,30.827689 C -22.226803,30.80586 -21.551487,31.077327 -20.750723,31.430951 C -19.949961,31.78457 -18.846897,32.179536 -18.299474,32.308642 C -17.168522,32.575369 -15.424871,32.626219 -15.424871,32.392473 C -15.424871,32.270956 -16.303385,29.937603 -17.495537,26.89273 C -17.536401,26.78836 -17.071691,26.552631 -16.398141,26.336055 C -15.755591,26.129448 -14.603972,25.567456 -13.83899,25.087185 C -13.074006,24.606917 -12.396507,24.213965 -12.333436,24.213965 C -12.227075,24.213965 -10.936236,27.212288 -10.275567,28.9939 C -10.117256,29.420826 -9.9308843,29.770129 -9.8614163,29.770129 C -9.7157483,29.770129 -7.9136983,27.752215 -6.5300823,26.039738 C -6.0092263,25.395083 -5.5361923,24.869586 -5.4789073,24.871977 C -5.3496033,24.877366 -3.1627516,30.097843 -3.1661556,30.392988 C -3.1687702,30.619524 -6.0523453,34.101222 -6.8934943,34.893465 C -7.4842573,35.449884 -7.3111923,35.680952 -8.7297073,32.441862 C -9.2744923,31.197876 -9.7832763,30.117026 -9.8603373,30.039965 C -9.9382033,29.962092 -10.4249,30.187498 -10.955931,30.547366 C -12.117831,31.334759 -12.957579,31.763458 -14.03583,32.11968 C -15.432932,32.58124 -15.421141,32.366558 -14.219392,35.462163 C -13.624097,36.995596 -13.137039,38.290938 -13.137039,38.340712 C -13.137039,38.467317 -14.197957,38.420382 -15.235629,38.247868 L -15.235631,38.247872 z"
           id="path3240" />
        <path
           style="fill:#ffffff;fill-opacity:1;fill-rule:evenodd;stroke:#ffffff;stroke-width:0.1261576;stroke-linecap:round;stroke-linejoin:bevel;stroke-miterlimit:4;stroke-dasharray:none;stroke-opacity:1"
           d="M -10.570019,43.69818 C -10.859118,43.378725 -11.538468,41.814446 -12.242688,39.846672 C -12.725239,38.498302 -12.683898,38.276646 -11.94868,38.270292 C -11.47253,38.266176 -9.6963933,37.377861 -8.5629553,36.576955 C -7.6490383,35.931167 -7.4874403,35.866297 -7.3946983,36.107998 C -7.3355023,36.262277 -6.8384133,37.483765 -6.2900563,38.822421 C -5.7416953,40.161076 -5.2930433,41.310022 -5.2930433,41.37563 C -5.2930433,41.585389 -7.8545083,43.184988 -8.8379163,43.589358 C -9.9808373,44.059315 -10.229077,44.074914 -10.570019,43.698177 L -10.570019,43.69818 z"
           id="path3242" />
        <path
           style="fill:#ffffff;fill-opacity:1;fill-rule:evenodd;stroke:#ffffff;stroke-width:0.1261576;stroke-linecap:round;stroke-linejoin:bevel;stroke-miterlimit:4;stroke-dasharray:none;stroke-opacity:1"
           d="M -0.8737348,35.371575 C -0.9907967,35.121974 -1.5189002,33.900669 -2.0472913,32.657569 L -3.0080043,30.397393 L -1.3011068,28.391141 C 0.2445297,26.574433 1.3730175,25.429376 1.4935666,25.555435 C 1.5185906,25.581597 2.0241819,26.814326 2.6171128,28.294832 L 3.695167,30.986657 L 2.7386065,31.971704 C 2.2125015,32.513479 1.2827969,33.545051 0.6725994,34.264084 C 0.0624003,34.983117 -0.4872579,35.628565 -0.5488643,35.698413 C -0.6104707,35.768264 -0.7566616,35.621184 -0.8737299,35.37158 L -0.8737348,35.371575 z"
           id="path3244" />
        <path
           style="fill:#ffffff;fill-opacity:1;fill-rule:evenodd;stroke:#ffffff;stroke-width:0.1261576;stroke-linecap:round;stroke-linejoin:bevel;stroke-miterlimit:4;stroke-dasharray:none;stroke-opacity:1"
           d="M 14.434041,29.183538 C 13.661352,28.764527 11.540891,28.299379 10.403408,28.299379 L 9.3202318,28.299379 L 8.2149458,25.577033 C 7.3596414,23.47041 7.1577746,22.823722 7.322407,22.717752 C 7.6961407,22.477189 9.4459628,22.757837 11.117577,23.326447 C 12.009361,23.629793 12.802263,23.941249 12.879585,24.018571 C 13.012325,24.151316 14.830248,28.416775 15.052431,29.11681 C 15.17492,29.502733 15.047917,29.516441 14.43404,29.183543 L 14.434041,29.183538 z"
           id="path3246" />
        <path
           style="fill:#ffffff;fill-opacity:1;fill-rule:evenodd;stroke:#ffffff;stroke-width:0.1261576;stroke-linecap:round;stroke-linejoin:bevel;stroke-miterlimit:4;stroke-dasharray:none;stroke-opacity:1"
           d="M 9.9046977,17.67421 C 9.4397122,17.367858 7.2057112,16.729004 6.2278248,16.622744 C 4.3459588,16.418253 4.6439244,16.763637 3.2682069,13.192125 C 2.6700156,11.639151 2.4485845,10.877073 2.5731717,10.800074 C 2.984068,10.546127 5.7229656,11.144509 7.2803811,11.828491 L 8.1327881,12.202847 L 9.2638678,14.96459 C 9.8859603,16.483543 10.394947,17.752064 10.394947,17.783523 C 10.394947,17.890636 10.150445,17.836124 9.9046977,17.674214 L 9.9046977,17.67421 z"
           id="path3248" />
        <path
           style="fill:#ffffff;fill-opacity:1;fill-rule:evenodd;stroke:#ffffff;stroke-width:0.1261576;stroke-linecap:round;stroke-linejoin:bevel;stroke-miterlimit:4;stroke-dasharray:none;stroke-opacity:1"
           d="M 15.674098,30.061554 C 15.584641,29.946208 14.366359,27.057414 12.966806,23.642007 C 4.1629502,2.1574949 3.8548985,1.4294202 3.3468135,0.9052092 C 2.8630858,0.4061236 2.8280051,0.02831265 3.2653978,0.02831265 C 3.947492,0.02831265 4.2173107,0.6180814 10.068783,14.899221 C 10.89738,16.921501 12.592189,21.052619 13.835025,24.079483 C 15.077862,27.106347 16.117565,29.709297 16.14548,29.863817 C 16.208499,30.212621 15.893685,30.344675 15.674098,30.061549 L 15.674098,30.061554 z"
           id="path3250" />
        <path
           style="opacity:1;fill:#ffffff;fill-opacity:1;fill-rule:evenodd;stroke:#ffffff;stroke-width:0.1261576;stroke-linecap:round;stroke-linejoin:bevel;stroke-miterlimit:4;stroke-dasharray:none;stroke-opacity:1"
           d="M -26.197463,20.223874 C -26.204558,20.05161 -26.165935,19.955091 -26.111633,20.009393 C -26.05733,20.063698 -26.051527,20.204643 -26.098733,20.322608 C -26.150899,20.452971 -26.189622,20.414249 -26.197463,20.223877 L -26.197463,20.223874 z"
           id="path3280" />
        <path
           style="opacity:1;fill:#ffffff;fill-opacity:1;fill-rule:evenodd;stroke:#ffffff;stroke-width:0.1261576;stroke-linecap:round;stroke-linejoin:bevel;stroke-miterlimit:4;stroke-dasharray:none;stroke-opacity:1"
           d="M -26.612618,20.251113 C -26.779491,19.779248 -26.94848,19.302505 -26.988152,19.191684 C -27.044142,19.035271 -26.94467,19.030493 -26.543605,19.170306 C -26.150646,19.307293 -26.056364,19.414234 -26.14986,19.616923 C -26.21747,19.763496 -26.260431,20.159192 -26.245323,20.496238 C -26.230215,20.833285 -26.238412,21.10905 -26.263536,21.10905 C -26.288659,21.10905 -26.445748,20.722979 -26.612619,20.251113 L -26.612618,20.251113 z"
           id="path3282" />
      </g>
      <g
         transform="translate(-7.936239,-8.1674219)"
         id="g3222">
        <path
           style="fill:#000000;stroke-width:0.992028;stroke-miterlimit:4;stroke-dasharray:none"
           d="M 54.519399,40.964659 C 52.280737,39.666761 49.643677,39.065487 47.724808,39.41545 C 44.835406,39.942412 42.372746,42.015858 38.060286,47.55253 C 34.910467,51.59651 33.193152,53.266657 31.172206,54.251422 C 29.629872,55.002965 29.579835,55.012671 27.281397,55.005827 C 24.713084,54.998186 23.735571,54.732206 21.650704,53.473713 L 20.575069,52.824426 L 14.648641,38.102909 C 11.389107,30.006078 8.7218237,23.260946 8.7213477,23.113726 C 8.7207547,22.930088 9.0527977,23.029998 9.7791267,23.432007 C 12.306541,24.830876 14.906629,25.436084 16.762761,25.057547 C 19.644029,24.469959 21.909586,22.576875 26.095558,17.259126 C 28.905752,13.689122 30.64144,11.829918 32.048422,10.882616 C 34.959505,8.9226231 38.502698,8.8124981 42.036792,10.572171 L 54.519399,40.964659 z M 30.08782,54.337462 C 30.64078,54.130177 31.683273,53.545163 32.404474,53.03743 L 33.715749,52.114283 L 33.37821,51.275719 C 33.192563,50.814505 32.66861,49.521315 32.213867,48.40197 L 31.387065,46.366786 L 30.186501,47.258302 C 28.99713,48.141507 27.22076,48.945102 26.457799,48.945102 C 26.240148,48.945102 26.062071,49.048736 26.062071,49.175401 C 26.062071,49.302057 26.531256,50.60014 27.104707,52.060016 C 28.28042,55.05313 28.246921,55.027559 30.08782,54.337462 z M 25.860423,49.042701 C 25.860423,48.986967 25.36135,47.714455 24.751369,46.214894 C 24.141389,44.715331 23.642313,43.424452 23.642313,43.346257 C 23.642313,43.268071 24.164072,43.055542 24.80178,42.873976 C 26.02977,42.524347 26.908032,42.066498 28.107551,41.150659 C 28.51168,40.842104 28.887496,40.589652 28.942696,40.589652 C 28.997897,40.589652 29.520248,41.775827 30.103474,43.2256 C 30.6867,44.675365 31.249086,45.951066 31.353226,46.060488 C 31.566429,46.284489 32.636223,45.177142 34.572465,42.728249 C 35.242925,41.880268 35.81071,41.186473 35.834205,41.186473 C 35.857701,41.186473 36.360247,42.395028 36.950974,43.872147 C 37.541701,45.349274 38.095648,46.557829 38.181974,46.557829 C 38.268299,46.557829 38.771465,45.998314 39.300122,45.314462 C 39.828779,44.63061 40.790664,43.522447 41.437646,42.851875 L 42.613973,41.632664 L 41.628515,39.171492 C 41.086512,37.817859 40.580436,36.538127 40.503904,36.327653 C 40.379163,35.984603 40.269451,36.03613 39.444778,36.824994 C 38.938796,37.309011 37.936312,38.443588 37.217037,39.346276 C 36.497763,40.248964 35.878374,40.987532 35.840616,40.987532 C 35.802857,40.987532 35.255593,39.684741 34.624472,38.092448 C 33.993351,36.500153 33.453262,35.224453 33.424274,35.257559 C 33.395285,35.290666 32.646705,36.212986 31.760765,37.307149 C 30.874825,38.401319 29.881461,39.544277 29.553293,39.847052 L 28.956621,40.397563 L 27.888734,37.65872 C 27.301396,36.15236 26.7475,34.841382 26.657852,34.745434 C 26.567857,34.649117 26.10072,34.889615 25.61486,35.2824 C 24.637623,36.072416 22.882966,36.939265 21.877907,37.128544 C 21.517465,37.196426 21.222557,37.312322 21.222557,37.386099 C 21.222557,37.459876 21.721631,38.747154 22.331612,40.246715 C 22.941592,41.746267 23.440668,43.018781 23.440668,43.074523 C 23.440668,43.287808 21.457725,43.162706 20.357627,42.880011 C 19.724408,42.717296 18.571083,42.268556 17.794682,41.882816 C 17.018281,41.497074 16.383045,41.20917 16.383045,41.243023 C 16.383045,41.276878 16.906206,42.598465 17.545624,44.179877 L 18.708204,47.055179 L 20.217438,47.799167 C 21.047517,48.208353 22.225748,48.672456 22.835728,48.830506 C 23.914478,49.110004 25.860423,49.246525 25.860423,49.042701 z M 54.081435,38.077804 C 53.512179,36.669192 52.946863,35.397814 52.825166,35.252499 C 52.485688,34.84717 50.91477,34.115902 49.381395,33.649428 C 47.819908,33.174398 45.716055,33.071089 45.881451,33.477568 C 45.937103,33.614336 46.461535,34.912419 47.046852,36.362191 L 48.111067,38.99814 L 49.365756,38.99814 C 50.719998,38.99814 52.626125,39.514384 54.090917,40.277872 C 54.589987,40.538011 55.024897,40.725663 55.057377,40.694875 C 55.089858,40.664096 54.650682,39.486416 54.081435,38.077804 z M 20.928983,37.157074 C 20.982368,37.019833 20.534513,35.699368 19.933749,34.222724 C 19.332988,32.746072 18.883482,31.470766 18.934852,31.388706 C 18.98622,31.306645 19.1556,31.239502 19.311252,31.239502 C 19.97322,31.239502 21.906496,30.354143 23.036309,29.533585 C 24.240176,28.659252 24.257477,28.65385 24.430946,29.098392 C 25.17523,31.005732 26.546535,34.341608 26.619583,34.422534 C 26.734425,34.549745 28.170306,32.967201 29.731029,30.993277 C 30.400436,30.146648 31.013747,29.493953 31.093942,29.542853 C 31.174139,29.591753 31.719474,30.84769 32.305799,32.33383 C 32.892123,33.819969 33.43765,35.009797 33.518081,34.977885 C 33.598511,34.945982 34.393949,34.024654 35.285723,32.930483 C 36.177494,31.836322 37.141066,30.726629 37.426995,30.464515 L 37.946868,29.987948 L 38.134586,30.464515 C 38.23783,30.726629 38.743561,32.011729 39.258432,33.320291 C 39.773303,34.628853 40.227137,35.731631 40.266948,35.770905 C 40.306758,35.810187 40.779268,35.509327 41.316969,35.102329 C 42.347363,34.322397 44.184691,33.429924 44.770519,33.424786 C 45.741587,33.416265 45.723155,33.177208 44.523055,30.215339 C 43.886781,28.644995 43.347718,27.341098 43.325137,27.317777 C 43.302556,27.294447 42.834595,27.392704 42.285225,27.536103 C 41.04799,27.859074 39.912228,28.425703 38.889299,29.230318 C 38.458151,29.569451 38.049819,29.846209 37.98189,29.845322 C 37.913959,29.844442 37.368177,28.613505 36.769039,27.109913 C 36.169904,25.60631 35.646241,24.336916 35.605348,24.289026 C 35.470387,24.131001 33.708689,25.941121 32.471136,27.509382 C 31.801977,28.357364 31.189891,29.051168 31.110941,29.051168 C 31.031994,29.051168 30.482095,27.837658 29.88895,26.354478 C 29.295799,24.8713 28.756388,23.624797 28.690254,23.58447 C 28.624121,23.544142 27.920952,24.332419 27.127654,25.336194 C 25.687981,27.157847 24.316682,28.603237 24.182246,28.44075 C 24.14317,28.393518 23.627978,27.146322 23.037374,25.669195 C 22.446771,24.192077 21.939879,22.953067 21.910949,22.91584 C 21.88202,22.878623 21.37502,23.203253 20.78428,23.637244 C 19.399951,24.654248 18.946869,24.882587 17.562439,25.260949 L 16.422903,25.572386 L 17.512028,28.249558 C 18.111047,29.722002 18.601154,31.052297 18.601154,31.205762 C 18.601154,31.43123 18.345353,31.457766 17.268556,31.343996 C 15.77657,31.186367 14.365548,30.752358 12.799289,29.969334 C 12.219529,29.679488 11.745178,29.518487 11.745178,29.611552 C 11.745178,30.176847 13.848831,34.986599 14.250848,35.340462 C 15.575378,36.506346 20.645628,37.885576 20.928983,37.157074 z M 49.305918,26.245382 L 48.142346,23.381393 L 46.892711,22.729391 C 44.833755,21.655117 41.185547,20.900184 41.185547,21.548382 C 41.185547,21.689102 41.675607,23.009566 42.27457,24.48274 L 43.363594,27.161246 L 44.682191,27.292848 C 46.320504,27.456371 47.810687,27.895369 49.251402,28.638918 C 49.861381,28.953727 50.384989,29.188366 50.414973,29.160336 C 50.444959,29.132307 49.945884,27.820582 49.305918,26.245382 z M 38.140822,22.302902 C 38.540006,22.10506 39.229577,21.834759 39.6732,21.702225 C 40.11682,21.569683 40.587435,21.428287 40.719007,21.387995 C 40.877649,21.33941 40.583253,20.389588 39.845025,18.568215 C 39.232763,17.05763 38.651627,15.739511 38.55361,15.639066 C 38.140121,15.215335 35.648833,16.267183 33.764614,17.661038 L 33.160678,18.107801 L 32.054815,15.381027 C 31.446589,13.881298 30.852464,12.622515 30.734532,12.583734 C 30.533622,12.517661 27.315748,16.194609 26.679076,17.217753 C 26.411438,17.647853 26.47364,17.896897 27.47256,20.394717 C 28.068699,21.88538 28.608661,23.136838 28.672477,23.175751 C 28.736293,23.214664 29.464666,22.403171 30.291086,21.372438 C 31.81365,19.473451 33.054665,18.165451 33.185279,18.322034 C 33.244526,18.393062 34.717707,21.997499 35.355518,23.631964 C 35.530764,24.081047 35.531808,24.08081 36.472979,23.372037 C 36.991107,22.981852 37.741637,22.500743 38.140822,22.302902 z M 45.621767,17.217534 C 45.621767,17.164619 45.163792,15.978436 44.604046,14.581586 C 43.450362,11.702558 43.224316,11.446328 41.04641,10.548859 C 39.679766,9.9856901 36.678247,9.3599781 36.445391,9.5897071 C 36.386709,9.6476031 36.858896,11.006347 37.494695,12.609129 L 38.650693,15.523293 L 39.867707,15.525954 C 41.138891,15.528729 43.895718,16.337675 44.826898,16.981148 C 45.302292,17.309651 45.621767,17.40466 45.621767,17.217534 z"
           id="path3211"
           sodipodi:nodetypes="csssscccssssscccccccccsssccsssssssssssscccssssssscccssssssssscccsccssscccssccssssssssssscccsssssssssssssssssssscccsssssccccscccssccsssscccssssssssccssscccsc" />
        <path
           style="fill:none;fill-rule:evenodd;stroke:#000000;stroke-width:0.77200001;stroke-linecap:round;stroke-linejoin:bevel;stroke-miterlimit:4;stroke-dasharray:none;stroke-opacity:1"
           d="M 42.073724,10.930632 L 42.957837,11.862351 L 54.765131,40.614116"
           id="path2448"
           inkscape:connector-type="polyline"
           sodipodi:nodetypes="ccc" />
      </g>
    </g>
  </g>
</svg>
