<?xml version="1.0" encoding="UTF-8" standalone="no"?>
<!-- Created with Inkscape (http://www.inkscape.org/) -->
<svg
   xmlns:dc="http://purl.org/dc/elements/1.1/"
   xmlns:cc="http://creativecommons.org/ns#"
   xmlns:rdf="http://www.w3.org/1999/02/22-rdf-syntax-ns#"
   xmlns:svg="http://www.w3.org/2000/svg"
   xmlns="http://www.w3.org/2000/svg"
   xmlns:xlink="http://www.w3.org/1999/xlink"
   xmlns:sodipodi="http://sodipodi.sourceforge.net/DTD/sodipodi-0.dtd"
   xmlns:inkscape="http://www.inkscape.org/namespaces/inkscape"
   width="48px"
   height="48px"
   id="svg2406"
   sodipodi:version="0.32"
   inkscape:version="0.46"
   sodipodi:docname="torrent.svg"
   inkscape:output_extension="org.inkscape.output.svg.inkscape">
  <defs
     id="defs2408">
    <marker
       inkscape:stockid="DotL"
       orient="auto"
       refY="0.0"
       refX="0.0"
       id="DotL"
       style="overflow:visible">
      <path
         id="path4680"
         d="M -2.5,-1.0 C -2.5,1.7600000 -4.7400000,4.0 -7.5,4.0 C -10.260000,4.0 -12.5,1.7600000 -12.5,-1.0 C -12.5,-3.7600000 -10.260000,-6.0 -7.5,-6.0 C -4.7400000,-6.0 -2.5,-3.7600000 -2.5,-1.0 z "
         style="fill-rule:evenodd;stroke:#000000;stroke-width:1.0pt;marker-start:none;marker-end:none"
         transform="scale(0.8) translate(7.4, 1)" />
    </marker>
    <linearGradient
       inkscape:collect="always"
       id="linearGradient3165">
      <stop
         style="stop-color:#00ac00;stop-opacity:1;"
         offset="0"
         id="stop3167" />
      <stop
         style="stop-color:#00ac00;stop-opacity:0;"
         offset="1"
         id="stop3169" />
    </linearGradient>
    <inkscape:perspective
       sodipodi:type="inkscape:persp3d"
       inkscape:vp_x="0 : 24 : 1"
       inkscape:vp_y="0 : 1000 : 0"
       inkscape:vp_z="48 : 24 : 1"
       inkscape:persp3d-origin="24 : 16 : 1"
       id="perspective2414" />
    <filter
       inkscape:collect="always"
       id="filter3151">
      <feGaussianBlur
         inkscape:collect="always"
         stdDeviation="0.21198089"
         id="feGaussianBlur3153" />
    </filter>
    <linearGradient
       inkscape:collect="always"
       xlink:href="#linearGradient3165"
       id="linearGradient3177"
       x1="1.565168"
       y1="24.190102"
       x2="46.636784"
       y2="24.190102"
       gradientUnits="userSpaceOnUse" />
  </defs>
  <sodipodi:namedview
     id="base"
     pagecolor="#ffffff"
     bordercolor="#666666"
     borderopacity="1.0"
     inkscape:pageopacity="0.0"
     inkscape:pageshadow="2"
     inkscape:zoom="8"
     inkscape:cx="24"
     inkscape:cy="24"
     inkscape:current-layer="layer1"
     showgrid="true"
     inkscape:grid-bbox="true"
     inkscape:document-units="px"
     inkscape:window-width="642"
     inkscape:window-height="722"
     inkscape:window-x="304"
     inkscape:window-y="155">
    <inkscape:grid
       type="xygrid"
       id="grid2428" />
  </sodipodi:namedview>
  <metadata
     id="metadata2411">
    <rdf:RDF>
      <cc:Work
         rdf:about="">
        <dc:format>image/svg+xml</dc:format>
        <dc:type
           rdf:resource="http://purl.org/dc/dcmitype/StillImage" />
      </cc:Work>
    </rdf:RDF>
  </metadata>
  <g
     id="layer1"
     inkscape:label="Layer 1"
     inkscape:groupmode="layer">
    <path
       style="fill:#00ff00;fill-opacity:1;fill-rule:evenodd;stroke:url(#linearGradient3177);stroke-width:2.50000000000000000;stroke-linecap:butt;stroke-linejoin:round;stroke-opacity:1;filter:url(#filter3151);stroke-miterlimit:4;stroke-dasharray:none;marker-start:none;opacity:1"
       d="M 24.115608,32.196164 C 24.115608,32.196164 22.838341,32.680048 22.838341,32.680048 C 22.838341,32.680048 21.456231,32.893522 21.456231,32.893522 C 21.456231,32.893522 20.035092,32.83313 20.035092,32.83313 C 20.035092,32.83313 18.638924,32.507136 18.638924,32.507136 C 18.638924,32.507136 17.327417,31.931518 17.327417,31.931518 C 17.327417,31.931518 16.155001,31.128926 16.155001,31.128926 C 16.155001,31.128926 15.111838,30.073858 15.111838,30.073858 C 15.111838,30.073858 14.272853,28.847735 14.272853,28.847735 C 14.272853,28.847735 13.697537,27.575473 13.697537,27.575473 C 13.697537,27.575473 13.317291,26.100968 13.317291,26.100968 C 13.317291,26.100968 13.184189,24.569143 13.184189,24.569143 C 13.184189,24.569143 13.285725,23.114222 13.285725,23.114222 C 13.285725,23.114222 13.631079,21.59642 13.631079,21.59642 C 13.631079,21.59642 14.204425,20.148817 14.204425,20.148817 C 14.204425,20.148817 14.9393,18.884461 14.9393,18.884461 C 14.9393,18.884461 15.915275,17.691191 15.915275,17.691191 C 15.915275,17.691191 17.122263,16.610716 17.122263,16.610716 C 17.122263,16.610716 18.400327,15.778558 18.400327,15.778558 C 18.400327,15.778558 19.797427,15.134387 19.797427,15.134387 C 19.797427,15.134387 21.286349,14.69142 21.286349,14.69142 C 21.286349,14.69142 22.835987,14.456395 22.835987,14.456395 C 22.835987,14.456395 24.495766,14.439069 24.495766,14.439069 C 24.495766,14.439069 26.066567,14.635812 26.066567,14.635812 C 26.066567,14.635812 27.603318,15.032903 27.603318,15.032903 C 27.603318,15.032903 29.077535,15.622878 29.077535,15.622878 C 29.077535,15.622878 30.462219,16.39591 30.462219,16.39591 C 30.462219,16.39591 31.789905,17.398687 31.789905,17.398687 C 31.789905,17.398687 32.920672,18.518688 32.920672,18.518688 C 32.920672,18.518688 33.918738,19.805258 33.918738,19.805258 C 33.918738,19.805258 34.7233,21.155541 34.7233,21.155541 C 34.7233,21.155541 35.379514,22.684412 35.379514,22.684412 C 35.379514,22.684412 35.845825,24.287673 35.845825,24.287673 C 35.845825,24.287673 36.096661,25.869675 36.096661,25.869675 C 36.096661,25.869675 36.169121,27.550631 36.169121,27.550631 C 36.169121,27.550631 36.048883,29.163401 36.048883,29.163401 C 36.048883,29.163401 35.735025,30.824078 35.735025,30.824078 C 35.735025,30.824078 35.256231,32.375988 35.256231,32.375988 C 35.256231,32.375988 34.575271,33.92478 34.575271,33.92478 C 34.575271,33.92478 33.762651,35.330442 33.762651,35.330442 C 33.762651,35.330442 32.745373,36.68009 32.745373,36.68009 C 32.745373,36.68009 31.597244,37.890232 31.597244,37.890232 C 31.597244,37.890232 30.307612,38.968285 30.307612,38.968285 C 30.307612,38.968285 28.90136,39.896544 28.90136,39.896544 C 28.90136,39.896544 27.39543,40.663381 27.39543,40.663381 C 27.39543,40.663381 25.853953,41.243748 25.853953,41.243748 C 25.853953,41.243748 24.205394,41.667092 24.205394,41.667092 C 24.205394,41.667092 22.516778,41.913976 22.516778,41.913976 C 22.516778,41.913976 20.807623,41.984685 20.807623,41.984685 C 20.807623,41.984685 19.096727,41.880918 19.096727,41.880918 C 19.096727,41.880918 17.40225,41.605216 17.40225,41.605216 C 17.40225,41.605216 15.793798,41.174907 15.793798,41.174907 C 15.793798,41.174907 14.185344,40.565321 14.185344,40.565321 C 14.185344,40.565321 12.646374,39.796662 12.646374,39.796662 C 12.646374,39.796662 11.19384,38.875221 11.19384,38.875221 C 11.19384,38.875221 9.8442108,37.809016 9.8442108,37.809016 C 9.8442108,37.809016 8.6199855,36.623227 8.6199855,36.623227 C 8.6199855,36.623227 7.5002804,35.28712 7.5002804,35.28712 C 7.5002804,35.28712 6.5343162,33.865702 6.5343162,33.865702 C 6.5343162,33.865702 5.7121751,32.35165 5.7121751,32.35165 C 5.7121751,32.35165 5.04167,30.75961 5.04167,30.75961 C 5.04167,30.75961 4.5279103,29.10547 4.5279103,29.10547 C 4.5279103,29.10547 4.1690335,27.37229 4.1690335,27.37229 C 4.1690335,27.37229 3.9805727,25.643637 3.9805727,25.643637 C 3.9805727,25.643637 3.9518231,23.901534 3.9518231,23.901534 C 3.9518231,23.901534 4.0814324,22.161073 4.0814324,22.161073 C 4.0814324,22.161073 4.3673527,20.436953 4.3673527,20.436953 C 4.3673527,20.436953 4.8070139,18.743557 4.8070139,18.743557 C 4.8070139,18.743557 5.3971653,17.095058 5.3971653,17.095058 C 5.3971653,17.095058 6.1339394,15.505483 6.1339394,15.505483 C 6.1339394,15.505483 7.0136367,13.9784 7.0136367,13.9784 C 7.0136367,13.9784 8.0297214,12.548765 8.0297214,12.548765 C 8.0297214,12.548765 9.1740254,11.218478 9.1740254,11.218478 C 9.1740254,11.218478 10.449572,9.9884991 10.449572,9.9884991 C 10.449572,9.9884991 11.816327,8.8893103 11.816327,8.8893103 C 11.816327,8.8893103 13.294475,7.9073385 13.294475,7.9073385 C 13.294475,7.9073385 14.841372,7.0668767 14.841372,7.0668767 C 14.841372,7.0668767 16.476338,6.3636922 16.476338,6.3636922 C 16.476338,6.3636922 18.168243,5.8044571 18.168243,5.8044571 C 18.168243,5.8044571 19.891471,5.3997635 19.891471,5.3997635 C 19.891471,5.3997635 21.658971,5.1383951 21.658971,5.1383951 C 21.658971,5.1383951 23.431703,5.0300474 23.431703,5.0300474 C 23.431703,5.0300474 25.21029,5.0655381 25.21029,5.0655381 C 25.21029,5.0655381 26.993351,5.2513341 26.993351,5.2513341 C 26.993351,5.2513341 28.746552,5.5771596 28.746552,5.5771596 C 28.746552,5.5771596 30.478571,6.050804 30.478571,6.050804 C 30.478571,6.050804 32.167993,6.6621595 32.167993,6.6621595 C 32.167993,6.6621595 33.792479,7.4090277 33.792479,7.4090277 C 33.792479,7.4090277 35.360301,8.290981 35.360301,8.290981 C 35.360301,8.290981 36.841399,9.2976209 36.841399,9.2976209 C 36.841399,9.2976209 38.24104,10.43113 38.24104,10.43113 C 38.24104,10.43113 39.535079,11.673371 39.535079,11.673371 C 39.535079,11.673371 40.726579,13.026534 40.726579,13.026534 C 40.726579,13.026534 41.804151,14.47423 41.804151,14.47423 C 41.804151,14.47423 42.760209,16.007012 42.760209,16.007012 C 42.760209,16.007012 43.588677,17.614369 43.588677,17.614369 C 43.588677,17.614369 44.285149,19.285141 44.285149,19.285141 C 44.285149,19.285141 44.844359,21.003557 44.844359,21.003557 C 44.844359,21.003557 45.266256,22.767903 45.266256,22.767903 C 45.266256,22.767903 45.550437,24.561177 45.550437,24.561177 C 45.550437,24.561177 45.696952,26.372449 45.696952,26.372449 C 45.696952,26.372449 45.705802,28.18848 45.705802,28.18848 C 45.705802,28.18848 45.576092,30.004378 45.576092,30.004378 C 45.576092,30.004378 45.311578,31.806905 45.311578,31.806905 C 45.311578,31.806905 44.91384,33.586147 44.91384,33.586147 C 44.91384,33.586147 44.38466,35.332245 44.38466,35.332245 C 44.38466,35.332245 43.723802,37.034045 43.723802,37.034045 C 43.723802,37.034045 42.936047,38.683173 42.936047,38.683173 C 42.936047,38.683173 42.024993,40.26909 42.024993,40.26909 C 42.024993,40.26909 40.994592,41.78198 40.994592,41.78198 C 40.994592,41.78198 39.849743,43.21217 39.849743,43.21217 C 39.849743,43.21217 38.596383,44.550472 38.596383,44.550472 C 38.596383,44.550472 39.879941,43.238415 39.879941,43.238415 C 39.879941,43.238415 41.058707,41.829875 41.058707,41.829875 C 41.058707,41.829875 42.126134,40.333764 42.126134,40.333764 C 42.126134,40.333764 43.076758,38.75945 43.076758,38.75945 C 43.076758,38.75945 43.906001,37.116691 43.906001,37.116691 C 43.906001,37.116691 44.61159,35.410552 44.61159,35.410552 C 44.61159,35.410552 45.184327,33.658876 45.184327,33.658876 C 45.184327,33.658876 45.625705,31.868443 45.625705,31.868443 C 45.625705,31.868443 45.933405,30.049032 45.933405,30.049032 C 45.933405,30.049032 46.105323,28.210488 46.105323,28.210488 C 46.105323,28.210488 46.136783,26.355699 46.136783,26.355699 C 46.136783,26.355699 46.02775,24.5091 46.02775,24.5091 C 46.02775,24.5091 45.778007,22.674683 45.778007,22.674683 C 45.778007,22.674683 45.386712,20.86346 45.386712,20.86346 C 45.386712,20.86346 44.848649,19.078519 44.848649,19.078519 C 44.848649,19.078519 44.171406,17.349269 44.171406,17.349269 C 44.171406,17.349269 43.355942,15.678708 43.355942,15.678708 C 43.355942,15.678708 42.405976,14.078592 42.405976,14.078592 C 42.405976,14.078592 41.326956,12.560186 41.326956,12.560186 C 41.326956,12.560186 40.126068,11.133831 40.126068,11.133831 C 40.126068,11.133831 38.800855,9.8045285 38.800855,9.8045285 C 38.800855,9.8045285 37.377242,8.5992295 37.377242,8.5992295 C 37.377242,8.5992295 35.846363,7.5095374 35.846363,7.5095374 C 35.846363,7.5095374 34.239409,6.5590792 34.239409,6.5590792 C 34.239409,6.5590792 32.547378,5.7365882 32.547378,5.7365882 C 32.547378,5.7365882 30.804272,5.0627925 30.804272,5.0627925 C 30.804272,5.0627925 29.012109,4.5299735 29.012109,4.5299735 C 29.012109,4.5299735 27.166497,4.1444535 27.166497,4.1444535 C 27.166497,4.1444535 25.308992,3.9093919 25.308992,3.9093919 C 25.308992,3.9093919 23.421155,3.8297314 23.421155,3.8297314 C 23.421155,3.8297314 21.530238,3.9047217 21.530238,3.9047217 C 21.530238,3.9047217 19.666642,4.1392736 19.666642,4.1392736 C 19.666642,4.1392736 17.809668,4.5336848 17.809668,4.5336848 C 17.809668,4.5336848 16.009299,5.0859667 16.009299,5.0859667 C 16.009299,5.0859667 14.261191,5.792304 14.261191,5.792304 C 14.261191,5.792304 12.564405,6.6656336 12.564405,6.6656336 C 12.564405,6.6656336 10.966921,7.676799 10.966921,7.676799 C 10.966921,7.676799 9.448755,8.8438888 9.448755,8.8438888 C 9.448755,8.8438888 8.0579645,10.127854 8.0579645,10.127854 C 8.0579645,10.127854 6.7790563,11.550091 6.7790563,11.550091 C 6.7790563,11.550091 5.6375297,13.085335 5.6375297,13.085335 C 5.6375297,13.085335 4.6522789,14.712787 4.6522789,14.712787 C 4.6522789,14.712787 3.8100642,16.43109 3.8100642,16.43109 C 3.8100642,16.43109 3.1264521,18.219352 3.1264521,18.219352 C 3.1264521,18.219352 2.6061766,20.063132 2.6061766,20.063132 C 2.6061766,20.063132 2.2533663,21.948031 2.2533663,21.948031 C 2.2533663,21.948031 2.0718536,23.859509 2.0718536,23.859509 C 2.0718536,23.859509 2.065168,25.782654 2.065168,25.782654 C 2.065168,25.782654 2.236484,27.701853 2.236484,27.701853 C 2.236484,27.701853 2.5800919,29.561995 2.5800919,29.561995 C 2.5800919,29.561995 3.1113362,31.421308 3.1113362,31.421308 C 3.1113362,31.421308 3.8233227,33.224118 3.8233227,33.224118 C 3.8233227,33.224118 4.7127456,34.951512 4.7127456,34.951512 C 4.7127456,34.951512 5.7728672,36.58494 5.7728672,36.58494 C 5.7728672,36.58494 6.9732992,38.083124 6.9732992,38.083124 C 6.9732992,38.083124 8.3511711,39.479531 8.3511711,39.479531 C 8.3511711,39.479531 9.8496567,40.717462 9.8496567,40.717462 C 9.8496567,40.717462 11.466841,41.795051 11.466841,41.795051 C 11.466841,41.795051 13.18464,42.703262 13.18464,42.703262 C 13.18464,42.703262 14.984914,43.43508 14.984914,43.43508 C 14.984914,43.43508 16.907963,43.995215 16.907963,43.995215 C 16.907963,43.995215 18.822241,44.346252 18.822241,44.346252 C 18.822241,44.346252 20.764336,44.504914 20.764336,44.504914 C 20.764336,44.504914 22.715749,44.466825 22.715749,44.466825 C 22.715749,44.466825 24.656984,44.228169 24.656984,44.228169 C 24.656984,44.228169 26.56718,43.786201 26.56718,43.786201 C 26.56718,43.786201 28.472852,43.118128 28.472852,43.118128 C 28.472852,43.118128 30.249622,42.259797 30.249622,42.259797 C 30.249622,42.259797 31.923936,41.206501 31.923936,41.206501 C 31.923936,41.206501 33.473186,39.969986 33.473186,39.969986 C 33.473186,39.969986 34.879438,38.554914 34.879438,38.554914 C 34.879438,38.554914 36.103408,37.009407 36.103408,37.009407 C 36.103408,37.009407 37.168817,35.267855 37.168817,35.267855 C 37.168817,35.267855 38.001844,33.483786 38.001844,33.483786 C 38.001844,33.483786 38.647021,31.548324 38.647021,31.548324 C 38.647021,31.548324 39.055023,29.620639 39.055023,29.620639 C 39.055023,29.620639 39.24967,27.583342 39.24967,27.583342 C 39.24967,27.583342 39.206232,25.606136 39.206232,25.606136 C 39.206232,25.606136 38.922505,23.563745 38.922505,23.563745 C 38.922505,23.563745 38.405572,21.641601 38.405572,21.641601 C 38.405572,21.641601 37.661776,19.789027 37.661776,19.789027 C 37.661776,19.789027 36.635532,17.966307 36.635532,17.966307 C 36.635532,17.966307 35.422834,16.335088 35.422834,16.335088 C 35.422834,16.335088 33.98021,14.849716 33.98021,14.849716 C 33.98021,14.849716 32.415331,13.611914 32.415331,13.611914 C 32.415331,13.611914 30.630201,12.552333 30.630201,12.552333 C 30.630201,12.552333 28.724008,11.737425 28.724008,11.737425 C 28.724008,11.737425 26.727524,11.177579 26.727524,11.177579 C 26.727524,11.177579 24.67083,10.882545 24.67083,10.882545 C 24.67083,10.882545 22.672547,10.85928 22.672547,10.85928 C 22.672547,10.85928 20.595159,11.116821 20.595159,11.116821 C 20.595159,11.116821 18.561764,11.667204 18.561764,11.667204 C 18.561764,11.667204 16.616633,12.513214 16.616633,12.513214 C 16.616633,12.513214 14.807702,13.64659 14.807702,13.64659 C 14.807702,13.64659 13.260036,14.971742 13.260036,14.971742 C 13.260036,14.971742 11.872925,16.571526 11.872925,16.571526 C 11.872925,16.571526 10.718725,18.44254 10.718725,18.44254 C 10.718725,18.44254 9.9039827,20.378901 9.9039827,20.378901 C 9.9039827,20.378901 9.3869172,22.415454 9.3869172,22.415454 C 9.3869172,22.415454 9.1834331,24.607073 9.1834331,24.607073 C 9.1834331,24.607073 9.3243661,26.721804 9.3243661,26.721804 C 9.3243661,26.721804 9.8050006,28.800958 9.8050006,28.800958 C 9.8050006,28.800958 10.689656,30.882929 10.689656,30.882929 C 10.689656,30.882929 11.881639,32.696498 11.881639,32.696498 C 11.881639,32.696498 13.372425,34.276161 13.372425,34.276161 C 13.372425,34.276161 15.181188,35.589342 15.181188,35.589342 C 15.181188,35.589342 17.192869,36.536529 17.192869,36.536529 C 17.192869,36.536529 19.342479,37.098269 19.342479,37.098269 C 19.342479,37.098269 21.569773,37.253041 21.569773,37.253041 C 21.569773,37.253041 23.808312,36.97279 23.808312,36.97279 C 23.808312,36.97279 25.972424,36.230252 25.972424,36.230252 C 25.972424,36.230252 27.951982,35.020298 27.951982,35.020298 C 27.951982,35.020298 29.623723,33.396579 29.623723,33.396579"
       sodipodi:nodetypes="ccccccccccccccccccccccccccccccccccccccccccccccccccccccccccccccccccccccccccccccccccccccccccccccccccccccccccccccccccccccccccccccccccccccccccccccccccccccccccccccccccccccccccccccccccccccccccccccccccccccccccccccccccccccccccccccccc"
       id="path3359" />
  </g>
</svg>
